<svg width="52" height="52" viewBox="0 0 52 52" fill="none" xmlns="http://www.w3.org/2000/svg">
<path d="M23.5393 15.2422V15.3997C23.0357 15.9249 22.6999 16.7756 22.532 17.9519C22.3851 19.1282 22.3117 20.4726 22.3117 21.985V24.8522L29.3943 23.97V21.985C29.3943 20.4726 29.3103 19.1282 29.1424 17.9519C28.9955 16.7756 28.6703 15.9249 28.1666 15.3997V15.2422H36.288V15.3997C35.7843 15.9249 35.4485 16.7756 35.2807 17.9519C35.1338 19.1282 35.0603 20.4726 35.0603 21.985V30.5552C35.0603 32.0676 35.1338 33.412 35.2807 34.5883C35.4485 35.7646 35.7843 36.6153 36.288 37.1404V37.298H28.1666V37.1404C28.6703 36.6153 28.9955 35.7646 29.1424 34.5883C29.3103 33.412 29.3943 32.0676 29.3943 30.5552V28.0345L22.3117 28.9168V30.5552C22.3117 32.0676 22.3851 33.412 22.532 34.5883C22.6999 35.7646 23.0357 36.6153 23.5393 37.1404V37.298H15.418V37.1404C15.9216 36.6153 16.2469 35.7646 16.3938 34.5883C16.5617 33.412 16.6456 32.0676 16.6456 30.5552V21.985C16.6456 20.4726 16.5617 19.1282 16.3938 17.9519C16.2469 16.7756 15.9216 15.9249 15.418 15.3997V15.2422H23.5393Z" fill="white"/>
<circle cx="25.8535" cy="26.2715" r="23.873" stroke="white" stroke-width="3"/>
</svg>
