<svg width="301" height="47" viewBox="0 0 301 47" fill="none" xmlns="http://www.w3.org/2000/svg">
<path d="M54.3446 42.9836C53.594 42.9836 51.7318 42.6206 51.2138 43.1937C51.0078 43.4201 51.0281 43.9708 50.916 44.2645C50.71 44.7968 50.3714 45.219 49.9166 45.5597C48.2114 46.8405 45.0092 46.451 44.5687 44.0973C43.7773 39.8732 43.9996 32.3164 38.1174 32.1757C36.2165 32.1308 32.8776 32.1675 31.8639 34.1562C31.1215 35.6145 31.2316 38.4394 32.4085 39.6509C33.259 40.53 37.3383 41.6966 35.3721 43.2773C34.4767 43.9973 33.2937 44.1748 32.2127 44.4093C31.1113 44.6459 30.8543 45.4006 29.9528 45.9268C28.366 46.8507 25.0638 46.5346 24.1134 44.7989C23.5668 43.7974 23.989 42.6002 23.9706 41.5233C23.9502 40.3077 23.7932 38.9737 23.3424 37.8336C21.1009 32.1635 13.6869 38.0722 11.0762 40.2301C9.28131 41.715 6.84601 42.9102 4.61059 43.567C3.57447 43.8709 2.36905 44.0034 1.37372 43.5302C0.645578 43.1835 -0.32324 42.7001 0.119357 41.8333C0.52728 41.0338 1.68578 40.581 2.42616 40.1873C3.54591 39.5917 4.63914 38.9411 5.64263 38.164C7.71692 36.5588 8.85095 34.6273 10.0441 32.3409C11.2964 29.9423 12.0062 27.5866 12.8262 25.0269C13.5767 22.6874 14.5863 20.6111 15.9468 18.5654C18.8145 14.2536 23.1874 11.186 27.7419 8.85679C30.0446 7.67993 32.2086 7.2251 34.752 6.92731C35.886 6.79474 37.0038 6.49491 38.1419 6.61117C39.6043 6.76006 41.0687 6.9579 42.527 7.13943C47.8831 7.80842 52.7108 9.98673 57.4223 12.4893C60.4389 14.0904 58.7664 9.14641 58.4483 7.8533C58.1954 6.83145 56.1068 0.918606 57.3673 0.406663C58.1219 0.10072 59.6312 2.03427 60.0473 2.50543C60.9223 3.49464 61.7219 4.56952 62.4663 5.66071C63.1822 6.70703 63.8838 7.77783 64.5039 8.88534C64.8792 9.55434 65.2769 11.2289 66.262 10.6618C67.1921 10.1254 67.9304 8.44683 68.6586 7.63506C69.4479 6.75394 70.4534 6.08699 71.4304 5.43024C72.2544 4.8775 73.1009 4.57972 73.3415 5.82592C73.5496 6.91304 72.7113 8.19187 72.2932 9.13214C71.7996 10.2437 71.6038 11.4165 71.1795 12.5485C70.7329 13.7417 69.8803 15.0899 69.7681 16.3728C69.5886 18.4491 72.5318 20.6906 73.8698 21.9572C75.7748 23.7603 77.7593 25.4572 79.8948 26.9869C80.7453 27.5968 82.0038 28.2189 82.3546 29.2713C82.6483 30.1524 82.4423 31.3599 81.8039 32.0431C80.2252 33.7319 78.0429 32.4103 76.456 31.5699C74.1533 30.3502 71.9056 29.0735 69.5071 28.0475C66.8719 26.9217 64.8159 26.4118 61.9238 26.5668C59.6965 26.6871 56.9328 27.4234 55.3297 29.0979C53.6919 30.8092 52.5599 33.3505 52.5517 35.7267C52.5497 36.7934 52.8047 37.905 53.6246 38.6413C54.4241 39.3592 55.4847 39.655 56.2659 40.43C56.6391 40.7992 57.8241 42.0474 57.5366 42.6818C57.2347 43.3487 54.9564 42.9836 54.3425 42.9836H54.3446Z" fill="black"/>
<path d="M189.624 40.051C188.456 41.3829 187.583 42.4782 185.908 43.2389C183.966 44.1201 181.829 44.2384 179.767 43.7488C175.545 42.7433 172.853 39.1556 171.71 35.1417C169.522 27.4544 173.932 16.3935 182.883 15.9469C185.037 15.8388 186.987 16.0937 188.913 17.1033C189.269 17.291 189.5 17.6744 189.822 17.4031C190.059 17.2053 189.904 16.1875 189.904 15.904C189.904 14.668 189.904 13.432 189.904 12.196C189.904 9.72399 189.904 7.25198 189.9 4.77996C189.9 4.10281 189.545 2.17538 189.926 1.62264C190.342 1.02095 191.756 1.33709 192.408 1.33913C193.463 1.34117 194.905 1.07194 195.921 1.32282C196.869 1.55737 196.559 2.45684 196.555 3.32776C196.545 5.63048 196.555 7.93525 196.555 10.238C196.555 15.0474 196.555 19.8568 196.555 24.6642C196.555 30.0386 196.555 35.4129 196.555 40.7873C196.555 41.3707 196.857 42.8535 196.322 43.2288C195.749 43.6306 193.563 43.2532 192.884 43.2532C192.215 43.2532 190.399 43.5979 189.961 43.0329C189.557 42.5108 189.926 40.7853 189.779 40.0735C189.726 40.0653 189.675 40.0571 189.622 40.049L189.624 40.051ZM189.908 29.9243C189.779 27.9398 190.14 25.7656 189.365 23.8728C188.627 22.0718 186.487 21.4151 184.67 21.5272C180.314 21.7944 178.4 26.3693 178.368 30.1772C178.339 33.6548 180.046 38.8191 184.403 38.3908C186.251 38.2093 187.995 36.8753 189.092 35.4333C190.295 33.8547 189.908 31.8069 189.908 29.9223V29.9243Z" fill="black"/>
<path d="M122.91 43.1712C120.928 43.3568 118.888 43.2242 116.897 43.2324C115.722 43.2365 115.433 43.4078 115.088 42.286C114.766 41.2336 114.46 40.1791 114.119 39.1328C113.803 38.1619 113.473 37.1972 113.157 36.2263C112.94 35.5655 112.836 34.2724 112.173 33.9399C111.468 33.583 110.122 33.8767 109.342 33.8767C108.227 33.8767 107.111 33.8767 105.993 33.8767C104.876 33.8767 103.762 33.8767 102.644 33.8767C101.961 33.8767 100.433 33.5667 99.8257 33.9542C99.2913 34.2948 99.1791 35.4492 99.022 35.9979C98.7528 36.9382 98.4061 37.8295 98.0879 38.7493C97.6759 39.9344 97.4291 42.9 96.0564 43.2141C95.0591 43.4425 93.668 43.2263 92.6421 43.2263C91.5509 43.2263 90.2109 43.4078 89.1523 43.1325C92.6788 32.4061 96.8764 21.8919 100.668 11.2655C101.162 9.88471 101.561 8.47329 102.059 7.09247C102.22 6.64784 102.379 5.82995 102.797 5.52809C103.389 5.10181 104.478 5.35268 105.163 5.35676C106.067 5.36288 108.372 4.90804 109.108 5.47302C109.912 6.09306 110.264 8.25913 110.609 9.19736C112.553 14.4922 114.486 19.787 116.312 25.1267C117.362 28.1984 118.623 31.1987 119.706 34.2601C120.76 37.2461 121.696 40.2403 122.908 43.1692L122.91 43.1712ZM106.046 14.2434C105.157 15.5671 104.851 17.4925 104.372 19.0079C103.831 20.711 103.309 22.4202 102.785 24.1294C102.587 24.7719 101.406 27.2806 101.943 27.7599C102.275 28.0556 103.625 27.817 104.035 27.817C104.917 27.817 105.798 27.817 106.679 27.817C107.427 27.817 109.967 28.2596 110.254 27.3785C110.383 26.9828 109.903 26.1302 109.787 25.7998C109.495 24.984 109.273 24.1579 109.057 23.3197C108.618 21.6207 107.868 20.0257 107.391 18.3328C107.001 16.9499 106.52 15.5977 106.046 14.2434Z" fill="black"/>
<path d="M284.253 27.7933C286.421 24.7604 288.657 21.7744 290.806 18.7313C291.194 18.1806 291.614 17.2464 292.167 16.863C292.768 16.4449 293.754 16.6305 294.471 16.6284C296.091 16.6223 298.357 16.2185 299.903 16.7039C298.179 18.925 296.493 21.1727 294.763 23.3877C293.868 24.534 292.944 25.6598 292.03 26.7918C291.204 27.8157 290.201 28.5173 291.037 29.8043C292.532 32.1091 294.098 34.4016 295.679 36.6493C296.472 37.7772 297.251 38.9031 297.98 40.0718C298.618 41.0936 299.522 42.0767 300.007 43.174C298.092 43.3719 296.107 43.225 294.182 43.2332C293.305 43.2372 292.605 43.429 292.002 42.7702C291.288 41.989 290.825 40.755 290.282 39.8393C288.308 36.5024 286.437 32.9698 284.141 29.8472C283.859 32.8984 284.053 36.0374 284.053 39.1009C284.053 39.8413 284.053 40.5837 284.053 41.3241C284.053 41.5852 284.247 42.8151 283.988 43.0659C283.362 43.6737 280.932 43.2332 280.074 43.2311C279.397 43.2311 277.577 43.5921 277.241 42.9027C277.043 42.4969 277.224 41.4995 277.224 41.0753C277.224 40.1289 277.224 39.1845 277.224 38.2382C277.224 34.834 277.224 31.4299 277.224 28.0238C277.224 21.3094 277.224 14.5949 277.224 7.88052C277.224 6.27331 277.229 4.66609 277.224 3.05684C277.224 2.75905 277.033 1.74332 277.267 1.49245C277.585 1.1498 278.599 1.33336 279.015 1.33336C279.75 1.33336 280.484 1.33744 281.218 1.33744C281.875 1.33744 282.972 1.12532 283.57 1.33744C284.565 1.68825 284.059 4.13579 284.057 5.0679C284.051 8.85342 284.049 12.6389 284.049 16.4245C284.049 20.1876 283.849 24.0159 284.104 27.7708L284.251 27.7933H284.253Z" fill="black"/>
<path d="M250.32 29.7904C250.32 32.0258 250.124 34.355 250.32 36.5802C250.385 37.3206 250.604 37.9325 251.322 38.2548C251.597 38.3792 252.025 38.3098 252.217 38.5627C252.458 38.8809 252.135 39.6131 252.058 39.964C251.842 40.9287 251.772 42.126 251.397 43.0397C251.048 43.8902 250.418 43.6536 249.496 43.6516C247.51 43.6516 246.027 43.3089 244.797 41.7344C244.297 41.0939 244.156 40.8532 243.392 41.3183C242.396 41.922 241.623 42.7093 240.514 43.1478C238.419 43.9739 236.328 44.2818 234.142 43.6088C229.897 42.3014 228.066 38.2364 229.363 34.0389C230.628 29.9495 235.729 29.2988 239.243 28.175C240.269 27.8466 241.303 27.559 242.339 27.2633C243.504 26.9308 243.324 26.4556 243.328 25.3032C243.332 23.5818 243.369 21.4993 241.454 20.7957C240.085 20.2919 237.648 20.6611 236.771 21.9011C236.398 22.4274 236.6 23.2595 236.143 23.6736C235.555 24.2039 233.644 24.2467 232.888 24.4221C232.274 24.5649 230.83 25.2359 230.232 25.0442C229.485 24.8035 229.681 23.3003 229.71 22.6517C229.795 20.6794 230.819 18.9029 232.488 17.8301C234.542 16.5104 237.004 15.9903 239.408 15.9455C241.666 15.9047 244.279 15.7231 246.361 16.7531C251.444 19.268 249.88 25.2216 250.32 29.7944V29.7904ZM243.341 34.1633H243.351C243.351 33.2842 243.775 31.7423 242.82 31.5363C242.362 31.4384 241.148 32.1074 240.689 32.2603C240.183 32.4296 239.677 32.5969 239.172 32.7621C237.405 33.3373 236.175 33.4229 236.1 35.487C236.024 37.5185 237.216 38.8238 239.314 38.5974C240.497 38.4689 241.558 37.8795 242.502 37.1799C243.575 36.3865 243.339 35.4156 243.339 34.1613L243.341 34.1633Z" fill="black"/>
<path d="M132.701 23.6043C131.716 23.8042 130.733 24.0021 129.758 24.2448C128.926 24.4528 127.39 25.2034 126.537 25.0443C125.136 24.7832 125.895 21.5464 126.272 20.6673C127.882 16.9042 132.577 15.9762 136.228 15.9068C140.133 15.8334 144.294 16.329 145.838 20.4837C146.599 22.5356 146.389 24.8322 146.391 26.9819C146.395 29.4234 146.354 31.8689 146.397 34.3103C146.413 35.2097 146.295 36.4784 146.624 37.3269C146.742 37.6328 146.919 37.8939 147.189 38.0876C147.464 38.2875 148.108 38.2427 148.304 38.4711C148.655 38.879 148.263 39.754 148.163 40.2354C148.006 40.9921 147.992 42.7808 147.515 43.3702C146.787 44.2677 143.425 43.5497 142.408 43.0867C141.569 42.7074 141.386 42.1342 140.815 41.506C140.031 40.6433 139.456 41.4754 138.677 42.0078C135.312 44.3044 130.509 44.9387 127.306 41.9935C124.398 39.3196 124.147 33.9166 127.376 31.3508C129.303 29.8211 131.506 29.4091 133.792 28.6952C134.971 28.3281 136.132 27.9222 137.321 27.5877C138.312 27.3083 139.381 27.3837 139.524 26.2436C139.752 24.3916 139.677 21.3342 137.453 20.7264C135.981 20.3226 131.447 21.1405 132.701 23.6043ZM139.536 34.0961C139.536 33.215 139.987 31.5629 138.879 31.5711C137.969 31.5792 136.611 32.3461 135.759 32.6296C134.912 32.9111 133.48 33.0498 132.821 33.6923C132.226 34.2736 132.118 35.4688 132.203 36.2479C132.428 38.2549 134.266 38.8974 136.034 38.5445C137.015 38.3487 137.772 37.7409 138.594 37.2086C139.825 36.4111 139.532 35.479 139.532 34.0941L139.536 34.0961Z" fill="black"/>
<path d="M213.334 34.7339C214.805 30.4568 216.249 26.1757 217.75 21.9149C218.119 20.8686 218.39 19.806 218.735 18.7556C218.953 18.0927 219.082 16.9505 219.779 16.6446C220.575 16.2958 222.204 16.6323 223.067 16.6323C224.046 16.6323 225.7 16.3427 226.575 16.7343C224.362 22.1087 222.453 27.6197 220.369 33.0431C219.261 35.923 218.194 38.8172 217.046 41.6809C216.879 42.0969 216.73 42.872 216.34 43.1371C215.908 43.4329 214.921 43.2228 214.415 43.2248C213.654 43.2269 212.895 43.2289 212.135 43.2289C211.502 43.2289 210.04 43.5043 209.54 43.1371C208.847 42.6252 208.708 40.6814 208.467 39.9105C208.031 38.5174 207.505 37.1468 207.042 35.7598C206.095 32.9146 205.123 30.0795 204.184 27.2322C203.201 24.2442 202.265 21.248 201.162 18.3028C200.715 17.1116 200.38 16.6385 201.812 16.6201C203.395 16.5997 204.984 16.6017 206.567 16.614C207.297 16.6201 207.564 16.5956 207.935 17.2075C208.315 17.8357 208.433 18.9024 208.643 19.6102C209.13 21.2561 209.593 22.9082 210.099 24.5481C211.148 27.9481 212.18 31.3686 213.334 34.7319V34.7339Z" fill="black"/>
<path d="M264.098 22.0363C265.627 20.2027 266.886 16.8128 269.49 16.2316C270.61 15.9807 271.964 16.3315 272.862 17.0066C274.143 17.9734 273.849 18.7464 273.374 20.117C273.113 20.8676 272.901 21.6406 272.664 22.3994C272.548 22.7726 272.309 24.2656 271.875 24.4838C271.485 24.6796 271.11 24.3268 270.755 24.1922C270.068 23.9291 269.472 23.9066 268.772 24.1881C266.213 25.2181 264.746 28.1307 264.581 30.7495C264.369 34.1006 264.567 37.5313 264.577 40.8905C264.577 41.3555 264.799 42.5711 264.508 43.0015C264.222 43.4237 263.263 43.234 262.825 43.2299C262.07 43.2238 261.316 43.2218 260.561 43.2259C259.937 43.2259 258.532 43.5114 258.018 43.2177C257.292 42.8016 257.736 40.0787 257.738 39.2914C257.738 37.6047 257.74 35.92 257.742 34.2332C257.742 30.8617 257.742 27.4902 257.742 24.1167C257.742 22.2443 257.742 20.3699 257.742 18.4976C257.742 18.1896 257.538 17.0066 257.836 16.7109C258.15 16.3988 259.219 16.615 259.606 16.615C260.52 16.615 263.155 16.1337 263.68 16.9209C263.957 17.337 263.763 18.5649 263.773 19.0218C263.796 19.9926 263.853 20.9614 263.902 21.9302C263.967 21.9649 264.034 21.9996 264.1 22.0343L264.098 22.0363Z" fill="black"/>
<path d="M170.161 18.0725C169.819 19.2168 169.486 20.3651 169.119 21.5032C168.929 22.0947 168.615 24.2077 168.008 24.532C167.716 24.687 167.112 24.2465 166.873 24.171C166.351 24.0038 165.886 23.9711 165.342 24.1098C164.344 24.3648 163.473 25.1113 162.788 25.8496C161.083 27.6914 160.74 30.0288 160.753 32.4437C160.767 35.1013 160.761 37.761 160.765 40.4186C160.765 41.2344 161.173 42.9049 160.296 43.2292C159.276 43.6065 157.387 43.219 156.29 43.223C155.429 43.2271 154.316 43.5841 154.048 42.654C153.683 41.3833 154.05 39.4681 154.052 38.1403C154.057 32.5926 154.055 27.0469 154.052 21.4991C154.052 20.2509 153.696 18.303 154.057 17.1139C154.344 16.1716 156.131 16.6142 156.989 16.6142C157.642 16.6142 158.631 16.4143 159.258 16.6061C159.869 16.7937 159.804 17.0018 159.849 17.6361C159.937 18.819 159.606 21.132 160.281 22.0947C161.085 21.4624 161.556 20.2243 162.125 19.3718C162.758 18.4234 163.433 17.5198 164.406 16.8937C166.482 15.5557 168.603 16.3838 170.157 18.0685L170.161 18.0725Z" fill="black"/>
</svg>
