<svg width="132" height="132" viewBox="0 0 132 132" fill="none" xmlns="http://www.w3.org/2000/svg">
<path d="M0.214844 0.727539H131.098V131.61H0.214844V0.727539Z" fill="#FC624D"/>
<path d="M43.9599 59.7824C42.9521 59.7824 42.0621 59.5795 41.2899 59.1738C40.5177 58.7681 39.9156 58.2053 39.4837 57.4854C39.0649 56.7525 38.8555 55.9083 38.8555 54.9528V50.5552C38.8555 49.5997 39.0649 48.7555 39.4837 48.0226C39.9156 47.2896 40.5177 46.7268 41.2899 46.3342C42.0621 45.9285 42.9521 45.7256 43.9599 45.7256C44.9546 45.7256 45.8315 45.9219 46.5906 46.3146C47.3629 46.7072 47.9584 47.2438 48.3772 47.9244C48.8091 48.5919 49.0251 49.338 49.0251 50.1625V50.2999C49.0251 50.3654 48.9989 50.4243 48.9465 50.4766C48.9073 50.5159 48.8549 50.5355 48.7895 50.5355H46.4925C46.427 50.5355 46.3681 50.5159 46.3158 50.4766C46.2765 50.4243 46.2569 50.3654 46.2569 50.2999V50.241C46.2569 49.639 46.0475 49.1351 45.6287 48.7293C45.2098 48.3105 44.6536 48.1011 43.9599 48.1011C43.2531 48.1011 42.6838 48.3236 42.2519 48.7686C41.8331 49.2005 41.6236 49.7699 41.6236 50.4766V55.0314C41.6236 55.7381 41.8527 56.314 42.3108 56.759C42.7689 57.1909 43.3513 57.4069 44.0581 57.4069C44.7387 57.4069 45.2818 57.2302 45.6876 56.8768C46.0933 56.5103 46.2962 56.0064 46.2962 55.3651V54.4816C46.2962 54.4162 46.2634 54.3835 46.198 54.3835H43.9992C43.9337 54.3835 43.8748 54.3639 43.8225 54.3246C43.7832 54.2722 43.7636 54.2133 43.7636 54.1479V52.3417C43.7636 52.2763 43.7832 52.2239 43.8225 52.1847C43.8748 52.1323 43.9337 52.1061 43.9992 52.1061H48.7895C48.8549 52.1061 48.9073 52.1323 48.9465 52.1847C48.9989 52.2239 49.0251 52.2763 49.0251 52.3417V54.9332C49.0251 55.9279 48.8157 56.7917 48.3968 57.5247C47.978 58.2576 47.3825 58.8204 46.6103 59.2131C45.8512 59.5926 44.9677 59.7824 43.9599 59.7824Z" fill="white"/>
<path d="M58.5593 59.8413C57.5384 59.8413 56.6353 59.6319 55.85 59.2131C55.0778 58.7942 54.4758 58.2118 54.0439 57.4658C53.6119 56.7067 53.396 55.8363 53.396 54.8547V50.6533C53.396 49.6848 53.6119 48.8275 54.0439 48.0815C54.4758 47.3354 55.0778 46.7596 55.85 46.3538C56.6353 45.935 57.5384 45.7256 58.5593 45.7256C59.5933 45.7256 60.4964 45.935 61.2686 46.3538C62.0539 46.7596 62.6625 47.3354 63.0944 48.0815C63.5263 48.8275 63.7423 49.6848 63.7423 50.6533V54.8547C63.7423 55.8363 63.5263 56.7067 63.0944 57.4658C62.6625 58.2249 62.0539 58.8139 61.2686 59.2327C60.4964 59.6384 59.5933 59.8413 58.5593 59.8413ZM58.5593 57.4658C59.2792 57.4658 59.8616 57.2367 60.3066 56.7786C60.7516 56.3205 60.9741 55.7119 60.9741 54.9528V50.6337C60.9741 49.8746 60.7516 49.266 60.3066 48.8079C59.8747 48.3367 59.2923 48.1011 58.5593 48.1011C57.8395 48.1011 57.257 48.3367 56.812 48.8079C56.3801 49.266 56.1642 49.8746 56.1642 50.6337V54.9528C56.1642 55.7119 56.3801 56.3205 56.812 56.7786C57.257 57.2367 57.8395 57.4658 58.5593 57.4658Z" fill="white"/>
<path d="M73.2724 59.8413C72.2515 59.8413 71.3484 59.6319 70.5631 59.2131C69.7909 58.7942 69.1888 58.2118 68.7569 57.4658C68.325 56.7067 68.1091 55.8363 68.1091 54.8547V50.6533C68.1091 49.6848 68.325 48.8275 68.7569 48.0815C69.1888 47.3354 69.7909 46.7596 70.5631 46.3538C71.3484 45.935 72.2515 45.7256 73.2724 45.7256C74.3064 45.7256 75.2094 45.935 75.9817 46.3538C76.767 46.7596 77.3756 47.3354 77.8075 48.0815C78.2394 48.8275 78.4553 49.6848 78.4553 50.6533V54.8547C78.4553 55.8363 78.2394 56.7067 77.8075 57.4658C77.3756 58.2249 76.767 58.8139 75.9817 59.2327C75.2094 59.6384 74.3064 59.8413 73.2724 59.8413ZM73.2724 57.4658C73.9922 57.4658 74.5747 57.2367 75.0197 56.7786C75.4647 56.3205 75.6872 55.7119 75.6872 54.9528V50.6337C75.6872 49.8746 75.4647 49.266 75.0197 48.8079C74.5878 48.3367 74.0053 48.1011 73.2724 48.1011C72.5525 48.1011 71.9701 48.3367 71.5251 48.8079C71.0932 49.266 70.8772 49.8746 70.8772 50.6337V54.9528C70.8772 55.7119 71.0932 56.3205 71.5251 56.7786C71.9701 57.2367 72.5525 57.4658 73.2724 57.4658Z" fill="white"/>
<path d="M83.3326 59.6253C83.2671 59.6253 83.2082 59.6057 83.1559 59.5664C83.1166 59.5141 83.097 59.4552 83.097 59.3898V46.1182C83.097 46.0528 83.1166 46.0004 83.1559 45.9612C83.2082 45.9088 83.2671 45.8826 83.3326 45.8826H88.2407C89.2223 45.8826 90.0796 46.0593 90.8125 46.4127C91.5586 46.753 92.1344 47.2373 92.5402 47.8655C92.9459 48.4938 93.1488 49.2202 93.1488 50.0447V55.4633C93.1488 56.2878 92.9459 57.0142 92.5402 57.6425C92.1344 58.2707 91.5586 58.7615 90.8125 59.1149C90.0796 59.4552 89.2223 59.6253 88.2407 59.6253H83.3326ZM85.8651 57.1517C85.8651 57.2171 85.8979 57.2498 85.9633 57.2498H88.3388C88.9409 57.2498 89.4252 57.0469 89.7916 56.6412C90.1712 56.2355 90.3675 55.6923 90.3806 55.0117V50.4963C90.3806 49.8157 90.1908 49.2725 89.8113 48.8668C89.4448 48.461 88.9474 48.2582 88.3192 48.2582H85.9633C85.8979 48.2582 85.8651 48.2909 85.8651 48.3563V57.1517Z" fill="white"/>
<path d="M44.6005 83.9953C43.5796 83.9953 42.6831 83.799 41.9109 83.4063C41.1387 83.0006 40.5432 82.4378 40.1243 81.7179C39.7055 80.9981 39.4961 80.167 39.4961 79.2246V74.6895C39.4961 73.7472 39.7055 72.9161 40.1243 72.1962C40.5432 71.4763 41.1387 70.9201 41.9109 70.5274C42.6831 70.1348 43.5796 69.9385 44.6005 69.9385C45.6083 69.9385 46.4918 70.1283 47.2509 70.5078C48.0231 70.8743 48.6186 71.4044 49.0375 72.098C49.4694 72.7786 49.6853 73.5705 49.6853 74.4736C49.6853 74.5914 49.6068 74.6633 49.4497 74.6895L47.1527 74.8269H47.1135C46.9826 74.8269 46.9171 74.755 46.9171 74.611C46.9171 73.9173 46.7012 73.3611 46.2693 72.9422C45.8505 72.5234 45.2942 72.314 44.6005 72.314C43.8938 72.314 43.3244 72.5234 42.8925 72.9422C42.4737 73.3611 42.2643 73.9173 42.2643 74.611V79.3424C42.2643 80.023 42.4737 80.5727 42.8925 80.9915C43.3244 81.4104 43.8938 81.6198 44.6005 81.6198C45.2942 81.6198 45.8505 81.4104 46.2693 80.9915C46.7012 80.5727 46.9171 80.023 46.9171 79.3424C46.9171 79.1984 46.9957 79.1264 47.1527 79.1264L49.4497 79.2246C49.5152 79.2246 49.5675 79.2442 49.6068 79.2835C49.6591 79.3228 49.6853 79.3686 49.6853 79.4209C49.6853 80.324 49.4694 81.1224 49.0375 81.8161C48.6186 82.5098 48.0231 83.0464 47.2509 83.426C46.4918 83.8055 45.6083 83.9953 44.6005 83.9953Z" fill="white"/>
<path d="M63.5639 70.0955C63.6293 70.0955 63.6817 70.1217 63.7209 70.1741C63.7733 70.2133 63.7994 70.2657 63.7994 70.3311V72.2551C63.7994 72.3205 63.7733 72.3794 63.7209 72.4318C63.6817 72.4711 63.6293 72.4907 63.5639 72.4907H60.0497C59.9842 72.4907 59.9515 72.5234 59.9515 72.5889V83.6026C59.9515 83.6681 59.9253 83.727 59.873 83.7793C59.8337 83.8186 59.7813 83.8382 59.7159 83.8382H57.4189C57.3535 83.8382 57.2946 83.8186 57.2422 83.7793C57.203 83.727 57.1833 83.6681 57.1833 83.6026V72.5889C57.1833 72.5234 57.1506 72.4907 57.0852 72.4907H53.6691C53.6037 72.4907 53.5448 72.4711 53.4924 72.4318C53.4532 72.3794 53.4335 72.3205 53.4335 72.2551V70.3311C53.4335 70.2657 53.4532 70.2133 53.4924 70.1741C53.5448 70.1217 53.6037 70.0955 53.6691 70.0955H63.5639Z" fill="white"/>
<path d="M67.7513 83.8382C67.6859 83.8382 67.627 83.8186 67.5746 83.7793C67.5354 83.727 67.5158 83.6681 67.5158 83.6026V81.4823C67.5158 81.3776 67.5485 81.2795 67.6139 81.1879L73.9552 72.5889C73.9814 72.5627 73.9814 72.5365 73.9552 72.5103C73.9421 72.4841 73.9159 72.4711 73.8767 72.4711H67.7513C67.6859 72.4711 67.627 72.4514 67.5746 72.4122C67.5354 72.3598 67.5158 72.3009 67.5158 72.2355V70.3311C67.5158 70.2657 67.5354 70.2133 67.5746 70.1741C67.627 70.1217 67.6859 70.0955 67.7513 70.0955H76.8412C76.9066 70.0955 76.9589 70.1217 76.9982 70.1741C77.0506 70.2133 77.0767 70.2657 77.0767 70.3311V72.4514C77.0767 72.5561 77.044 72.6543 76.9786 72.7459L70.6373 81.3449C70.6242 81.3711 70.6242 81.3973 70.6373 81.4234C70.6504 81.4496 70.6766 81.4627 70.7158 81.4627H76.8412C76.9066 81.4627 76.9589 81.4889 76.9982 81.5412C77.0506 81.5805 77.0767 81.6329 77.0767 81.6983V83.6026C77.0767 83.6681 77.0506 83.727 76.9982 83.7793C76.9589 83.8186 76.9066 83.8382 76.8412 83.8382H67.7513Z" fill="white"/>
<path d="M89.425 70.3311C89.425 70.2657 89.4447 70.2133 89.4839 70.1741C89.5363 70.1217 89.5952 70.0955 89.6606 70.0955H91.9576C92.023 70.0955 92.0754 70.1217 92.1147 70.1741C92.167 70.2133 92.1932 70.2657 92.1932 70.3311V83.6026C92.1932 83.6681 92.167 83.727 92.1147 83.7793C92.0754 83.8186 92.023 83.8382 91.9576 83.8382H89.7391C89.6083 83.8382 89.5166 83.7859 89.4643 83.6812L84.3795 75.2785C84.3533 75.2392 84.3271 75.2261 84.301 75.2392C84.2748 75.2392 84.2617 75.2654 84.2617 75.3178L84.301 83.6026C84.301 83.6681 84.2748 83.727 84.2224 83.7793C84.1832 83.8186 84.1308 83.8382 84.0654 83.8382H81.7684C81.7029 83.8382 81.644 83.8186 81.5917 83.7793C81.5524 83.727 81.5328 83.6681 81.5328 83.6026V70.3311C81.5328 70.2657 81.5524 70.2133 81.5917 70.1741C81.644 70.1217 81.7029 70.0955 81.7684 70.0955H83.9868C84.1177 70.0955 84.2093 70.1479 84.2617 70.2526L89.3269 78.616C89.353 78.6553 89.3792 78.6749 89.4054 78.6749C89.4316 78.6618 89.4447 78.6291 89.4447 78.5767L89.425 70.3311Z" fill="white"/>
</svg>
