<svg width="258" height="81" viewBox="0 0 258 81" fill="none" xmlns="http://www.w3.org/2000/svg">
<path d="M152.415 62.0832H141.193L127.678 38.3525L120.126 47.4499V62.0832H109.434V11.0957H120.126V34.4385L138.723 11.0957H150.545L135.053 30.8419L152.415 62.0832Z" fill="#1A202C"/>
<path d="M172.358 62.7885C161.63 62.7885 154.714 55.5599 154.714 44.0648C154.714 32.5697 161.56 24.9181 172.393 24.9181C183.156 24.9181 190.002 32.3934 190.002 44.0648C190.002 55.031 183.474 62.7885 172.358 62.7885ZM172.393 55.1368C177.792 55.1368 179.91 49.8476 179.91 43.7122C179.91 37.9294 178.11 32.4992 172.393 32.4992C166.924 32.4992 164.771 37.5063 164.771 43.7122C164.771 49.4245 166.606 55.1368 172.393 55.1368Z" fill="#1A202C"/>
<path d="M217.956 32.7813H209.839L209.91 52.2101C209.91 54.89 210.898 55.2426 213.156 55.2426H218.062V61.5896C217.074 62.0127 215.239 62.4711 211.674 62.4711C202.041 62.4711 199.57 58.4866 199.57 52.6333V32.7813H193.642V25.6233H199.888L202.499 14.6218H209.839V25.588H217.956V32.7813Z" fill="#1A202C"/>
<path d="M240.04 62.7885C229.313 62.7885 222.396 55.5599 222.396 44.0648C222.396 32.5697 229.242 24.9181 240.076 24.9181C250.839 24.9181 257.685 32.3934 257.685 44.0648C257.685 55.031 251.156 62.7885 240.04 62.7885ZM240.076 55.1368C245.475 55.1368 247.592 49.8476 247.592 43.7122C247.592 37.9294 245.792 32.4992 240.076 32.4992C234.606 32.4992 232.453 37.5063 232.453 43.7122C232.453 49.4245 234.288 55.1368 240.076 55.1368Z" fill="#1A202C"/>
<path d="M74.0092 78.1152C77.6287 78.1152 79.4414 73.7391 76.882 71.1797L9.49805 3.79575C6.93866 1.23636 2.5625 3.04903 2.5625 6.66855V74.0525C2.5625 76.2963 4.38146 78.1152 6.62525 78.1152H74.0092Z" fill="#50B4D0"/>
<path fill-rule="evenodd" clip-rule="evenodd" d="M0.335938 6.66755C0.335938 1.06923 7.10454 -1.73442 11.0631 2.22419L78.4471 69.6081C82.4057 73.5667 79.602 80.3353 74.0037 80.3353H6.61979C3.14932 80.3353 0.335938 77.522 0.335938 74.0515V6.66755ZM7.92203 5.36531C6.76186 4.20513 4.77815 5.02682 4.77815 6.66755V74.0515C4.77815 75.0686 5.60268 75.8931 6.61979 75.8931H74.0037C75.6444 75.8931 76.4661 73.9094 75.306 72.7492L7.92203 5.36531Z" fill="#1A202C"/>
<path d="M76.882 9.53321C79.4414 6.97382 77.6287 2.59766 74.0092 2.59766H6.62525C4.38146 2.59766 2.5625 4.41661 2.5625 6.66041V74.0443C2.5625 77.6639 6.93866 79.4765 9.49805 76.9172L76.882 9.53321Z" fill="#4A5568"/>
<path fill-rule="evenodd" clip-rule="evenodd" d="M0.335938 6.6569C0.335938 3.18643 3.14931 0.373047 6.61979 0.373047H74.0037C79.602 0.373047 82.4057 7.14166 78.4471 11.1003L11.0631 78.4842C7.10453 82.4428 0.335938 79.6392 0.335938 74.0408V6.6569ZM6.61979 4.81526C5.60268 4.81526 4.77815 5.63979 4.77815 6.6569V74.0408C4.77815 75.6816 6.76186 76.5032 7.92203 75.3431L75.3059 7.95914C76.4661 6.79897 75.6444 4.81526 74.0037 4.81526H6.61979Z" fill="#1A202C"/>
<path d="M25.4721 76.2777L46.1156 43.248L13.0859 76.2777H25.4721Z" fill="black" fill-opacity="0.5"/>
</svg>
