<svg width="290" height="29" viewBox="0 0 290 29" fill="none" xmlns="http://www.w3.org/2000/svg">
<path d="M255.959 0.615234C255.839 0.615234 254.699 0.845634 254.519 0.903234C254.279 0.960834 254.219 1.13363 254.219 1.19123C254.219 1.30643 254.219 25.3832 254.219 27.572C254.219 27.7448 254.339 27.86 254.519 27.86C254.579 27.86 255.899 27.86 255.959 27.86C256.079 27.86 256.199 27.7448 256.199 27.572C256.199 25.1528 256.199 0.903234 256.199 0.845634C256.259 0.730434 256.139 0.615234 255.959 0.615234Z" fill="#231F20"/>
<path d="M235.018 10.4087C235.558 10.1207 238.198 8.85352 241.438 8.85352C247.798 8.85352 249.358 13.0007 249.358 15.8231C249.358 15.8231 249.358 21.1223 249.358 22.5047C249.358 23.6567 249.418 26.8247 249.478 27.6311C249.478 27.7463 249.418 27.9191 249.178 27.9191C249.058 27.9191 248.218 27.9191 248.038 27.9191C247.798 27.9191 247.798 27.7463 247.798 27.6887C247.798 27.6311 247.558 25.0967 247.558 25.0967C247.558 25.0967 245.398 28.3223 240.358 28.3223C236.398 28.3223 233.398 25.7879 233.398 22.3895C233.398 19.1063 235.798 17.0327 240.538 16.4567C243.598 16.1111 247.378 16.5143 247.378 16.5143V15.7079C247.378 13.0583 245.518 10.4663 241.198 10.4663C238.378 10.4663 236.158 11.7911 235.558 12.1367C235.378 12.2519 235.258 12.1367 235.198 12.0215C235.198 11.9063 234.898 10.9271 234.838 10.7543C234.778 10.5815 234.898 10.4663 235.018 10.4087ZM235.498 22.4471C235.498 25.2119 238.078 26.6519 240.718 26.6519C245.338 26.6519 247.378 22.8503 247.378 22.8503V18.1271C247.378 18.1271 244.018 17.7239 240.898 18.0695C236.818 18.4727 235.498 20.5463 235.498 22.4471Z" fill="#231F20"/>
<path d="M227.94 11.5031C226.26 9.71752 224.16 8.85352 221.7 8.85352C219.06 8.85352 216.9 9.77512 215.1 11.6759C213.48 13.4039 212.52 15.9383 212.52 18.6455C212.52 21.5255 213.54 24.0023 215.34 25.7303C217.08 27.4583 219.42 28.2647 222.3 28.2647C226.26 28.2647 229.02 26.1335 229.56 25.6151C229.62 25.5575 229.68 25.4423 229.62 25.2695C229.56 25.1543 229.08 24.1751 229.02 24.0599C228.96 23.9447 228.84 23.8871 228.66 24.0599C228.06 24.5783 225.72 26.6519 222.3 26.6519C219.96 26.6519 218.1 25.9607 216.72 24.5783C214.8 22.6775 214.5 20.3735 214.5 19.0487C214.5 19.0487 229.5 19.0487 229.8 19.0487C230.1 19.0487 230.22 18.8759 230.22 18.7607C230.4 17.8391 230.58 14.3255 227.94 11.5031ZM221.58 10.4663C223.62 10.4663 225.18 11.2151 226.38 12.4247C228.36 14.4983 228.24 17.0903 228.24 17.4359H214.62C214.68 16.6295 214.92 14.6135 216.54 12.7127C217.5 11.6183 219.3 10.4663 221.58 10.4663Z" fill="#231F20"/>
<path d="M269.88 26.1318C269.58 26.3046 268.86 26.7078 267.6 26.7078C266.58 26.7078 265.8 26.3622 265.32 25.7862C264.66 24.9798 264.66 23.7702 264.66 21.8694V10.983C264.66 10.983 269.94 10.983 270 10.983C270.12 10.983 270.24 10.8678 270.24 10.7526C270.24 10.6374 270.24 9.65823 270.24 9.54303C270.24 9.42783 270.18 9.31263 270 9.31263C269.82 9.31263 264.66 9.31263 264.66 9.31263C264.66 9.31263 264.66 3.49503 264.66 3.43743C264.66 3.32223 264.54 3.20703 264.36 3.20703C264.18 3.20703 262.98 3.49503 262.92 3.49503C262.74 3.55263 262.68 3.61023 262.68 3.78303C262.68 3.89823 262.68 9.31263 262.68 9.31263C262.68 9.31263 259.38 9.31263 259.26 9.31263C259.14 9.31263 259.02 9.42783 259.02 9.54303C259.02 9.60063 259.02 10.5798 259.02 10.7526C259.02 10.9254 259.14 10.983 259.26 10.983C259.38 10.983 262.74 10.983 262.74 10.983V21.927C262.74 24.0582 262.74 25.671 263.82 26.8806C264.66 27.8022 265.92 28.263 267.66 28.263C269.1 28.263 270.06 27.9174 270.42 27.7446C270.54 27.687 270.6 27.5142 270.6 27.399C270.6 27.2838 270.42 26.4198 270.42 26.3046C270.18 26.0742 270.06 26.0166 269.88 26.1318Z" fill="#231F20"/>
<path d="M275.46 15.6495C275.46 15.6495 275.46 27.4575 275.46 27.5727C275.46 27.6879 275.4 27.8607 275.16 27.8607C274.98 27.8607 273.9 27.8607 273.72 27.8607C273.54 27.8607 273.48 27.6879 273.48 27.5727C273.48 27.4575 273.48 1.30706 273.48 1.19186C273.48 1.07666 273.54 0.903855 273.72 0.846255C273.9 0.788655 275.04 0.500655 275.16 0.443055C275.34 0.385455 275.46 0.500655 275.46 0.615855C275.46 0.673455 275.46 12.4815 275.46 12.4815C275.46 12.4815 277.26 8.79506 282.36 8.79506C284.7 8.79506 286.8 9.60146 288.12 11.0991C289.5 12.6543 289.68 14.6703 289.68 17.2047C289.68 17.2047 289.68 27.4575 289.68 27.5727C289.68 27.6879 289.62 27.8607 289.38 27.8607C289.2 27.8607 288.12 27.8607 287.94 27.8607C287.76 27.8607 287.64 27.7455 287.64 27.5727C287.64 27.4575 287.64 17.2623 287.64 17.2623C287.64 14.5551 287.34 13.2879 286.32 12.1359C285.6 11.2719 284.16 10.4655 282.3 10.4655C276.78 10.4655 275.46 15.6495 275.46 15.6495Z" fill="#231F20"/>
<path d="M103.499 8.79492C102.479 8.79492 101.639 8.79492 100.919 8.79492C100.199 8.79492 99.7192 9.08292 99.4192 9.77412C99.1192 10.4653 94.8593 21.6397 94.8593 21.6397C94.8593 21.6397 90.4193 10.0621 90.2393 9.65892C90.0593 9.25572 89.6393 8.79492 88.9193 8.79492C88.1993 8.79492 87.2993 8.79492 86.2193 8.79492C85.1393 8.79492 84.7193 9.71652 85.0793 10.5805C85.2593 11.0413 92.5793 27.3421 92.5793 27.3421C92.8193 27.8605 93.2993 28.1485 93.8993 28.1485H95.8793C96.4193 28.1485 96.9592 27.8029 97.1992 27.3421C97.1992 27.3421 104.219 11.6749 104.759 10.5229C104.999 9.65892 104.519 8.79492 103.499 8.79492Z" fill="#231F20"/>
<path d="M139.858 26.4195C139.798 25.7283 139.738 25.4403 139.678 24.9219C139.498 23.9427 138.778 23.7123 138.178 23.8851C137.758 24.0003 137.098 24.3459 136.318 24.3459C135.838 24.3459 135.298 24.2307 134.938 23.7699C134.518 23.1939 134.578 22.1571 134.578 21.4659V12.9411C134.578 12.9411 137.518 12.9411 138.478 12.9411C139.438 12.9411 139.798 12.3075 139.798 11.6739C139.798 11.0403 139.798 10.7523 139.798 10.0611C139.798 9.36992 139.438 8.79392 138.478 8.79392C137.518 8.79392 134.578 8.79392 134.578 8.79392C134.578 8.79392 134.578 4.87712 134.578 4.30112C134.578 3.72512 134.218 2.80352 132.898 3.09152C132.178 3.26432 131.458 3.37952 130.798 3.60992C130.078 3.84032 129.538 4.24352 129.538 4.93472C129.538 5.62592 129.538 8.79392 129.538 8.79392C129.538 8.79392 128.818 8.79392 127.558 8.79392C126.298 8.79392 126.238 9.54272 126.238 10.0611C126.238 10.5795 126.238 10.7523 126.238 11.6163C126.238 12.4803 126.658 12.9411 127.618 12.9411C128.578 12.9411 129.538 12.9411 129.538 12.9411V21.4659C129.538 23.4819 129.538 25.3827 130.858 26.8227C131.878 27.9171 133.738 28.4931 135.898 28.4931C137.998 28.4931 138.838 27.9747 139.318 27.7443C139.618 27.4563 139.918 26.9955 139.858 26.4195Z" fill="#231F20"/>
<path d="M81.8994 11.0978C79.9194 9.08179 77.5794 8.27539 74.9394 8.27539C72.0594 8.27539 69.5994 9.19699 67.6194 11.1554C65.8194 12.941 64.8594 15.5906 64.8594 18.2978C64.8594 21.1778 65.9394 23.8274 67.9194 25.6706C69.8394 27.4562 72.4194 28.493 75.4794 28.493C80.1594 28.493 82.8594 26.2466 83.1594 26.0162C83.5794 25.613 83.8794 24.9794 83.6394 24.3458C83.3994 23.8274 83.0994 23.309 82.7994 22.7906C82.4394 22.2146 81.7194 21.8114 80.5794 22.5602C80.0994 22.8482 78.3594 24.3458 75.5394 24.3458C73.7394 24.3458 72.3594 23.885 71.3394 22.8482C70.4994 22.0418 70.0194 21.1202 69.7794 19.9682H83.0394C83.6994 19.9682 84.2994 19.5074 84.4194 18.8738C84.4794 18.7586 85.1994 14.381 81.8994 11.0978ZM71.1594 14.0354C71.8794 13.2866 73.1994 12.4802 74.8194 12.4802C76.2594 12.4802 77.3394 12.941 78.2394 13.805C79.3194 14.8994 79.4994 16.397 79.4994 16.397H69.9594C69.9594 16.397 69.9594 15.3602 71.1594 14.0354Z" fill="#231F20"/>
<path d="M126.061 18.413C126.061 12.7682 121.561 8.27539 115.381 8.27539C109.141 8.27539 104.641 12.8258 104.641 18.413C104.641 24.2306 109.261 28.493 115.381 28.493C121.441 28.493 126.061 24.1154 126.061 18.413ZM120.841 18.413C120.841 21.6962 118.621 24.3458 115.321 24.3458C112.021 24.3458 109.801 21.7538 109.801 18.413C109.801 15.1298 111.961 12.4802 115.321 12.4802C118.681 12.4802 120.841 15.1298 120.841 18.413Z" fill="#231F20"/>
<path d="M183.418 26.7654C183.418 26.0166 183.418 2.57335 183.418 1.59415C183.418 0.614955 182.578 0.269355 182.038 0.384555C181.678 0.442155 179.818 0.902955 179.338 1.01816C178.678 1.19096 178.378 1.76695 178.378 2.45815C178.378 2.80375 178.378 11.0982 178.378 11.0982C176.818 9.48535 175.078 8.33335 172.198 8.33335C166.078 8.33335 162.238 13.0566 162.238 18.471C162.238 23.8854 166.078 28.551 172.198 28.551C174.958 28.551 176.818 27.399 178.498 25.7862C178.498 25.7862 178.498 26.1894 178.498 26.9958C178.498 27.8022 178.918 28.263 179.758 28.263C180.598 28.263 181.318 28.263 182.098 28.263C183.118 28.1478 183.418 27.6294 183.418 26.7654ZM178.558 18.4134C178.558 21.6966 176.398 24.3462 172.918 24.3462C169.798 24.3462 167.398 21.927 167.398 18.4134C167.398 15.1302 169.618 12.4806 172.918 12.4806C176.278 12.423 178.558 15.1302 178.558 18.4134Z" fill="#231F20"/>
<path d="M157.38 11.1564C155.4 9.14038 153.06 8.33398 150.42 8.33398C147.54 8.33398 145.08 9.25558 143.1 11.214C141.3 12.9996 140.34 15.6492 140.34 18.3564C140.34 21.2364 141.42 23.886 143.4 25.7292C145.32 27.5148 147.9 28.5516 150.96 28.5516C155.64 28.5516 158.34 26.3052 158.64 26.0748C159.06 25.6716 159.36 25.038 159.12 24.4044C158.88 23.886 158.58 23.3676 158.28 22.8492C157.92 22.2732 157.2 21.87 156.06 22.6188C155.58 22.9068 153.84 24.4044 151.02 24.4044C149.22 24.4044 147.84 23.9436 146.82 22.9068C145.98 22.1004 145.5 21.1788 145.26 20.0268H158.52C159.18 20.0268 159.78 19.566 159.9 18.9324C159.9 18.7596 160.62 14.382 157.38 11.1564ZM146.64 14.094C147.36 13.3452 148.68 12.5388 150.3 12.5388C151.74 12.5388 152.82 12.9996 153.72 13.8636C154.8 14.958 154.98 16.4556 154.98 16.4556H145.44C145.44 16.398 145.44 15.3612 146.64 14.094Z" fill="#231F20"/>
<path fill-rule="evenodd" clip-rule="evenodd" d="M55.1412 1.99657C52.8012 0.786972 50.1012 0.326172 45.6012 0.326172H39.9012C39.4812 0.326172 39.0613 0.498972 38.7613 0.786972C38.4613 1.07497 38.2812 1.47817 38.2812 1.88137V26.8798C38.2812 27.7438 39.0012 28.4926 39.9012 28.4926H46.2612C48.2412 28.4926 52.9212 28.4926 56.5812 26.0734C60.3012 23.5966 62.4012 19.4494 62.4012 14.4382C62.4612 12.3646 61.9212 5.51017 55.1412 1.99657ZM53.8812 22.0414C51.6612 23.6542 48.0012 23.6542 46.3812 23.6542H43.3812V5.22217H46.2012C48.4812 5.22217 50.8812 5.33737 52.8012 6.37417C56.7012 8.44777 57.3012 12.307 57.3012 14.4382C57.3012 17.9518 56.2212 20.371 53.8812 22.0414Z" fill="#231F20"/>
<path fill-rule="evenodd" clip-rule="evenodd" d="M208.802 0.498047C208.682 0.498047 207.542 0.843647 207.362 0.901247C207.122 0.958847 207.062 1.13165 207.062 1.18925C207.062 1.24685 207.062 6.60365 207.062 12.5364H190.142C190.142 6.48845 190.082 0.786047 190.082 0.728447C190.082 0.613247 189.962 0.498047 189.782 0.498047C189.662 0.498047 188.582 0.843647 188.402 0.901247C188.162 0.958847 188.102 1.13165 188.102 1.18925C188.102 1.30445 188.102 25.3812 188.102 27.57C188.102 27.7428 188.222 27.858 188.402 27.858C188.462 27.858 189.782 27.858 189.842 27.858C189.962 27.858 190.082 27.7428 190.082 27.57C190.082 26.418 190.082 20.4852 190.082 14.4948H207.002C207.002 20.4852 207.002 26.5332 207.002 27.57C207.002 27.7428 207.122 27.858 207.302 27.858C207.362 27.858 208.682 27.858 208.742 27.858C208.862 27.858 208.982 27.7428 208.982 27.57C208.982 25.1508 208.982 0.786047 208.982 0.728447C209.102 0.613247 208.982 0.498047 208.802 0.498047Z" fill="#231F20"/>
<path d="M11.3984 11.0974V8.85097C11.3984 4.12777 15.3584 0.326172 20.2784 0.326172C25.1984 0.326172 29.1584 4.12777 29.1584 8.85097V11.0974H11.3984Z" fill="#FF5000"/>
<path d="M29.1584 11.0977H11.3984V28.1473H29.1584V11.0977Z" fill="#520975"/>
<path d="M11.3997 28.1473H9.05969C4.13969 28.1473 0.179688 24.3457 0.179688 19.6225C0.179688 14.8993 4.13969 11.0977 9.05969 11.0977H11.3997V28.1473Z" fill="#00A7E1"/>
</svg>
