<svg width="51" height="51" viewBox="0 0 51 51" fill="none" xmlns="http://www.w3.org/2000/svg">
<path d="M23.0589 14.4922V14.6497C22.5552 15.1749 22.2194 16.0256 22.0516 17.2019C21.9047 18.3782 21.8312 19.7226 21.8312 21.235V24.1022L28.9138 23.22V21.235C28.9138 19.7226 28.8298 18.3782 28.662 17.2019C28.5151 16.0256 28.1898 15.1749 27.6861 14.6497V14.4922H35.8075V14.6497C35.3038 15.1749 34.9681 16.0256 34.8002 17.2019C34.6533 18.3782 34.5798 19.7226 34.5798 21.235V29.8052C34.5798 31.3176 34.6533 32.662 34.8002 33.8383C34.9681 35.0146 35.3038 35.8653 35.8075 36.3904V36.548H27.6861V36.3904C28.1898 35.8653 28.5151 35.0146 28.662 33.8383C28.8298 32.662 28.9138 31.3176 28.9138 29.8052V27.2845L21.8312 28.1668V29.8052C21.8312 31.3176 21.9047 32.662 22.0516 33.8383C22.2194 35.0146 22.5552 35.8653 23.0589 36.3904V36.548H14.9375V36.3904C15.4412 35.8653 15.7664 35.0146 15.9133 33.8383C16.0812 32.662 16.1651 31.3176 16.1651 29.8052V21.235C16.1651 19.7226 16.0812 18.3782 15.9133 17.2019C15.7664 16.0256 15.4412 15.1749 14.9375 14.6497V14.4922H23.0589Z" fill="#002B5B"/>
<circle cx="25.373" cy="25.5215" r="23.873" stroke="#002B5B" stroke-width="3"/>
</svg>
