<svg width="304" height="328" viewBox="0 0 304 328" fill="none" xmlns="http://www.w3.org/2000/svg">
<rect width="34" height="34" fill="black"/>
<path d="M53.1 26L58.725 9.575H60.775L66.375 26H64.425L61.45 16.7C61.15 15.7667 60.8583 14.85 60.575 13.95C60.3083 13.0333 60.0333 12.0917 59.75 11.125H59.65C59.4 12.0917 59.1333 13.0333 58.85 13.95C58.5833 14.85 58.2917 15.7667 57.975 16.7L54.975 26H53.1ZM55.95 20.825V19.35H63.475V20.825H55.95ZM71.3516 26.3C70.6849 26.3 70.0849 26.1667 69.5516 25.9C69.0182 25.6333 68.5932 25.25 68.2766 24.75C67.9599 24.2333 67.8016 23.6083 67.8016 22.875C67.8016 21.5583 68.4016 20.55 69.6016 19.85C70.8182 19.1333 72.7349 18.6333 75.3516 18.35C75.3516 17.8 75.2766 17.275 75.1266 16.775C74.9932 16.275 74.7349 15.875 74.3516 15.575C73.9849 15.2583 73.4516 15.1 72.7516 15.1C72.0182 15.1 71.3349 15.2417 70.7016 15.525C70.0849 15.8083 69.5432 16.1083 69.0766 16.425L68.3516 15.175C68.7016 14.9417 69.1182 14.7 69.6016 14.45C70.0849 14.2 70.6182 13.9917 71.2016 13.825C71.7849 13.6583 72.4016 13.575 73.0516 13.575C74.0349 13.575 74.8266 13.7833 75.4266 14.2C76.0266 14.6167 76.4599 15.1917 76.7266 15.925C77.0099 16.6583 77.1516 17.5167 77.1516 18.5V26H75.6516L75.5016 24.525H75.4266C74.8432 25.0083 74.2099 25.425 73.5266 25.775C72.8432 26.125 72.1182 26.3 71.3516 26.3ZM71.8266 24.825C72.4599 24.825 73.0432 24.6833 73.5766 24.4C74.1266 24.1 74.7182 23.675 75.3516 23.125V19.575C73.9182 19.7417 72.7849 19.975 71.9516 20.275C71.1182 20.5583 70.5182 20.9083 70.1516 21.325C69.7849 21.7417 69.6016 22.225 69.6016 22.775C69.6016 23.4917 69.8182 24.0167 70.2516 24.35C70.7016 24.6667 71.2266 24.825 71.8266 24.825ZM81.126 26V13.875H82.626L82.776 16.1H82.851C83.2676 15.3333 83.7676 14.725 84.351 14.275C84.951 13.8083 85.601 13.575 86.301 13.575C86.551 13.575 86.776 13.6 86.976 13.65C87.176 13.6833 87.3676 13.7417 87.551 13.825L87.201 15.425C87.001 15.3583 86.8176 15.3083 86.651 15.275C86.501 15.2417 86.301 15.225 86.051 15.225C85.5343 15.225 84.9926 15.4417 84.426 15.875C83.8593 16.2917 83.3593 17.0333 82.926 18.1V26H81.126ZM93.6971 26.3C92.1804 26.3 90.9721 25.75 90.0721 24.65C89.1721 23.5333 88.7221 21.9667 88.7221 19.95C88.7221 18.65 88.9637 17.525 89.4471 16.575C89.9471 15.625 90.5971 14.8917 91.3971 14.375C92.1971 13.8417 93.0637 13.575 93.9971 13.575C94.7137 13.575 95.3304 13.7 95.8471 13.95C96.3637 14.2 96.8971 14.55 97.4471 15L97.3721 12.9V8.15H99.1721V26H97.6721L97.5221 24.525H97.4471C96.9804 25.0083 96.4221 25.425 95.7721 25.775C95.1387 26.125 94.4471 26.3 93.6971 26.3ZM94.0971 24.75C94.6804 24.75 95.2387 24.6083 95.7721 24.325C96.3054 24.025 96.8387 23.5917 97.3721 23.025V16.45C96.8221 15.9667 96.2971 15.625 95.7971 15.425C95.2971 15.225 94.7887 15.125 94.2721 15.125C93.5887 15.125 92.9637 15.3333 92.3971 15.75C91.8471 16.15 91.4054 16.7167 91.0721 17.45C90.7554 18.1667 90.5971 19 90.5971 19.95C90.5971 21.4333 90.8971 22.6083 91.4971 23.475C92.1137 24.325 92.9804 24.75 94.0971 24.75ZM106.016 26L101.591 13.875H103.466L105.866 20.95C106.066 21.5333 106.258 22.125 106.441 22.725C106.641 23.325 106.833 23.9167 107.016 24.5H107.116C107.299 23.9167 107.491 23.325 107.691 22.725C107.891 22.125 108.083 21.5333 108.266 20.95L110.666 13.875H112.466L108.116 26H106.016ZM117.641 26.3C116.974 26.3 116.374 26.1667 115.841 25.9C115.307 25.6333 114.882 25.25 114.566 24.75C114.249 24.2333 114.091 23.6083 114.091 22.875C114.091 21.5583 114.691 20.55 115.891 19.85C117.107 19.1333 119.024 18.6333 121.641 18.35C121.641 17.8 121.566 17.275 121.416 16.775C121.282 16.275 121.024 15.875 120.641 15.575C120.274 15.2583 119.741 15.1 119.041 15.1C118.307 15.1 117.624 15.2417 116.991 15.525C116.374 15.8083 115.832 16.1083 115.366 16.425L114.641 15.175C114.991 14.9417 115.407 14.7 115.891 14.45C116.374 14.2 116.907 13.9917 117.491 13.825C118.074 13.6583 118.691 13.575 119.341 13.575C120.324 13.575 121.116 13.7833 121.716 14.2C122.316 14.6167 122.749 15.1917 123.016 15.925C123.299 16.6583 123.441 17.5167 123.441 18.5V26H121.941L121.791 24.525H121.716C121.132 25.0083 120.499 25.425 119.816 25.775C119.132 26.125 118.407 26.3 117.641 26.3ZM118.116 24.825C118.749 24.825 119.332 24.6833 119.866 24.4C120.416 24.1 121.007 23.675 121.641 23.125V19.575C120.207 19.7417 119.074 19.975 118.241 20.275C117.407 20.5583 116.807 20.9083 116.441 21.325C116.074 21.7417 115.891 22.225 115.891 22.775C115.891 23.4917 116.107 24.0167 116.541 24.35C116.991 24.6667 117.516 24.825 118.116 24.825ZM127.415 26V13.875H128.915L129.065 16.1H129.14C129.557 15.3333 130.057 14.725 130.64 14.275C131.24 13.8083 131.89 13.575 132.59 13.575C132.84 13.575 133.065 13.6 133.265 13.65C133.465 13.6833 133.657 13.7417 133.84 13.825L133.49 15.425C133.29 15.3583 133.107 15.3083 132.94 15.275C132.79 15.2417 132.59 15.225 132.34 15.225C131.823 15.225 131.282 15.4417 130.715 15.875C130.148 16.2917 129.648 17.0333 129.215 18.1V26H127.415ZM135.911 26V8.15H137.686V20.5H137.761L143.136 13.875H145.161L141.111 18.725L145.711 26H143.736L140.061 20L137.686 22.8V26H135.911Z" fill="#002B5B"/>
<rect y="245" width="34" height="34" fill="#5B007A"/>
<path d="M55.3 271V254.575H59.325C61.0083 254.575 62.4167 254.9 63.55 255.55C64.7 256.183 65.5583 257.108 66.125 258.325C66.7083 259.542 67 261.008 67 262.725C67 264.442 66.7083 265.925 66.125 267.175C65.5583 268.408 64.7083 269.358 63.575 270.025C62.4417 270.675 61.05 271 59.4 271H55.3ZM57.15 269.475H59.175C60.5083 269.475 61.6083 269.2 62.475 268.65C63.3583 268.1 64.0167 267.325 64.45 266.325C64.8833 265.325 65.1 264.125 65.1 262.725C65.1 261.342 64.8833 260.158 64.45 259.175C64.0167 258.175 63.3583 257.417 62.475 256.9C61.6083 256.367 60.5083 256.1 59.175 256.1H57.15V269.475ZM75.257 271.3C74.207 271.3 73.2404 271.05 72.357 270.55C71.4904 270.033 70.7987 269.308 70.282 268.375C69.7654 267.425 69.507 266.283 69.507 264.95C69.507 263.633 69.7654 262.5 70.282 261.55C70.7987 260.6 71.4654 259.867 72.282 259.35C73.1154 258.833 73.9987 258.575 74.932 258.575C75.932 258.575 76.7904 258.808 77.507 259.275C78.2237 259.742 78.7654 260.4 79.132 261.25C79.5154 262.083 79.707 263.083 79.707 264.25C79.707 264.45 79.6987 264.65 79.682 264.85C79.682 265.033 79.6654 265.2 79.632 265.35H70.932L70.907 264.025H78.082C78.082 262.725 77.807 261.742 77.257 261.075C76.707 260.392 75.9404 260.05 74.957 260.05C74.357 260.05 73.7737 260.225 73.207 260.575C72.6404 260.925 72.1737 261.458 71.807 262.175C71.4404 262.892 71.257 263.817 71.257 264.95C71.257 266.033 71.4487 266.933 71.832 267.65C72.2154 268.367 72.7237 268.908 73.357 269.275C74.007 269.642 74.7154 269.825 75.482 269.825C76.0987 269.825 76.6487 269.733 77.132 269.55C77.632 269.367 78.107 269.133 78.557 268.85L79.232 270.05C78.7154 270.383 78.132 270.675 77.482 270.925C76.8487 271.175 76.107 271.3 75.257 271.3ZM85.3617 271L80.9367 258.875H82.8117L85.2117 265.95C85.4117 266.533 85.6034 267.125 85.7867 267.725C85.9867 268.325 86.1784 268.917 86.3617 269.5H86.4617C86.6451 268.917 86.8367 268.325 87.0367 267.725C87.2367 267.125 87.4284 266.533 87.6117 265.95L90.0117 258.875H91.8117L87.4617 271H85.3617ZM98.8613 271.3C97.878 271.3 96.9613 271.05 96.1113 270.55C95.2613 270.05 94.578 269.333 94.0613 268.4C93.5447 267.45 93.2863 266.3 93.2863 264.95C93.2863 263.6 93.5447 262.45 94.0613 261.5C94.578 260.55 95.2613 259.825 96.1113 259.325C96.9613 258.825 97.878 258.575 98.8613 258.575C99.8447 258.575 100.753 258.825 101.586 259.325C102.436 259.825 103.12 260.55 103.636 261.5C104.17 262.45 104.436 263.6 104.436 264.95C104.436 266.3 104.17 267.45 103.636 268.4C103.12 269.333 102.436 270.05 101.586 270.55C100.753 271.05 99.8447 271.3 98.8613 271.3ZM98.8613 269.775C99.5947 269.775 100.236 269.575 100.786 269.175C101.353 268.775 101.786 268.217 102.086 267.5C102.403 266.767 102.561 265.917 102.561 264.95C102.561 264 102.403 263.158 102.086 262.425C101.786 261.692 101.353 261.125 100.786 260.725C100.236 260.308 99.5947 260.1 98.8613 260.1C98.1447 260.1 97.503 260.308 96.9363 260.725C96.3863 261.125 95.953 261.692 95.6363 262.425C95.3363 263.158 95.1863 264 95.1863 264.95C95.1863 265.917 95.3363 266.767 95.6363 267.5C95.953 268.217 96.3863 268.775 96.9363 269.175C97.503 269.575 98.1447 269.775 98.8613 269.775ZM111.412 271.3C110.162 271.3 109.287 270.933 108.787 270.2C108.304 269.467 108.062 268.517 108.062 267.35V260.375H106.237V259L108.137 258.875L108.362 255.45H109.887V258.875H113.212V260.375H109.887V267.4C109.887 268.15 110.021 268.742 110.287 269.175C110.571 269.592 111.079 269.8 111.812 269.8C112.029 269.8 112.262 269.767 112.512 269.7C112.779 269.633 113.012 269.558 113.212 269.475L113.587 270.85C113.254 270.967 112.896 271.067 112.512 271.15C112.129 271.25 111.762 271.3 111.412 271.3ZM120.814 271.3C119.764 271.3 118.797 271.05 117.914 270.55C117.047 270.033 116.355 269.308 115.839 268.375C115.322 267.425 115.064 266.283 115.064 264.95C115.064 263.633 115.322 262.5 115.839 261.55C116.355 260.6 117.022 259.867 117.839 259.35C118.672 258.833 119.555 258.575 120.489 258.575C121.489 258.575 122.347 258.808 123.064 259.275C123.78 259.742 124.322 260.4 124.689 261.25C125.072 262.083 125.264 263.083 125.264 264.25C125.264 264.45 125.255 264.65 125.239 264.85C125.239 265.033 125.222 265.2 125.189 265.35H116.489L116.464 264.025H123.639C123.639 262.725 123.364 261.742 122.814 261.075C122.264 260.392 121.497 260.05 120.514 260.05C119.914 260.05 119.33 260.225 118.764 260.575C118.197 260.925 117.73 261.458 117.364 262.175C116.997 262.892 116.814 263.817 116.814 264.95C116.814 266.033 117.005 266.933 117.389 267.65C117.772 268.367 118.28 268.908 118.914 269.275C119.564 269.642 120.272 269.825 121.039 269.825C121.655 269.825 122.205 269.733 122.689 269.55C123.189 269.367 123.664 269.133 124.114 268.85L124.789 270.05C124.272 270.383 123.689 270.675 123.039 270.925C122.405 271.175 121.664 271.3 120.814 271.3ZM132.393 271.3C130.877 271.3 129.668 270.75 128.768 269.65C127.868 268.533 127.418 266.967 127.418 264.95C127.418 263.65 127.66 262.525 128.143 261.575C128.643 260.625 129.293 259.892 130.093 259.375C130.893 258.842 131.76 258.575 132.693 258.575C133.41 258.575 134.027 258.7 134.543 258.95C135.06 259.2 135.593 259.55 136.143 260L136.068 257.9V253.15H137.868V271H136.368L136.218 269.525H136.143C135.677 270.008 135.118 270.425 134.468 270.775C133.835 271.125 133.143 271.3 132.393 271.3ZM132.793 269.75C133.377 269.75 133.935 269.608 134.468 269.325C135.002 269.025 135.535 268.592 136.068 268.025V261.45C135.518 260.967 134.993 260.625 134.493 260.425C133.993 260.225 133.485 260.125 132.968 260.125C132.285 260.125 131.66 260.333 131.093 260.75C130.543 261.15 130.102 261.717 129.768 262.45C129.452 263.167 129.293 264 129.293 264.95C129.293 266.433 129.593 267.608 130.193 268.475C130.81 269.325 131.677 269.75 132.793 269.75ZM147.292 271V254.575H149.142V261.525H157.067V254.575H158.917V271H157.067V263.15H149.142V271H147.292ZM168.128 271.3C167.078 271.3 166.111 271.05 165.228 270.55C164.361 270.033 163.67 269.308 163.153 268.375C162.636 267.425 162.378 266.283 162.378 264.95C162.378 263.633 162.636 262.5 163.153 261.55C163.67 260.6 164.336 259.867 165.153 259.35C165.986 258.833 166.87 258.575 167.803 258.575C168.803 258.575 169.661 258.808 170.378 259.275C171.095 259.742 171.636 260.4 172.003 261.25C172.386 262.083 172.578 263.083 172.578 264.25C172.578 264.45 172.57 264.65 172.553 264.85C172.553 265.033 172.536 265.2 172.503 265.35H163.803L163.778 264.025H170.953C170.953 262.725 170.678 261.742 170.128 261.075C169.578 260.392 168.811 260.05 167.828 260.05C167.228 260.05 166.645 260.225 166.078 260.575C165.511 260.925 165.045 261.458 164.678 262.175C164.311 262.892 164.128 263.817 164.128 264.95C164.128 266.033 164.32 266.933 164.703 267.65C165.086 268.367 165.595 268.908 166.228 269.275C166.878 269.642 167.586 269.825 168.353 269.825C168.97 269.825 169.52 269.733 170.003 269.55C170.503 269.367 170.978 269.133 171.428 268.85L172.103 270.05C171.586 270.383 171.003 270.675 170.353 270.925C169.72 271.175 168.978 271.3 168.128 271.3ZM178.383 271.3C177.716 271.3 177.116 271.167 176.583 270.9C176.049 270.633 175.624 270.25 175.308 269.75C174.991 269.233 174.833 268.608 174.833 267.875C174.833 266.558 175.433 265.55 176.633 264.85C177.849 264.133 179.766 263.633 182.383 263.35C182.383 262.8 182.308 262.275 182.158 261.775C182.024 261.275 181.766 260.875 181.383 260.575C181.016 260.258 180.483 260.1 179.783 260.1C179.049 260.1 178.366 260.242 177.733 260.525C177.116 260.808 176.574 261.108 176.108 261.425L175.383 260.175C175.733 259.942 176.149 259.7 176.633 259.45C177.116 259.2 177.649 258.992 178.233 258.825C178.816 258.658 179.433 258.575 180.083 258.575C181.066 258.575 181.858 258.783 182.458 259.2C183.058 259.617 183.491 260.192 183.758 260.925C184.041 261.658 184.183 262.517 184.183 263.5V271H182.683L182.533 269.525H182.458C181.874 270.008 181.241 270.425 180.558 270.775C179.874 271.125 179.149 271.3 178.383 271.3ZM178.858 269.825C179.491 269.825 180.074 269.683 180.608 269.4C181.158 269.1 181.749 268.675 182.383 268.125V264.575C180.949 264.742 179.816 264.975 178.983 265.275C178.149 265.558 177.549 265.908 177.183 266.325C176.816 266.742 176.633 267.225 176.633 267.775C176.633 268.492 176.849 269.017 177.283 269.35C177.733 269.667 178.258 269.825 178.858 269.825ZM190.132 271.3C189.682 271.3 189.307 271.2 189.007 271C188.707 270.817 188.491 270.542 188.357 270.175C188.224 269.792 188.157 269.325 188.157 268.775V253.15H189.957V268.925C189.957 269.225 190.016 269.442 190.132 269.575C190.249 269.708 190.382 269.775 190.532 269.775C190.582 269.775 190.641 269.775 190.707 269.775C190.774 269.758 190.866 269.742 190.982 269.725L191.232 271.125C191.099 271.158 190.941 271.192 190.757 271.225C190.591 271.275 190.382 271.3 190.132 271.3ZM198.082 271.3C196.832 271.3 195.957 270.933 195.457 270.2C194.974 269.467 194.732 268.517 194.732 267.35V260.375H192.907V259L194.807 258.875L195.032 255.45H196.557V258.875H199.882V260.375H196.557V267.4C196.557 268.15 196.691 268.742 196.957 269.175C197.241 269.592 197.749 269.8 198.482 269.8C198.699 269.8 198.932 269.767 199.182 269.7C199.449 269.633 199.682 269.558 199.882 269.475L200.257 270.85C199.924 270.967 199.566 271.067 199.182 271.15C198.799 271.25 198.432 271.3 198.082 271.3ZM202.684 271V253.15H204.484V258.1L204.434 260.65C205.017 260.067 205.634 259.575 206.284 259.175C206.934 258.775 207.667 258.575 208.484 258.575C209.767 258.575 210.7 258.975 211.284 259.775C211.884 260.575 212.184 261.75 212.184 263.3V271H210.359V263.525C210.359 262.358 210.167 261.508 209.784 260.975C209.417 260.442 208.809 260.175 207.959 260.175C207.325 260.175 206.75 260.342 206.234 260.675C205.717 260.992 205.134 261.475 204.484 262.125V271H202.684Z" fill="#002B5B"/>
<rect y="49" width="34" height="34" fill="#FBBC05"/>
<path d="M61.625 75.3C60.1917 75.3 58.925 74.9667 57.825 74.3C56.725 73.6167 55.8583 72.6417 55.225 71.375C54.6083 70.0917 54.3 68.5667 54.3 66.8C54.3 65.4667 54.4833 64.2833 54.85 63.25C55.2333 62.2 55.7583 61.3 56.425 60.55C57.0917 59.8 57.875 59.2333 58.775 58.85C59.6917 58.4667 60.6917 58.275 61.775 58.275C62.9083 58.275 63.85 58.4917 64.6 58.925C65.3667 59.3417 65.9833 59.7917 66.45 60.275L65.425 61.5C65.0083 61.05 64.5167 60.675 63.95 60.375C63.3833 60.0583 62.675 59.9 61.825 59.9C60.6917 59.9 59.7 60.1833 58.85 60.75C58.0167 61.3 57.3667 62.0917 56.9 63.125C56.45 64.1417 56.225 65.35 56.225 66.75C56.225 68.1667 56.4417 69.3917 56.875 70.425C57.3083 71.4583 57.9417 72.2583 58.775 72.825C59.6083 73.3917 60.6167 73.675 61.8 73.675C62.4333 73.675 63.0333 73.5833 63.6 73.4C64.1667 73.2 64.6167 72.9417 64.95 72.625V68.15H61.35V66.6H66.65V73.4C66.1333 73.95 65.4417 74.4083 64.575 74.775C63.725 75.125 62.7417 75.3 61.625 75.3ZM75.1064 75.3C74.1231 75.3 73.2064 75.05 72.3564 74.55C71.5064 74.05 70.8231 73.3333 70.3064 72.4C69.7898 71.45 69.5314 70.3 69.5314 68.95C69.5314 67.6 69.7898 66.45 70.3064 65.5C70.8231 64.55 71.5064 63.825 72.3564 63.325C73.2064 62.825 74.1231 62.575 75.1064 62.575C76.0898 62.575 76.9981 62.825 77.8314 63.325C78.6814 63.825 79.3648 64.55 79.8814 65.5C80.4148 66.45 80.6814 67.6 80.6814 68.95C80.6814 70.3 80.4148 71.45 79.8814 72.4C79.3648 73.3333 78.6814 74.05 77.8314 74.55C76.9981 75.05 76.0898 75.3 75.1064 75.3ZM75.1064 73.775C75.8398 73.775 76.4814 73.575 77.0314 73.175C77.5981 72.775 78.0314 72.2167 78.3314 71.5C78.6481 70.7667 78.8064 69.9167 78.8064 68.95C78.8064 68 78.6481 67.1583 78.3314 66.425C78.0314 65.6917 77.5981 65.125 77.0314 64.725C76.4814 64.3083 75.8398 64.1 75.1064 64.1C74.3898 64.1 73.7481 64.3083 73.1814 64.725C72.6314 65.125 72.1981 65.6917 71.8814 66.425C71.5814 67.1583 71.4314 68 71.4314 68.95C71.4314 69.9167 71.5814 70.7667 71.8814 71.5C72.1981 72.2167 72.6314 72.775 73.1814 73.175C73.7481 73.575 74.3898 73.775 75.1064 73.775ZM88.6074 75.3C87.6241 75.3 86.7074 75.05 85.8574 74.55C85.0074 74.05 84.3241 73.3333 83.8074 72.4C83.2908 71.45 83.0324 70.3 83.0324 68.95C83.0324 67.6 83.2908 66.45 83.8074 65.5C84.3241 64.55 85.0074 63.825 85.8574 63.325C86.7074 62.825 87.6241 62.575 88.6074 62.575C89.5908 62.575 90.4991 62.825 91.3324 63.325C92.1824 63.825 92.8658 64.55 93.3824 65.5C93.9158 66.45 94.1824 67.6 94.1824 68.95C94.1824 70.3 93.9158 71.45 93.3824 72.4C92.8658 73.3333 92.1824 74.05 91.3324 74.55C90.4991 75.05 89.5908 75.3 88.6074 75.3ZM88.6074 73.775C89.3408 73.775 89.9824 73.575 90.5324 73.175C91.0991 72.775 91.5324 72.2167 91.8324 71.5C92.1491 70.7667 92.3074 69.9167 92.3074 68.95C92.3074 68 92.1491 67.1583 91.8324 66.425C91.5324 65.6917 91.0991 65.125 90.5324 64.725C89.9824 64.3083 89.3408 64.1 88.6074 64.1C87.8908 64.1 87.2491 64.3083 86.6824 64.725C86.1324 65.125 85.6991 65.6917 85.3824 66.425C85.0824 67.1583 84.9324 68 84.9324 68.95C84.9324 69.9167 85.0824 70.7667 85.3824 71.5C85.6991 72.2167 86.1324 72.775 86.6824 73.175C87.2491 73.575 87.8908 73.775 88.6074 73.775ZM101.533 80.65C100.533 80.65 99.6584 80.5167 98.9084 80.25C98.1584 79.9833 97.5751 79.6083 97.1584 79.125C96.7417 78.6417 96.5334 78.0583 96.5334 77.375C96.5334 76.8417 96.6917 76.3333 97.0084 75.85C97.3251 75.3667 97.7584 74.9417 98.3084 74.575V74.475C98.0084 74.275 97.7501 74.0167 97.5334 73.7C97.3334 73.3667 97.2334 72.9667 97.2334 72.5C97.2334 71.9833 97.3751 71.5333 97.6584 71.15C97.9584 70.7667 98.2584 70.4667 98.5584 70.25V70.15C98.1751 69.8333 97.8167 69.3917 97.4834 68.825C97.1667 68.2583 97.0084 67.6167 97.0084 66.9C97.0084 66.0167 97.2084 65.2583 97.6084 64.625C98.0251 63.975 98.5667 63.475 99.2334 63.125C99.9167 62.7583 100.667 62.575 101.483 62.575C101.817 62.575 102.125 62.6083 102.408 62.675C102.708 62.725 102.958 62.7917 103.158 62.875H107.358V64.3H104.783C105.1 64.6 105.358 64.975 105.558 65.425C105.758 65.875 105.858 66.375 105.858 66.925C105.858 67.7917 105.658 68.5417 105.258 69.175C104.875 69.8083 104.35 70.3 103.683 70.65C103.033 70.9833 102.3 71.15 101.483 71.15C101.183 71.15 100.867 71.1167 100.533 71.05C100.217 70.9667 99.9167 70.8583 99.6334 70.725C99.4001 70.9083 99.2001 71.1167 99.0334 71.35C98.8834 71.5833 98.8084 71.875 98.8084 72.225C98.8084 72.625 98.9584 72.9583 99.2584 73.225C99.5751 73.475 100.142 73.6 100.958 73.6H103.383C104.783 73.6 105.825 73.8333 106.508 74.3C107.208 74.75 107.558 75.475 107.558 76.475C107.558 77.2083 107.308 77.8917 106.808 78.525C106.325 79.1583 105.633 79.6667 104.733 80.05C103.833 80.45 102.767 80.65 101.533 80.65ZM101.783 79.35C102.583 79.35 103.275 79.225 103.858 78.975C104.458 78.725 104.925 78.4 105.258 78C105.592 77.6 105.758 77.175 105.758 76.725C105.758 76.1417 105.542 75.7333 105.108 75.5C104.692 75.2667 104.067 75.15 103.233 75.15H101.008C100.825 75.15 100.592 75.1333 100.308 75.1C100.042 75.0667 99.7584 75.0167 99.4584 74.95C98.9917 75.2833 98.6501 75.6333 98.4334 76C98.2334 76.3833 98.1334 76.7583 98.1334 77.125C98.1334 77.8083 98.4584 78.35 99.1084 78.75C99.7584 79.15 100.65 79.35 101.783 79.35ZM101.483 69.9C101.967 69.9 102.408 69.775 102.808 69.525C103.225 69.275 103.558 68.925 103.808 68.475C104.058 68.025 104.183 67.5 104.183 66.9C104.183 66.2833 104.058 65.7583 103.808 65.325C103.575 64.875 103.25 64.5333 102.833 64.3C102.433 64.05 101.983 63.925 101.483 63.925C100.733 63.925 100.092 64.1917 99.5584 64.725C99.0251 65.2417 98.7584 65.9667 98.7584 66.9C98.7584 67.5 98.8834 68.025 99.1334 68.475C99.3834 68.925 99.7167 69.275 100.133 69.525C100.55 69.775 101 69.9 101.483 69.9ZM111.958 75.3C111.508 75.3 111.133 75.2 110.833 75C110.533 74.8167 110.317 74.5417 110.183 74.175C110.05 73.7917 109.983 73.325 109.983 72.775V57.15H111.783V72.925C111.783 73.225 111.842 73.4417 111.958 73.575C112.075 73.7083 112.208 73.775 112.358 73.775C112.408 73.775 112.467 73.775 112.533 73.775C112.6 73.7583 112.692 73.7417 112.808 73.725L113.058 75.125C112.925 75.1583 112.767 75.1917 112.583 75.225C112.417 75.275 112.208 75.3 111.958 75.3ZM121.033 75.3C119.983 75.3 119.017 75.05 118.133 74.55C117.267 74.0333 116.575 73.3083 116.058 72.375C115.542 71.425 115.283 70.2833 115.283 68.95C115.283 67.6333 115.542 66.5 116.058 65.55C116.575 64.6 117.242 63.8667 118.058 63.35C118.892 62.8333 119.775 62.575 120.708 62.575C121.708 62.575 122.567 62.8083 123.283 63.275C124 63.7417 124.542 64.4 124.908 65.25C125.292 66.0833 125.483 67.0833 125.483 68.25C125.483 68.45 125.475 68.65 125.458 68.85C125.458 69.0333 125.442 69.2 125.408 69.35H116.708L116.683 68.025H123.858C123.858 66.725 123.583 65.7417 123.033 65.075C122.483 64.3917 121.717 64.05 120.733 64.05C120.133 64.05 119.55 64.225 118.983 64.575C118.417 64.925 117.95 65.4583 117.583 66.175C117.217 66.8917 117.033 67.8167 117.033 68.95C117.033 70.0333 117.225 70.9333 117.608 71.65C117.992 72.3667 118.5 72.9083 119.133 73.275C119.783 73.6417 120.492 73.825 121.258 73.825C121.875 73.825 122.425 73.7333 122.908 73.55C123.408 73.3667 123.883 73.1333 124.333 72.85L125.008 74.05C124.492 74.3833 123.908 74.675 123.258 74.925C122.625 75.175 121.883 75.3 121.033 75.3Z" fill="#002B5B"/>
<rect y="294" width="34" height="34" fill="#50B4D0"/>
<path d="M55.3 320V303.575H57.15V312.05H57.2L64.325 303.575H66.425L61.25 309.8L67.2 320H65.125L60.1 311.225L57.15 314.7V320H55.3ZM74.0811 320.3C73.0977 320.3 72.1811 320.05 71.3311 319.55C70.4811 319.05 69.7977 318.333 69.2811 317.4C68.7644 316.45 68.5061 315.3 68.5061 313.95C68.5061 312.6 68.7644 311.45 69.2811 310.5C69.7977 309.55 70.4811 308.825 71.3311 308.325C72.1811 307.825 73.0977 307.575 74.0811 307.575C75.0644 307.575 75.9727 307.825 76.8061 308.325C77.6561 308.825 78.3394 309.55 78.8561 310.5C79.3894 311.45 79.6561 312.6 79.6561 313.95C79.6561 315.3 79.3894 316.45 78.8561 317.4C78.3394 318.333 77.6561 319.05 76.8061 319.55C75.9727 320.05 75.0644 320.3 74.0811 320.3ZM74.0811 318.775C74.8144 318.775 75.4561 318.575 76.0061 318.175C76.5727 317.775 77.0061 317.217 77.3061 316.5C77.6227 315.767 77.7811 314.917 77.7811 313.95C77.7811 313 77.6227 312.158 77.3061 311.425C77.0061 310.692 76.5727 310.125 76.0061 309.725C75.4561 309.308 74.8144 309.1 74.0811 309.1C73.3644 309.1 72.7227 309.308 72.1561 309.725C71.6061 310.125 71.1727 310.692 70.8561 311.425C70.5561 312.158 70.4061 313 70.4061 313.95C70.4061 314.917 70.5561 315.767 70.8561 316.5C71.1727 317.217 71.6061 317.775 72.1561 318.175C72.7227 318.575 73.3644 318.775 74.0811 318.775ZM86.632 320.3C85.382 320.3 84.507 319.933 84.007 319.2C83.5237 318.467 83.282 317.517 83.282 316.35V309.375H81.457V308L83.357 307.875L83.582 304.45H85.107V307.875H88.432V309.375H85.107V316.4C85.107 317.15 85.2404 317.742 85.507 318.175C85.7904 318.592 86.2987 318.8 87.032 318.8C87.2487 318.8 87.482 318.767 87.732 318.7C87.9987 318.633 88.232 318.558 88.432 318.475L88.807 319.85C88.4737 319.967 88.1154 320.067 87.732 320.15C87.3487 320.25 86.982 320.3 86.632 320.3ZM95.8584 320.3C94.8751 320.3 93.9584 320.05 93.1084 319.55C92.2584 319.05 91.5751 318.333 91.0584 317.4C90.5417 316.45 90.2834 315.3 90.2834 313.95C90.2834 312.6 90.5417 311.45 91.0584 310.5C91.5751 309.55 92.2584 308.825 93.1084 308.325C93.9584 307.825 94.8751 307.575 95.8584 307.575C96.8417 307.575 97.7501 307.825 98.5834 308.325C99.4334 308.825 100.117 309.55 100.633 310.5C101.167 311.45 101.433 312.6 101.433 313.95C101.433 315.3 101.167 316.45 100.633 317.4C100.117 318.333 99.4334 319.05 98.5834 319.55C97.7501 320.05 96.8417 320.3 95.8584 320.3ZM95.8584 318.775C96.5917 318.775 97.2334 318.575 97.7834 318.175C98.3501 317.775 98.7834 317.217 99.0834 316.5C99.4001 315.767 99.5584 314.917 99.5584 313.95C99.5584 313 99.4001 312.158 99.0834 311.425C98.7834 310.692 98.3501 310.125 97.7834 309.725C97.2334 309.308 96.5917 309.1 95.8584 309.1C95.1417 309.1 94.5001 309.308 93.9334 309.725C93.3834 310.125 92.9501 310.692 92.6334 311.425C92.3334 312.158 92.1834 313 92.1834 313.95C92.1834 314.917 92.3334 315.767 92.6334 316.5C92.9501 317.217 93.3834 317.775 93.9334 318.175C94.5001 318.575 95.1417 318.775 95.8584 318.775Z" fill="#002B5B"/>
<rect y="98" width="34" height="34" fill="#FC624D"/>
<path d="M61.625 124.3C60.1917 124.3 58.925 123.967 57.825 123.3C56.725 122.617 55.8583 121.642 55.225 120.375C54.6083 119.092 54.3 117.567 54.3 115.8C54.3 114.467 54.4833 113.283 54.85 112.25C55.2333 111.2 55.7583 110.3 56.425 109.55C57.0917 108.8 57.875 108.233 58.775 107.85C59.6917 107.467 60.6917 107.275 61.775 107.275C62.9083 107.275 63.85 107.492 64.6 107.925C65.3667 108.342 65.9833 108.792 66.45 109.275L65.425 110.5C65.0083 110.05 64.5167 109.675 63.95 109.375C63.3833 109.058 62.675 108.9 61.825 108.9C60.6917 108.9 59.7 109.183 58.85 109.75C58.0167 110.3 57.3667 111.092 56.9 112.125C56.45 113.142 56.225 114.35 56.225 115.75C56.225 117.167 56.4417 118.392 56.875 119.425C57.3083 120.458 57.9417 121.258 58.775 121.825C59.6083 122.392 60.6167 122.675 61.8 122.675C62.4333 122.675 63.0333 122.583 63.6 122.4C64.1667 122.2 64.6167 121.942 64.95 121.625V117.15H61.35V115.6H66.65V122.4C66.1333 122.95 65.4417 123.408 64.575 123.775C63.725 124.125 62.7417 124.3 61.625 124.3ZM75.1064 124.3C74.1231 124.3 73.2064 124.05 72.3564 123.55C71.5064 123.05 70.8231 122.333 70.3064 121.4C69.7898 120.45 69.5314 119.3 69.5314 117.95C69.5314 116.6 69.7898 115.45 70.3064 114.5C70.8231 113.55 71.5064 112.825 72.3564 112.325C73.2064 111.825 74.1231 111.575 75.1064 111.575C76.0898 111.575 76.9981 111.825 77.8314 112.325C78.6814 112.825 79.3648 113.55 79.8814 114.5C80.4148 115.45 80.6814 116.6 80.6814 117.95C80.6814 119.3 80.4148 120.45 79.8814 121.4C79.3648 122.333 78.6814 123.05 77.8314 123.55C76.9981 124.05 76.0898 124.3 75.1064 124.3ZM75.1064 122.775C75.8398 122.775 76.4814 122.575 77.0314 122.175C77.5981 121.775 78.0314 121.217 78.3314 120.5C78.6481 119.767 78.8064 118.917 78.8064 117.95C78.8064 117 78.6481 116.158 78.3314 115.425C78.0314 114.692 77.5981 114.125 77.0314 113.725C76.4814 113.308 75.8398 113.1 75.1064 113.1C74.3898 113.1 73.7481 113.308 73.1814 113.725C72.6314 114.125 72.1981 114.692 71.8814 115.425C71.5814 116.158 71.4314 117 71.4314 117.95C71.4314 118.917 71.5814 119.767 71.8814 120.5C72.1981 121.217 72.6314 121.775 73.1814 122.175C73.7481 122.575 74.3898 122.775 75.1064 122.775ZM88.6074 124.3C87.6241 124.3 86.7074 124.05 85.8574 123.55C85.0074 123.05 84.3241 122.333 83.8074 121.4C83.2908 120.45 83.0324 119.3 83.0324 117.95C83.0324 116.6 83.2908 115.45 83.8074 114.5C84.3241 113.55 85.0074 112.825 85.8574 112.325C86.7074 111.825 87.6241 111.575 88.6074 111.575C89.5908 111.575 90.4991 111.825 91.3324 112.325C92.1824 112.825 92.8658 113.55 93.3824 114.5C93.9158 115.45 94.1824 116.6 94.1824 117.95C94.1824 119.3 93.9158 120.45 93.3824 121.4C92.8658 122.333 92.1824 123.05 91.3324 123.55C90.4991 124.05 89.5908 124.3 88.6074 124.3ZM88.6074 122.775C89.3408 122.775 89.9824 122.575 90.5324 122.175C91.0991 121.775 91.5324 121.217 91.8324 120.5C92.1491 119.767 92.3074 118.917 92.3074 117.95C92.3074 117 92.1491 116.158 91.8324 115.425C91.5324 114.692 91.0991 114.125 90.5324 113.725C89.9824 113.308 89.3408 113.1 88.6074 113.1C87.8908 113.1 87.2491 113.308 86.6824 113.725C86.1324 114.125 85.6991 114.692 85.3824 115.425C85.0824 116.158 84.9324 117 84.9324 117.95C84.9324 118.917 85.0824 119.767 85.3824 120.5C85.6991 121.217 86.1324 121.775 86.6824 122.175C87.2491 122.575 87.8908 122.775 88.6074 122.775ZM101.558 124.3C100.042 124.3 98.8334 123.75 97.9334 122.65C97.0334 121.533 96.5834 119.967 96.5834 117.95C96.5834 116.65 96.8251 115.525 97.3084 114.575C97.8084 113.625 98.4584 112.892 99.2584 112.375C100.058 111.842 100.925 111.575 101.858 111.575C102.575 111.575 103.192 111.7 103.708 111.95C104.225 112.2 104.758 112.55 105.308 113L105.233 110.9V106.15H107.033V124H105.533L105.383 122.525H105.308C104.842 123.008 104.283 123.425 103.633 123.775C103 124.125 102.308 124.3 101.558 124.3ZM101.958 122.75C102.542 122.75 103.1 122.608 103.633 122.325C104.167 122.025 104.7 121.592 105.233 121.025V114.45C104.683 113.967 104.158 113.625 103.658 113.425C103.158 113.225 102.65 113.125 102.133 113.125C101.45 113.125 100.825 113.333 100.258 113.75C99.7084 114.15 99.2667 114.717 98.9334 115.45C98.6167 116.167 98.4584 117 98.4584 117.95C98.4584 119.433 98.7584 120.608 99.3584 121.475C99.9751 122.325 100.842 122.75 101.958 122.75ZM117.552 124.3C116.186 124.3 114.969 123.967 113.902 123.3C112.836 122.617 111.994 121.642 111.377 120.375C110.761 119.092 110.452 117.567 110.452 115.8C110.452 114.467 110.627 113.283 110.977 112.25C111.344 111.2 111.852 110.3 112.502 109.55C113.169 108.8 113.936 108.233 114.802 107.85C115.686 107.467 116.644 107.275 117.677 107.275C118.677 107.275 119.552 107.483 120.302 107.9C121.069 108.3 121.677 108.758 122.127 109.275L121.102 110.5C120.669 110.017 120.169 109.633 119.602 109.35C119.052 109.05 118.419 108.9 117.702 108.9C116.636 108.9 115.702 109.183 114.902 109.75C114.102 110.3 113.477 111.092 113.027 112.125C112.594 113.142 112.377 114.35 112.377 115.75C112.377 117.167 112.586 118.392 113.002 119.425C113.436 120.458 114.044 121.258 114.827 121.825C115.627 122.392 116.561 122.675 117.627 122.675C118.444 122.675 119.161 122.508 119.777 122.175C120.411 121.842 120.994 121.375 121.527 120.775L122.552 121.925C121.919 122.675 121.194 123.258 120.377 123.675C119.561 124.092 118.619 124.3 117.552 124.3ZM129.136 124V109.15H124.086V107.575H136.011V109.15H130.986V124H129.136ZM137.866 124V122.9L146.716 109.15H138.666V107.575H149.016V108.675L140.166 122.425H149.091V124H137.866ZM152.492 124V107.575H154.392L160.592 118.225L162.392 121.6H162.492C162.442 120.767 162.384 119.917 162.317 119.05C162.267 118.167 162.242 117.308 162.242 116.475V107.575H163.992V124H162.092L155.892 113.35L154.092 109.975H153.992C154.059 110.792 154.117 111.625 154.167 112.475C154.217 113.308 154.242 114.15 154.242 115V124H152.492Z" fill="#002B5B"/>
<rect y="147" width="34" height="34" fill="#CC273E"/>
<path d="M61.4 173.3C60.0333 173.3 58.8167 172.967 57.75 172.3C56.6833 171.617 55.8417 170.642 55.225 169.375C54.6083 168.092 54.3 166.567 54.3 164.8C54.3 163.467 54.475 162.283 54.825 161.25C55.1917 160.2 55.7 159.3 56.35 158.55C57.0167 157.8 57.7833 157.233 58.65 156.85C59.5333 156.467 60.4917 156.275 61.525 156.275C62.525 156.275 63.4 156.483 64.15 156.9C64.9167 157.3 65.525 157.758 65.975 158.275L64.95 159.5C64.5167 159.017 64.0167 158.633 63.45 158.35C62.9 158.05 62.2667 157.9 61.55 157.9C60.4833 157.9 59.55 158.183 58.75 158.75C57.95 159.3 57.325 160.092 56.875 161.125C56.4417 162.142 56.225 163.35 56.225 164.75C56.225 166.167 56.4333 167.392 56.85 168.425C57.2833 169.458 57.8917 170.258 58.675 170.825C59.475 171.392 60.4083 171.675 61.475 171.675C62.2917 171.675 63.0083 171.508 63.625 171.175C64.2583 170.842 64.8417 170.375 65.375 169.775L66.4 170.925C65.7667 171.675 65.0417 172.258 64.225 172.675C63.4083 173.092 62.4667 173.3 61.4 173.3ZM73.9834 173.3C73.0001 173.3 72.0834 173.05 71.2334 172.55C70.3834 172.05 69.7001 171.333 69.1834 170.4C68.6667 169.45 68.4084 168.3 68.4084 166.95C68.4084 165.6 68.6667 164.45 69.1834 163.5C69.7001 162.55 70.3834 161.825 71.2334 161.325C72.0834 160.825 73.0001 160.575 73.9834 160.575C74.9667 160.575 75.8751 160.825 76.7084 161.325C77.5584 161.825 78.2417 162.55 78.7584 163.5C79.2917 164.45 79.5584 165.6 79.5584 166.95C79.5584 168.3 79.2917 169.45 78.7584 170.4C78.2417 171.333 77.5584 172.05 76.7084 172.55C75.8751 173.05 74.9667 173.3 73.9834 173.3ZM73.9834 171.775C74.7167 171.775 75.3584 171.575 75.9084 171.175C76.4751 170.775 76.9084 170.217 77.2084 169.5C77.5251 168.767 77.6834 167.917 77.6834 166.95C77.6834 166 77.5251 165.158 77.2084 164.425C76.9084 163.692 76.4751 163.125 75.9084 162.725C75.3584 162.308 74.7167 162.1 73.9834 162.1C73.2667 162.1 72.6251 162.308 72.0584 162.725C71.5084 163.125 71.0751 163.692 70.7584 164.425C70.4584 165.158 70.3084 166 70.3084 166.95C70.3084 167.917 70.4584 168.767 70.7584 169.5C71.0751 170.217 71.5084 170.775 72.0584 171.175C72.6251 171.575 73.2667 171.775 73.9834 171.775ZM86.9344 173.3C85.4177 173.3 84.2094 172.75 83.3094 171.65C82.4094 170.533 81.9594 168.967 81.9594 166.95C81.9594 165.65 82.201 164.525 82.6844 163.575C83.1844 162.625 83.8344 161.892 84.6344 161.375C85.4344 160.842 86.301 160.575 87.2344 160.575C87.951 160.575 88.5677 160.7 89.0844 160.95C89.601 161.2 90.1344 161.55 90.6844 162L90.6094 159.9V155.15H92.4094V173H90.9094L90.7594 171.525H90.6844C90.2177 172.008 89.6594 172.425 89.0094 172.775C88.376 173.125 87.6844 173.3 86.9344 173.3ZM87.3344 171.75C87.9177 171.75 88.476 171.608 89.0094 171.325C89.5427 171.025 90.076 170.592 90.6094 170.025V163.45C90.0594 162.967 89.5344 162.625 89.0344 162.425C88.5344 162.225 88.026 162.125 87.5094 162.125C86.826 162.125 86.201 162.333 85.6344 162.75C85.0844 163.15 84.6427 163.717 84.3094 164.45C83.9927 165.167 83.8344 166 83.8344 166.95C83.8344 168.433 84.1344 169.608 84.7344 170.475C85.351 171.325 86.2177 171.75 87.3344 171.75ZM101.453 173.3C100.403 173.3 99.4367 173.05 98.5533 172.55C97.6867 172.033 96.995 171.308 96.4783 170.375C95.9617 169.425 95.7033 168.283 95.7033 166.95C95.7033 165.633 95.9617 164.5 96.4783 163.55C96.995 162.6 97.6617 161.867 98.4783 161.35C99.3117 160.833 100.195 160.575 101.128 160.575C102.128 160.575 102.987 160.808 103.703 161.275C104.42 161.742 104.962 162.4 105.328 163.25C105.712 164.083 105.903 165.083 105.903 166.25C105.903 166.45 105.895 166.65 105.878 166.85C105.878 167.033 105.862 167.2 105.828 167.35H97.1283L97.1033 166.025H104.278C104.278 164.725 104.003 163.742 103.453 163.075C102.903 162.392 102.137 162.05 101.153 162.05C100.553 162.05 99.97 162.225 99.4033 162.575C98.8367 162.925 98.37 163.458 98.0033 164.175C97.6367 164.892 97.4533 165.817 97.4533 166.95C97.4533 168.033 97.645 168.933 98.0283 169.65C98.4117 170.367 98.92 170.908 99.5533 171.275C100.203 171.642 100.912 171.825 101.678 171.825C102.295 171.825 102.845 171.733 103.328 171.55C103.828 171.367 104.303 171.133 104.753 170.85L105.428 172.05C104.912 172.383 104.328 172.675 103.678 172.925C103.045 173.175 102.303 173.3 101.453 173.3ZM114.238 173V158.775C114.238 157.958 114.363 157.258 114.613 156.675C114.863 156.092 115.238 155.642 115.738 155.325C116.255 155.008 116.896 154.85 117.663 154.85C118.013 154.85 118.355 154.892 118.688 154.975C119.038 155.042 119.346 155.133 119.613 155.25L119.213 156.65C118.98 156.533 118.746 156.458 118.513 156.425C118.28 156.375 118.046 156.35 117.813 156.35C117.23 156.35 116.788 156.558 116.488 156.975C116.205 157.392 116.063 158 116.063 158.8V173H114.238ZM112.588 162.375V161L114.313 160.875H118.688V162.375H112.588ZM125.692 173.3C124.709 173.3 123.792 173.05 122.942 172.55C122.092 172.05 121.409 171.333 120.892 170.4C120.376 169.45 120.117 168.3 120.117 166.95C120.117 165.6 120.376 164.45 120.892 163.5C121.409 162.55 122.092 161.825 122.942 161.325C123.792 160.825 124.709 160.575 125.692 160.575C126.676 160.575 127.584 160.825 128.417 161.325C129.267 161.825 129.951 162.55 130.467 163.5C131.001 164.45 131.267 165.6 131.267 166.95C131.267 168.3 131.001 169.45 130.467 170.4C129.951 171.333 129.267 172.05 128.417 172.55C127.584 173.05 126.676 173.3 125.692 173.3ZM125.692 171.775C126.426 171.775 127.067 171.575 127.617 171.175C128.184 170.775 128.617 170.217 128.917 169.5C129.234 168.767 129.392 167.917 129.392 166.95C129.392 166 129.234 165.158 128.917 164.425C128.617 163.692 128.184 163.125 127.617 162.725C127.067 162.308 126.426 162.1 125.692 162.1C124.976 162.1 124.334 162.308 123.767 162.725C123.217 163.125 122.784 163.692 122.467 164.425C122.167 165.158 122.017 166 122.017 166.95C122.017 167.917 122.167 168.767 122.467 169.5C122.784 170.217 123.217 170.775 123.767 171.175C124.334 171.575 124.976 171.775 125.692 171.775ZM134.568 173V160.875H136.068L136.218 163.1H136.293C136.71 162.333 137.21 161.725 137.793 161.275C138.393 160.808 139.043 160.575 139.743 160.575C139.993 160.575 140.218 160.6 140.418 160.65C140.618 160.683 140.81 160.742 140.993 160.825L140.643 162.425C140.443 162.358 140.26 162.308 140.093 162.275C139.943 162.242 139.743 162.225 139.493 162.225C138.977 162.225 138.435 162.442 137.868 162.875C137.302 163.292 136.802 164.033 136.368 165.1V173H134.568ZM146.044 173L151.669 156.575H153.719L159.319 173H157.369L154.394 163.7C154.094 162.767 153.803 161.85 153.519 160.95C153.253 160.033 152.978 159.092 152.694 158.125H152.594C152.344 159.092 152.078 160.033 151.794 160.95C151.528 161.85 151.236 162.767 150.919 163.7L147.919 173H146.044ZM148.894 167.825V166.35H156.419V167.825H148.894ZM161.546 173V160.875H163.046L163.196 162.675H163.271C163.804 162.092 164.388 161.6 165.021 161.2C165.671 160.783 166.346 160.575 167.046 160.575C167.996 160.575 168.729 160.792 169.246 161.225C169.779 161.642 170.163 162.208 170.396 162.925C171.046 162.225 171.696 161.658 172.346 161.225C173.013 160.792 173.704 160.575 174.421 160.575C175.671 160.575 176.596 160.975 177.196 161.775C177.796 162.575 178.096 163.75 178.096 165.3V173H176.271V165.525C176.271 164.358 176.079 163.508 175.696 162.975C175.313 162.442 174.713 162.175 173.896 162.175C173.413 162.175 172.904 162.342 172.371 162.675C171.854 162.992 171.304 163.475 170.721 164.125V173H168.896V165.525C168.896 164.358 168.704 163.508 168.321 162.975C167.954 162.442 167.363 162.175 166.546 162.175C165.579 162.175 164.513 162.825 163.346 164.125V173H161.546ZM186.976 173.3C185.926 173.3 184.959 173.05 184.076 172.55C183.209 172.033 182.517 171.308 182.001 170.375C181.484 169.425 181.226 168.283 181.226 166.95C181.226 165.633 181.484 164.5 182.001 163.55C182.517 162.6 183.184 161.867 184.001 161.35C184.834 160.833 185.717 160.575 186.651 160.575C187.651 160.575 188.509 160.808 189.226 161.275C189.942 161.742 190.484 162.4 190.851 163.25C191.234 164.083 191.426 165.083 191.426 166.25C191.426 166.45 191.417 166.65 191.401 166.85C191.401 167.033 191.384 167.2 191.351 167.35H182.651L182.626 166.025H189.801C189.801 164.725 189.526 163.742 188.976 163.075C188.426 162.392 187.659 162.05 186.676 162.05C186.076 162.05 185.492 162.225 184.926 162.575C184.359 162.925 183.892 163.458 183.526 164.175C183.159 164.892 182.976 165.817 182.976 166.95C182.976 168.033 183.167 168.933 183.551 169.65C183.934 170.367 184.442 170.908 185.076 171.275C185.726 171.642 186.434 171.825 187.201 171.825C187.817 171.825 188.367 171.733 188.851 171.55C189.351 171.367 189.826 171.133 190.276 170.85L190.951 172.05C190.434 172.383 189.851 172.675 189.201 172.925C188.567 173.175 187.826 173.3 186.976 173.3ZM194.48 173V160.875H195.98L196.13 163.1H196.205C196.622 162.333 197.122 161.725 197.705 161.275C198.305 160.808 198.955 160.575 199.655 160.575C199.905 160.575 200.13 160.6 200.33 160.65C200.53 160.683 200.722 160.742 200.905 160.825L200.555 162.425C200.355 162.358 200.172 162.308 200.005 162.275C199.855 162.242 199.655 162.225 199.405 162.225C198.889 162.225 198.347 162.442 197.78 162.875C197.214 163.292 196.714 164.033 196.28 165.1V173H194.48ZM202.977 173V160.875H204.777V173H202.977ZM203.902 158.275C203.552 158.275 203.252 158.158 203.002 157.925C202.768 157.692 202.652 157.383 202.652 157C202.652 156.633 202.768 156.342 203.002 156.125C203.252 155.892 203.552 155.775 203.902 155.775C204.268 155.775 204.568 155.892 204.802 156.125C205.035 156.342 205.152 156.633 205.152 157C205.152 157.383 205.035 157.692 204.802 157.925C204.568 158.158 204.268 158.275 203.902 158.275ZM213.731 173.3C212.665 173.3 211.706 173.05 210.856 172.55C210.006 172.05 209.331 171.333 208.831 170.4C208.331 169.45 208.081 168.3 208.081 166.95C208.081 165.6 208.348 164.45 208.881 163.5C209.431 162.55 210.14 161.825 211.006 161.325C211.873 160.825 212.823 160.575 213.856 160.575C214.656 160.575 215.34 160.725 215.906 161.025C216.473 161.308 216.965 161.642 217.381 162.025L216.431 163.225C216.081 162.892 215.698 162.625 215.281 162.425C214.881 162.208 214.431 162.1 213.931 162.1C213.165 162.1 212.481 162.308 211.881 162.725C211.298 163.125 210.831 163.692 210.481 164.425C210.148 165.158 209.981 166 209.981 166.95C209.981 167.917 210.14 168.767 210.456 169.5C210.79 170.217 211.248 170.775 211.831 171.175C212.415 171.575 213.098 171.775 213.881 171.775C214.465 171.775 215.006 171.65 215.506 171.4C216.006 171.15 216.448 170.858 216.831 170.525L217.631 171.75C217.098 172.233 216.498 172.617 215.831 172.9C215.165 173.167 214.465 173.3 213.731 173.3ZM223.134 173.3C222.467 173.3 221.867 173.167 221.334 172.9C220.8 172.633 220.375 172.25 220.059 171.75C219.742 171.233 219.584 170.608 219.584 169.875C219.584 168.558 220.184 167.55 221.384 166.85C222.6 166.133 224.517 165.633 227.134 165.35C227.134 164.8 227.059 164.275 226.909 163.775C226.775 163.275 226.517 162.875 226.134 162.575C225.767 162.258 225.234 162.1 224.534 162.1C223.8 162.1 223.117 162.242 222.484 162.525C221.867 162.808 221.325 163.108 220.859 163.425L220.134 162.175C220.484 161.942 220.9 161.7 221.384 161.45C221.867 161.2 222.4 160.992 222.984 160.825C223.567 160.658 224.184 160.575 224.834 160.575C225.817 160.575 226.609 160.783 227.209 161.2C227.809 161.617 228.242 162.192 228.509 162.925C228.792 163.658 228.934 164.517 228.934 165.5V173H227.434L227.284 171.525H227.209C226.625 172.008 225.992 172.425 225.309 172.775C224.625 173.125 223.9 173.3 223.134 173.3ZM223.609 171.825C224.242 171.825 224.825 171.683 225.359 171.4C225.909 171.1 226.5 170.675 227.134 170.125V166.575C225.7 166.742 224.567 166.975 223.734 167.275C222.9 167.558 222.3 167.908 221.934 168.325C221.567 168.742 221.384 169.225 221.384 169.775C221.384 170.492 221.6 171.017 222.034 171.35C222.484 171.667 223.009 171.825 223.609 171.825Z" fill="#002B5B"/>
<rect y="196" width="34" height="34" fill="#134072"/>
<path d="M61.025 222.3C60.225 222.3 59.4667 222.183 58.75 221.95C58.05 221.7 57.4333 221.308 56.9 220.775C56.3833 220.242 55.975 219.533 55.675 218.65C55.375 217.75 55.225 216.65 55.225 215.35V205.575H57.075V215.35C57.075 216.7 57.25 217.767 57.6 218.55C57.9667 219.317 58.4417 219.867 59.025 220.2C59.625 220.517 60.2917 220.675 61.025 220.675C61.775 220.675 62.45 220.517 63.05 220.2C63.6667 219.867 64.1583 219.317 64.525 218.55C64.8917 217.767 65.075 216.7 65.075 215.35V205.575H66.85V215.35C66.85 216.65 66.6917 217.75 66.375 218.65C66.075 219.533 65.6583 220.242 65.125 220.775C64.6083 221.308 64 221.7 63.3 221.95C62.6 222.183 61.8417 222.3 61.025 222.3ZM72.0895 222.3C71.7228 222.3 71.3978 222.167 71.1145 221.9C70.8478 221.633 70.7145 221.283 70.7145 220.85C70.7145 220.4 70.8478 220.042 71.1145 219.775C71.3978 219.508 71.7228 219.375 72.0895 219.375C72.4728 219.375 72.7978 219.508 73.0645 219.775C73.3311 220.042 73.4645 220.4 73.4645 220.85C73.4645 221.283 73.3311 221.633 73.0645 221.9C72.7978 222.167 72.4728 222.3 72.0895 222.3ZM81.8941 222.3C80.7441 222.3 79.6858 222.075 78.7191 221.625C77.7525 221.175 76.9108 220.583 76.1941 219.85L77.3191 218.575C77.9191 219.208 78.6108 219.717 79.3941 220.1C80.1941 220.483 81.0358 220.675 81.9191 220.675C83.0525 220.675 83.9358 220.417 84.5691 219.9C85.2025 219.367 85.5191 218.675 85.5191 217.825C85.5191 217.242 85.3941 216.775 85.1441 216.425C84.8941 216.058 84.5608 215.758 84.1441 215.525C83.7275 215.275 83.2525 215.033 82.7191 214.8L80.3441 213.75C79.8441 213.533 79.3358 213.25 78.8191 212.9C78.3025 212.55 77.8691 212.108 77.5191 211.575C77.1858 211.042 77.0191 210.367 77.0191 209.55C77.0191 208.733 77.2358 208.008 77.6691 207.375C78.1025 206.725 78.7025 206.217 79.4691 205.85C80.2358 205.467 81.1025 205.275 82.0691 205.275C83.0525 205.275 83.9525 205.467 84.7691 205.85C85.6025 206.233 86.2941 206.717 86.8441 207.3L85.8441 208.5C85.3608 208 84.8025 207.608 84.1691 207.325C83.5525 207.042 82.8525 206.9 82.0691 206.9C81.1191 206.9 80.3441 207.133 79.7441 207.6C79.1608 208.05 78.8691 208.667 78.8691 209.45C78.8691 210 79.0108 210.45 79.2941 210.8C79.5775 211.15 79.9275 211.442 80.3441 211.675C80.7775 211.892 81.2025 212.092 81.6191 212.275L83.9941 213.325C84.6441 213.592 85.2191 213.908 85.7191 214.275C86.2191 214.642 86.6191 215.1 86.9191 215.65C87.2358 216.2 87.3941 216.883 87.3941 217.7C87.3941 218.55 87.1691 219.325 86.7191 220.025C86.2858 220.725 85.6525 221.283 84.8191 221.7C84.0025 222.1 83.0275 222.3 81.8941 222.3ZM91.401 222.3C91.0343 222.3 90.7093 222.167 90.426 221.9C90.1593 221.633 90.026 221.283 90.026 220.85C90.026 220.4 90.1593 220.042 90.426 219.775C90.7093 219.508 91.0343 219.375 91.401 219.375C91.7843 219.375 92.1093 219.508 92.376 219.775C92.6426 220.042 92.776 220.4 92.776 220.85C92.776 221.283 92.6426 221.633 92.376 221.9C92.1093 222.167 91.7843 222.3 91.401 222.3ZM101.736 222V205.575H105.761C107.444 205.575 108.852 205.9 109.986 206.55C111.136 207.183 111.994 208.108 112.561 209.325C113.144 210.542 113.436 212.008 113.436 213.725C113.436 215.442 113.144 216.925 112.561 218.175C111.994 219.408 111.144 220.358 110.011 221.025C108.877 221.675 107.486 222 105.836 222H101.736ZM103.586 220.475H105.611C106.944 220.475 108.044 220.2 108.911 219.65C109.794 219.1 110.452 218.325 110.886 217.325C111.319 216.325 111.536 215.125 111.536 213.725C111.536 212.342 111.319 211.158 110.886 210.175C110.452 209.175 109.794 208.417 108.911 207.9C108.044 207.367 106.944 207.1 105.611 207.1H103.586V220.475ZM116.893 222V209.875H118.693V222H116.893ZM117.818 207.275C117.468 207.275 117.168 207.158 116.918 206.925C116.684 206.692 116.568 206.383 116.568 206C116.568 205.633 116.684 205.342 116.918 205.125C117.168 204.892 117.468 204.775 117.818 204.775C118.184 204.775 118.484 204.892 118.718 205.125C118.951 205.342 119.068 205.633 119.068 206C119.068 206.383 118.951 206.692 118.718 206.925C118.484 207.158 118.184 207.275 117.818 207.275ZM126.997 227.65C125.997 227.65 125.122 227.517 124.372 227.25C123.622 226.983 123.039 226.608 122.622 226.125C122.206 225.642 121.997 225.058 121.997 224.375C121.997 223.842 122.156 223.333 122.472 222.85C122.789 222.367 123.222 221.942 123.772 221.575V221.475C123.472 221.275 123.214 221.017 122.997 220.7C122.797 220.367 122.697 219.967 122.697 219.5C122.697 218.983 122.839 218.533 123.122 218.15C123.422 217.767 123.722 217.467 124.022 217.25V217.15C123.639 216.833 123.281 216.392 122.947 215.825C122.631 215.258 122.472 214.617 122.472 213.9C122.472 213.017 122.672 212.258 123.072 211.625C123.489 210.975 124.031 210.475 124.697 210.125C125.381 209.758 126.131 209.575 126.947 209.575C127.281 209.575 127.589 209.608 127.872 209.675C128.172 209.725 128.422 209.792 128.622 209.875H132.822V211.3H130.247C130.564 211.6 130.822 211.975 131.022 212.425C131.222 212.875 131.322 213.375 131.322 213.925C131.322 214.792 131.122 215.542 130.722 216.175C130.339 216.808 129.814 217.3 129.147 217.65C128.497 217.983 127.764 218.15 126.947 218.15C126.647 218.15 126.331 218.117 125.997 218.05C125.681 217.967 125.381 217.858 125.097 217.725C124.864 217.908 124.664 218.117 124.497 218.35C124.347 218.583 124.272 218.875 124.272 219.225C124.272 219.625 124.422 219.958 124.722 220.225C125.039 220.475 125.606 220.6 126.422 220.6H128.847C130.247 220.6 131.289 220.833 131.972 221.3C132.672 221.75 133.022 222.475 133.022 223.475C133.022 224.208 132.772 224.892 132.272 225.525C131.789 226.158 131.097 226.667 130.197 227.05C129.297 227.45 128.231 227.65 126.997 227.65ZM127.247 226.35C128.047 226.35 128.739 226.225 129.322 225.975C129.922 225.725 130.389 225.4 130.722 225C131.056 224.6 131.222 224.175 131.222 223.725C131.222 223.142 131.006 222.733 130.572 222.5C130.156 222.267 129.531 222.15 128.697 222.15H126.472C126.289 222.15 126.056 222.133 125.772 222.1C125.506 222.067 125.222 222.017 124.922 221.95C124.456 222.283 124.114 222.633 123.897 223C123.697 223.383 123.597 223.758 123.597 224.125C123.597 224.808 123.922 225.35 124.572 225.75C125.222 226.15 126.114 226.35 127.247 226.35ZM126.947 216.9C127.431 216.9 127.872 216.775 128.272 216.525C128.689 216.275 129.022 215.925 129.272 215.475C129.522 215.025 129.647 214.5 129.647 213.9C129.647 213.283 129.522 212.758 129.272 212.325C129.039 211.875 128.714 211.533 128.297 211.3C127.897 211.05 127.447 210.925 126.947 210.925C126.197 210.925 125.556 211.192 125.022 211.725C124.489 212.242 124.222 212.967 124.222 213.9C124.222 214.5 124.347 215.025 124.597 215.475C124.847 215.925 125.181 216.275 125.597 216.525C126.014 216.775 126.464 216.9 126.947 216.9ZM135.447 222V209.875H137.247V222H135.447ZM136.372 207.275C136.022 207.275 135.722 207.158 135.472 206.925C135.239 206.692 135.122 206.383 135.122 206C135.122 205.633 135.239 205.342 135.472 205.125C135.722 204.892 136.022 204.775 136.372 204.775C136.739 204.775 137.039 204.892 137.272 205.125C137.506 205.342 137.622 205.633 137.622 206C137.622 206.383 137.506 206.692 137.272 206.925C137.039 207.158 136.739 207.275 136.372 207.275ZM145.177 222.3C143.927 222.3 143.052 221.933 142.552 221.2C142.069 220.467 141.827 219.517 141.827 218.35V211.375H140.002V210L141.902 209.875L142.127 206.45H143.652V209.875H146.977V211.375H143.652V218.4C143.652 219.15 143.785 219.742 144.052 220.175C144.335 220.592 144.844 220.8 145.577 220.8C145.794 220.8 146.027 220.767 146.277 220.7C146.544 220.633 146.777 220.558 146.977 220.475L147.352 221.85C147.019 221.967 146.66 222.067 146.277 222.15C145.894 222.25 145.527 222.3 145.177 222.3ZM152.528 222.3C151.862 222.3 151.262 222.167 150.728 221.9C150.195 221.633 149.77 221.25 149.453 220.75C149.137 220.233 148.978 219.608 148.978 218.875C148.978 217.558 149.578 216.55 150.778 215.85C151.995 215.133 153.912 214.633 156.528 214.35C156.528 213.8 156.453 213.275 156.303 212.775C156.17 212.275 155.912 211.875 155.528 211.575C155.162 211.258 154.628 211.1 153.928 211.1C153.195 211.1 152.512 211.242 151.878 211.525C151.262 211.808 150.72 212.108 150.253 212.425L149.528 211.175C149.878 210.942 150.295 210.7 150.778 210.45C151.262 210.2 151.795 209.992 152.378 209.825C152.962 209.658 153.578 209.575 154.228 209.575C155.212 209.575 156.003 209.783 156.603 210.2C157.203 210.617 157.637 211.192 157.903 211.925C158.187 212.658 158.328 213.517 158.328 214.5V222H156.828L156.678 220.525H156.603C156.02 221.008 155.387 221.425 154.703 221.775C154.02 222.125 153.295 222.3 152.528 222.3ZM153.003 220.825C153.637 220.825 154.22 220.683 154.753 220.4C155.303 220.1 155.895 219.675 156.528 219.125V215.575C155.095 215.742 153.962 215.975 153.128 216.275C152.295 216.558 151.695 216.908 151.328 217.325C150.962 217.742 150.778 218.225 150.778 218.775C150.778 219.492 150.995 220.017 151.428 220.35C151.878 220.667 152.403 220.825 153.003 220.825ZM164.278 222.3C163.828 222.3 163.453 222.2 163.153 222C162.853 221.817 162.636 221.542 162.503 221.175C162.369 220.792 162.303 220.325 162.303 219.775V204.15H164.103V219.925C164.103 220.225 164.161 220.442 164.278 220.575C164.394 220.708 164.528 220.775 164.678 220.775C164.728 220.775 164.786 220.775 164.853 220.775C164.919 220.758 165.011 220.742 165.128 220.725L165.378 222.125C165.244 222.158 165.086 222.192 164.903 222.225C164.736 222.275 164.528 222.3 164.278 222.3ZM178.208 222.3C177.058 222.3 175.999 222.075 175.033 221.625C174.066 221.175 173.224 220.583 172.508 219.85L173.633 218.575C174.233 219.208 174.924 219.717 175.708 220.1C176.508 220.483 177.349 220.675 178.233 220.675C179.366 220.675 180.249 220.417 180.883 219.9C181.516 219.367 181.833 218.675 181.833 217.825C181.833 217.242 181.708 216.775 181.458 216.425C181.208 216.058 180.874 215.758 180.458 215.525C180.041 215.275 179.566 215.033 179.033 214.8L176.658 213.75C176.158 213.533 175.649 213.25 175.133 212.9C174.616 212.55 174.183 212.108 173.833 211.575C173.499 211.042 173.333 210.367 173.333 209.55C173.333 208.733 173.549 208.008 173.983 207.375C174.416 206.725 175.016 206.217 175.783 205.85C176.549 205.467 177.416 205.275 178.383 205.275C179.366 205.275 180.266 205.467 181.083 205.85C181.916 206.233 182.608 206.717 183.158 207.3L182.158 208.5C181.674 208 181.116 207.608 180.483 207.325C179.866 207.042 179.166 206.9 178.383 206.9C177.433 206.9 176.658 207.133 176.058 207.6C175.474 208.05 175.183 208.667 175.183 209.45C175.183 210 175.324 210.45 175.608 210.8C175.891 211.15 176.241 211.442 176.658 211.675C177.091 211.892 177.516 212.092 177.933 212.275L180.308 213.325C180.958 213.592 181.533 213.908 182.033 214.275C182.533 214.642 182.933 215.1 183.233 215.65C183.549 216.2 183.708 216.883 183.708 217.7C183.708 218.55 183.483 219.325 183.033 220.025C182.599 220.725 181.966 221.283 181.133 221.7C180.316 222.1 179.341 222.3 178.208 222.3ZM191.614 222.3C190.564 222.3 189.598 222.05 188.714 221.55C187.848 221.033 187.156 220.308 186.639 219.375C186.123 218.425 185.864 217.283 185.864 215.95C185.864 214.633 186.123 213.5 186.639 212.55C187.156 211.6 187.823 210.867 188.639 210.35C189.473 209.833 190.356 209.575 191.289 209.575C192.289 209.575 193.148 209.808 193.864 210.275C194.581 210.742 195.123 211.4 195.489 212.25C195.873 213.083 196.064 214.083 196.064 215.25C196.064 215.45 196.056 215.65 196.039 215.85C196.039 216.033 196.023 216.2 195.989 216.35H187.289L187.264 215.025H194.439C194.439 213.725 194.164 212.742 193.614 212.075C193.064 211.392 192.298 211.05 191.314 211.05C190.714 211.05 190.131 211.225 189.564 211.575C188.998 211.925 188.531 212.458 188.164 213.175C187.798 213.892 187.614 214.817 187.614 215.95C187.614 217.033 187.806 217.933 188.189 218.65C188.573 219.367 189.081 219.908 189.714 220.275C190.364 220.642 191.073 220.825 191.839 220.825C192.456 220.825 193.006 220.733 193.489 220.55C193.989 220.367 194.464 220.133 194.914 219.85L195.589 221.05C195.073 221.383 194.489 221.675 193.839 221.925C193.206 222.175 192.464 222.3 191.614 222.3ZM199.119 222V209.875H200.619L200.769 212.1H200.844C201.261 211.333 201.761 210.725 202.344 210.275C202.944 209.808 203.594 209.575 204.294 209.575C204.544 209.575 204.769 209.6 204.969 209.65C205.169 209.683 205.361 209.742 205.544 209.825L205.194 211.425C204.994 211.358 204.811 211.308 204.644 211.275C204.494 211.242 204.294 211.225 204.044 211.225C203.527 211.225 202.986 211.442 202.419 211.875C201.852 212.292 201.352 213.033 200.919 214.1V222H199.119ZM210.215 222L205.79 209.875H207.665L210.065 216.95C210.265 217.533 210.457 218.125 210.64 218.725C210.84 219.325 211.032 219.917 211.215 220.5H211.315C211.499 219.917 211.69 219.325 211.89 218.725C212.09 218.125 212.282 217.533 212.465 216.95L214.865 209.875H216.665L212.315 222H210.215ZM219.09 222V209.875H220.89V222H219.09ZM220.015 207.275C219.665 207.275 219.365 207.158 219.115 206.925C218.882 206.692 218.765 206.383 218.765 206C218.765 205.633 218.882 205.342 219.115 205.125C219.365 204.892 219.665 204.775 220.015 204.775C220.382 204.775 220.682 204.892 220.915 205.125C221.148 205.342 221.265 205.633 221.265 206C221.265 206.383 221.148 206.692 220.915 206.925C220.682 207.158 220.382 207.275 220.015 207.275ZM229.845 222.3C228.778 222.3 227.82 222.05 226.97 221.55C226.12 221.05 225.445 220.333 224.945 219.4C224.445 218.45 224.195 217.3 224.195 215.95C224.195 214.6 224.461 213.45 224.995 212.5C225.545 211.55 226.253 210.825 227.12 210.325C227.986 209.825 228.936 209.575 229.97 209.575C230.77 209.575 231.453 209.725 232.02 210.025C232.586 210.308 233.078 210.642 233.495 211.025L232.545 212.225C232.195 211.892 231.811 211.625 231.395 211.425C230.995 211.208 230.545 211.1 230.045 211.1C229.278 211.1 228.595 211.308 227.995 211.725C227.411 212.125 226.945 212.692 226.595 213.425C226.261 214.158 226.095 215 226.095 215.95C226.095 216.917 226.253 217.767 226.57 218.5C226.903 219.217 227.361 219.775 227.945 220.175C228.528 220.575 229.211 220.775 229.995 220.775C230.578 220.775 231.12 220.65 231.62 220.4C232.12 220.15 232.561 219.858 232.945 219.525L233.745 220.75C233.211 221.233 232.611 221.617 231.945 221.9C231.278 222.167 230.578 222.3 229.845 222.3ZM241.297 222.3C240.247 222.3 239.28 222.05 238.397 221.55C237.53 221.033 236.839 220.308 236.322 219.375C235.805 218.425 235.547 217.283 235.547 215.95C235.547 214.633 235.805 213.5 236.322 212.55C236.839 211.6 237.505 210.867 238.322 210.35C239.155 209.833 240.039 209.575 240.972 209.575C241.972 209.575 242.83 209.808 243.547 210.275C244.264 210.742 244.805 211.4 245.172 212.25C245.555 213.083 245.747 214.083 245.747 215.25C245.747 215.45 245.739 215.65 245.722 215.85C245.722 216.033 245.705 216.2 245.672 216.35H236.972L236.947 215.025H244.122C244.122 213.725 243.847 212.742 243.297 212.075C242.747 211.392 241.98 211.05 240.997 211.05C240.397 211.05 239.814 211.225 239.247 211.575C238.68 211.925 238.214 212.458 237.847 213.175C237.48 213.892 237.297 214.817 237.297 215.95C237.297 217.033 237.489 217.933 237.872 218.65C238.255 219.367 238.764 219.908 239.397 220.275C240.047 220.642 240.755 220.825 241.522 220.825C242.139 220.825 242.689 220.733 243.172 220.55C243.672 220.367 244.147 220.133 244.597 219.85L245.272 221.05C244.755 221.383 244.172 221.675 243.522 221.925C242.889 222.175 242.147 222.3 241.297 222.3ZM256.557 222.3C255.89 222.3 255.29 222.167 254.757 221.9C254.223 221.633 253.798 221.25 253.482 220.75C253.165 220.233 253.007 219.608 253.007 218.875C253.007 217.558 253.607 216.55 254.807 215.85C256.023 215.133 257.94 214.633 260.557 214.35C260.557 213.8 260.482 213.275 260.332 212.775C260.198 212.275 259.94 211.875 259.557 211.575C259.19 211.258 258.657 211.1 257.957 211.1C257.223 211.1 256.54 211.242 255.907 211.525C255.29 211.808 254.748 212.108 254.282 212.425L253.557 211.175C253.907 210.942 254.323 210.7 254.807 210.45C255.29 210.2 255.823 209.992 256.407 209.825C256.99 209.658 257.607 209.575 258.257 209.575C259.24 209.575 260.032 209.783 260.632 210.2C261.232 210.617 261.665 211.192 261.932 211.925C262.215 212.658 262.357 213.517 262.357 214.5V222H260.857L260.707 220.525H260.632C260.048 221.008 259.415 221.425 258.732 221.775C258.048 222.125 257.323 222.3 256.557 222.3ZM257.032 220.825C257.665 220.825 258.248 220.683 258.782 220.4C259.332 220.1 259.923 219.675 260.557 219.125V215.575C259.123 215.742 257.99 215.975 257.157 216.275C256.323 216.558 255.723 216.908 255.357 217.325C254.99 217.742 254.807 218.225 254.807 218.775C254.807 219.492 255.023 220.017 255.457 220.35C255.907 220.667 256.432 220.825 257.032 220.825ZM270.006 222.3C268.756 222.3 267.881 221.933 267.381 221.2C266.898 220.467 266.656 219.517 266.656 218.35V211.375H264.831V210L266.731 209.875L266.956 206.45H268.481V209.875H271.806V211.375H268.481V218.4C268.481 219.15 268.614 219.742 268.881 220.175C269.164 220.592 269.673 220.8 270.406 220.8C270.623 220.8 270.856 220.767 271.106 220.7C271.373 220.633 271.606 220.558 271.806 220.475L272.181 221.85C271.848 221.967 271.489 222.067 271.106 222.15C270.723 222.25 270.356 222.3 270.006 222.3ZM282.812 222L277.512 205.575H279.487L282.237 214.625C282.537 215.608 282.804 216.525 283.037 217.375C283.271 218.208 283.537 219.108 283.837 220.075H283.937C284.254 219.108 284.529 218.208 284.762 217.375C285.012 216.525 285.279 215.608 285.562 214.625L288.312 205.575H290.187L284.937 222H282.812ZM290.307 222L295.932 205.575H297.982L303.582 222H301.632L298.657 212.7C298.357 211.767 298.065 210.85 297.782 209.95C297.515 209.033 297.24 208.092 296.957 207.125H296.857C296.607 208.092 296.34 209.033 296.057 209.95C295.79 210.85 295.499 211.767 295.182 212.7L292.182 222H290.307ZM293.157 216.825V215.35H300.682V216.825H293.157Z" fill="#002B5B"/>
</svg>
