<svg width="1042" height="860" viewBox="0 0 1042 860" fill="none" xmlns="http://www.w3.org/2000/svg">
<path d="M264.803 161.803L531 51.5412L797.197 161.803L907.459 428L797.197 694.197L531 804.459L264.803 694.197L154.541 428L264.803 161.803Z" stroke="#002B5B"/>
<path d="M478.066 375.066L531 353.141L583.933 375.066L605.858 428L583.933 480.933L531 502.858L478.066 480.933L456.141 428L478.066 375.066Z" stroke="#002B5B"/>
<path d="M424.751 321.751L531 277.741L637.249 321.751L681.259 428L637.249 534.249L531 578.259L424.751 534.249L380.741 428L424.751 321.751Z" stroke="#002B5B"/>
<path d="M371.435 268.435L531 202.341L690.565 268.435L756.659 428L690.565 587.565L531 653.659L371.435 587.565L305.341 428L371.435 268.435Z" stroke="#002B5B"/>
<path d="M318.12 215.12L531 126.942L743.881 215.12L832.059 428L743.881 640.881L531 729.059L318.12 640.881L229.942 428L318.12 215.12Z" stroke="#002B5B"/>
<line x1="531.5" y1="51.9082" x2="531.5" y2="805" stroke="#002B5B"/>
<line x1="265.095" y1="161.843" x2="797.611" y2="694.359" stroke="#002B5B"/>
<line x1="154.453" y1="427.954" x2="907.545" y2="427.954" stroke="#002B5B"/>
<line x1="264.387" y1="694.358" x2="796.903" y2="161.842" stroke="#002B5B"/>
<path d="M470.571 16V5.52H472.203V16H470.571ZM474.818 16V8.176H476.146L476.274 9.264H476.322C476.685 8.912 477.074 8.61333 477.49 8.368C477.906 8.112 478.381 7.984 478.914 7.984C479.746 7.984 480.354 8.25067 480.738 8.784C481.122 9.31733 481.314 10.08 481.314 11.072V16H479.698V11.28C479.698 10.5973 479.591 10.112 479.378 9.824C479.175 9.52533 478.839 9.376 478.37 9.376C477.997 9.376 477.666 9.46667 477.378 9.648C477.101 9.82933 476.786 10.096 476.434 10.448V16H474.818ZM486.301 16.192C485.427 16.192 484.813 15.9413 484.461 15.44C484.109 14.928 483.933 14.2667 483.933 13.456V9.472H482.797V8.256L484.013 8.176L484.205 6.016H485.549V8.176H487.597V9.472H485.549V13.472C485.549 13.9307 485.64 14.2827 485.821 14.528C486.003 14.7733 486.296 14.896 486.701 14.896C486.84 14.896 486.984 14.88 487.133 14.848C487.293 14.8053 487.432 14.7573 487.549 14.704L487.837 15.904C487.624 15.9787 487.384 16.0427 487.117 16.096C486.851 16.16 486.579 16.192 486.301 16.192ZM492.551 16.192C491.836 16.192 491.191 16.032 490.615 15.712C490.049 15.3813 489.596 14.912 489.255 14.304C488.913 13.696 488.743 12.96 488.743 12.096C488.743 11.2533 488.913 10.528 489.255 9.92C489.596 9.30133 490.039 8.82667 490.583 8.496C491.127 8.15467 491.703 7.984 492.311 7.984C492.993 7.984 493.569 8.13867 494.039 8.448C494.519 8.75733 494.881 9.18933 495.127 9.744C495.372 10.2987 495.495 10.944 495.495 11.68C495.495 11.8293 495.484 11.984 495.463 12.144C495.452 12.2933 495.436 12.416 495.415 12.512H490.007L489.991 11.392H494.087C494.087 10.7093 493.937 10.1813 493.639 9.808C493.351 9.43467 492.919 9.248 492.343 9.248C492.001 9.248 491.671 9.344 491.351 9.536C491.031 9.728 490.764 10.0373 490.551 10.464C490.348 10.88 490.247 11.424 490.247 12.096C490.247 12.7467 490.364 13.28 490.599 13.696C490.833 14.112 491.137 14.4213 491.511 14.624C491.895 14.8267 492.311 14.928 492.759 14.928C493.111 14.928 493.436 14.8747 493.735 14.768C494.044 14.6613 494.343 14.5173 494.631 14.336L495.191 15.36C494.828 15.5947 494.423 15.792 493.975 15.952C493.537 16.112 493.063 16.192 492.551 16.192ZM497.318 16V8.176H498.646L498.774 9.584H498.822C499.099 9.08267 499.43 8.69333 499.814 8.416C500.209 8.128 500.619 7.984 501.046 7.984C501.227 7.984 501.387 8 501.526 8.032C501.665 8.05333 501.793 8.09067 501.91 8.144L501.622 9.552C501.483 9.50933 501.355 9.47733 501.238 9.456C501.131 9.43467 500.998 9.424 500.838 9.424C500.518 9.424 500.182 9.552 499.83 9.808C499.478 10.0533 499.179 10.4907 498.934 11.12V16H497.318ZM504.971 16.192C504.523 16.192 504.123 16.1013 503.771 15.92C503.429 15.728 503.157 15.4667 502.955 15.136C502.763 14.7947 502.667 14.3947 502.667 13.936C502.667 13.0933 503.04 12.4427 503.787 11.984C504.533 11.5253 505.723 11.2053 507.355 11.024C507.355 10.7253 507.307 10.4427 507.211 10.176C507.125 9.90933 506.971 9.696 506.747 9.536C506.533 9.376 506.235 9.296 505.851 9.296C505.435 9.296 505.035 9.376 504.651 9.536C504.277 9.696 503.925 9.88267 503.595 10.096L502.987 9.008C503.253 8.83733 503.552 8.67733 503.883 8.528C504.213 8.368 504.565 8.24 504.939 8.144C505.323 8.03733 505.723 7.984 506.139 7.984C506.779 7.984 507.307 8.11733 507.723 8.384C508.149 8.65067 508.464 9.02933 508.667 9.52C508.869 10.0107 508.971 10.6027 508.971 11.296V16H507.643L507.515 15.104H507.467C507.115 15.4027 506.731 15.6587 506.315 15.872C505.899 16.0853 505.451 16.192 504.971 16.192ZM505.467 14.912C505.808 14.912 506.128 14.832 506.427 14.672C506.725 14.512 507.035 14.2827 507.355 13.984V12.048C506.576 12.144 505.957 12.272 505.499 12.432C505.051 12.592 504.725 12.7893 504.523 13.024C504.331 13.2587 504.235 13.52 504.235 13.808C504.235 14.192 504.352 14.4747 504.587 14.656C504.821 14.8267 505.115 14.912 505.467 14.912ZM514.471 16.192C513.767 16.192 513.132 16.032 512.567 15.712C512.012 15.392 511.569 14.928 511.239 14.32C510.908 13.7013 510.743 12.96 510.743 12.096C510.743 11.232 510.924 10.496 511.287 9.888C511.649 9.26933 512.119 8.8 512.695 8.48C513.281 8.14933 513.916 7.984 514.599 7.984C515.1 7.984 515.537 8.07467 515.911 8.256C516.284 8.42667 516.609 8.63467 516.887 8.88L516.087 9.936C515.873 9.73333 515.655 9.57867 515.431 9.472C515.207 9.36533 514.956 9.312 514.679 9.312C514.231 9.312 513.836 9.42933 513.495 9.664C513.153 9.888 512.887 10.2133 512.695 10.64C512.503 11.056 512.407 11.5413 512.407 12.096C512.407 12.6507 512.497 13.136 512.679 13.552C512.871 13.968 513.132 14.2933 513.463 14.528C513.804 14.752 514.193 14.864 514.631 14.864C514.961 14.864 515.271 14.7947 515.559 14.656C515.857 14.5173 516.119 14.3467 516.343 14.144L517.015 15.216C516.652 15.536 516.252 15.7813 515.815 15.952C515.377 16.112 514.929 16.192 514.471 16.192ZM521.254 16.192C520.38 16.192 519.766 15.9413 519.414 15.44C519.062 14.928 518.886 14.2667 518.886 13.456V9.472H517.75V8.256L518.966 8.176L519.158 6.016H520.502V8.176H522.55V9.472H520.502V13.472C520.502 13.9307 520.593 14.2827 520.774 14.528C520.956 14.7733 521.249 14.896 521.654 14.896C521.793 14.896 521.937 14.88 522.086 14.848C522.246 14.8053 522.385 14.7573 522.502 14.704L522.79 15.904C522.577 15.9787 522.337 16.0427 522.07 16.096C521.804 16.16 521.532 16.192 521.254 16.192ZM524.24 16V8.176H525.856V16H524.24ZM525.056 6.704C524.778 6.704 524.544 6.61333 524.352 6.432C524.16 6.24 524.064 6.00533 524.064 5.728C524.064 5.45067 524.16 5.22133 524.352 5.04C524.544 4.85867 524.778 4.768 525.056 4.768C525.344 4.768 525.578 4.85867 525.76 5.04C525.952 5.22133 526.048 5.45067 526.048 5.728C526.048 6.00533 525.952 6.24 525.76 6.432C525.578 6.61333 525.344 6.704 525.056 6.704ZM531.454 16.192C530.803 16.192 530.201 16.032 529.646 15.712C529.091 15.392 528.638 14.928 528.286 14.32C527.945 13.7013 527.774 12.96 527.774 12.096C527.774 11.232 527.945 10.496 528.286 9.888C528.638 9.26933 529.091 8.8 529.646 8.48C530.201 8.14933 530.803 7.984 531.454 7.984C532.094 7.984 532.691 8.14933 533.246 8.48C533.811 8.8 534.265 9.26933 534.606 9.888C534.958 10.496 535.134 11.232 535.134 12.096C535.134 12.96 534.958 13.7013 534.606 14.32C534.265 14.928 533.811 15.392 533.246 15.712C532.691 16.032 532.094 16.192 531.454 16.192ZM531.454 14.864C531.87 14.864 532.227 14.752 532.526 14.528C532.835 14.2933 533.07 13.968 533.23 13.552C533.39 13.136 533.47 12.6507 533.47 12.096C533.47 11.5413 533.39 11.056 533.23 10.64C533.07 10.2133 532.835 9.888 532.526 9.664C532.227 9.42933 531.87 9.312 531.454 9.312C531.038 9.312 530.681 9.42933 530.382 9.664C530.083 9.888 529.849 10.2133 529.678 10.64C529.518 11.056 529.438 11.5413 529.438 12.096C529.438 12.6507 529.518 13.136 529.678 13.552C529.849 13.968 530.083 14.2933 530.382 14.528C530.681 14.752 531.038 14.864 531.454 14.864ZM537.052 16V8.176H538.38L538.508 9.264H538.556C538.919 8.912 539.308 8.61333 539.724 8.368C540.14 8.112 540.615 7.984 541.148 7.984C541.98 7.984 542.588 8.25067 542.972 8.784C543.356 9.31733 543.548 10.08 543.548 11.072V16H541.932V11.28C541.932 10.5973 541.826 10.112 541.612 9.824C541.41 9.52533 541.074 9.376 540.604 9.376C540.231 9.376 539.9 9.46667 539.612 9.648C539.335 9.82933 539.02 10.096 538.668 10.448V16H537.052ZM549.259 16V5.52H551.979C553.045 5.52 553.952 5.71733 554.699 6.112C555.456 6.50667 556.032 7.09333 556.427 7.872C556.821 8.64 557.019 9.58933 557.019 10.72C557.019 11.8507 556.821 12.8107 556.427 13.6C556.032 14.3893 555.467 14.9867 554.731 15.392C553.995 15.7973 553.104 16 552.059 16H549.259ZM550.891 14.672H551.867C552.624 14.672 553.259 14.5227 553.771 14.224C554.283 13.9253 554.672 13.488 554.939 12.912C555.205 12.3253 555.339 11.5947 555.339 10.72C555.339 9.84533 555.205 9.12533 554.939 8.56C554.672 7.984 554.283 7.55733 553.771 7.28C553.259 6.992 552.624 6.848 551.867 6.848H550.891V14.672ZM562.316 16.192C561.602 16.192 560.956 16.032 560.38 15.712C559.815 15.3813 559.362 14.912 559.02 14.304C558.679 13.696 558.508 12.96 558.508 12.096C558.508 11.2533 558.679 10.528 559.02 9.92C559.362 9.30133 559.804 8.82667 560.348 8.496C560.892 8.15467 561.468 7.984 562.076 7.984C562.759 7.984 563.335 8.13867 563.804 8.448C564.284 8.75733 564.647 9.18933 564.892 9.744C565.138 10.2987 565.26 10.944 565.26 11.68C565.26 11.8293 565.25 11.984 565.228 12.144C565.218 12.2933 565.202 12.416 565.18 12.512H559.772L559.756 11.392H563.852C563.852 10.7093 563.703 10.1813 563.404 9.808C563.116 9.43467 562.684 9.248 562.108 9.248C561.767 9.248 561.436 9.344 561.116 9.536C560.796 9.728 560.53 10.0373 560.316 10.464C560.114 10.88 560.012 11.424 560.012 12.096C560.012 12.7467 560.13 13.28 560.364 13.696C560.599 14.112 560.903 14.4213 561.276 14.624C561.66 14.8267 562.076 14.928 562.524 14.928C562.876 14.928 563.202 14.8747 563.5 14.768C563.81 14.6613 564.108 14.5173 564.396 14.336L564.956 15.36C564.594 15.5947 564.188 15.792 563.74 15.952C563.303 16.112 562.828 16.192 562.316 16.192ZM569.212 16.192C568.668 16.192 568.134 16.0907 567.612 15.888C567.1 15.6747 566.652 15.4133 566.268 15.104L567.036 14.064C567.377 14.3307 567.724 14.5493 568.076 14.72C568.438 14.88 568.833 14.96 569.26 14.96C569.729 14.96 570.076 14.8587 570.3 14.656C570.524 14.4533 570.636 14.2027 570.636 13.904C570.636 13.6693 570.55 13.472 570.38 13.312C570.209 13.1413 569.99 12.9973 569.724 12.88C569.468 12.7627 569.196 12.6507 568.908 12.544C568.556 12.4053 568.204 12.2453 567.852 12.064C567.51 11.8827 567.222 11.648 566.988 11.36C566.764 11.072 566.652 10.7093 566.652 10.272C566.652 9.61067 566.897 9.06667 567.388 8.64C567.889 8.20267 568.572 7.984 569.436 7.984C569.958 7.984 570.433 8.07467 570.86 8.256C571.286 8.43733 571.654 8.65067 571.964 8.896L571.212 9.904C570.934 9.70133 570.652 9.536 570.364 9.408C570.086 9.28 569.788 9.216 569.468 9.216C569.03 9.216 568.705 9.312 568.492 9.504C568.289 9.696 568.188 9.92533 568.188 10.192C568.188 10.416 568.268 10.6027 568.428 10.752C568.588 10.8907 568.796 11.0133 569.052 11.12C569.308 11.2267 569.58 11.3333 569.868 11.44C570.23 11.5787 570.588 11.7387 570.94 11.92C571.292 12.1013 571.585 12.3413 571.82 12.64C572.054 12.928 572.172 13.3173 572.172 13.808C572.172 14.2453 572.054 14.6453 571.82 15.008C571.596 15.3707 571.265 15.6587 570.828 15.872C570.39 16.0853 569.852 16.192 569.212 16.192ZM573.896 16V8.176H575.512V16H573.896ZM574.712 6.704C574.435 6.704 574.2 6.61333 574.008 6.432C573.816 6.24 573.72 6.00533 573.72 5.728C573.72 5.45067 573.816 5.22133 574.008 5.04C574.2 4.85867 574.435 4.768 574.712 4.768C575 4.768 575.235 4.85867 575.416 5.04C575.608 5.22133 575.704 5.45067 575.704 5.728C575.704 6.00533 575.608 6.24 575.416 6.432C575.235 6.61333 575 6.704 574.712 6.704ZM580.662 19.52C580.033 19.52 579.473 19.44 578.982 19.28C578.492 19.1307 578.108 18.9013 577.83 18.592C577.553 18.2933 577.414 17.9147 577.414 17.456C577.414 17.1253 577.516 16.8107 577.718 16.512C577.921 16.224 578.198 15.968 578.55 15.744V15.68C578.358 15.5413 578.193 15.3707 578.054 15.168C577.916 14.9547 577.846 14.6933 577.846 14.384C577.846 14.064 577.937 13.7813 578.118 13.536C578.3 13.28 578.497 13.0773 578.71 12.928V12.864C578.454 12.6613 578.22 12.3787 578.006 12.016C577.793 11.6533 577.686 11.2427 577.686 10.784C577.686 10.1973 577.825 9.696 578.102 9.28C578.39 8.864 578.758 8.544 579.206 8.32C579.665 8.096 580.166 7.984 580.71 7.984C580.924 7.984 581.126 8.00533 581.318 8.048C581.521 8.08 581.697 8.12267 581.846 8.176H584.614V9.392H583.11C583.26 9.552 583.382 9.76 583.478 10.016C583.585 10.2613 583.638 10.5333 583.638 10.832C583.638 11.3973 583.505 11.8827 583.238 12.288C582.982 12.6827 582.63 12.9867 582.182 13.2C581.745 13.4133 581.254 13.52 580.71 13.52C580.529 13.52 580.342 13.4987 580.15 13.456C579.969 13.4133 579.788 13.3547 579.606 13.28C579.478 13.3867 579.372 13.504 579.286 13.632C579.212 13.76 579.174 13.92 579.174 14.112C579.174 14.3467 579.27 14.5333 579.462 14.672C579.654 14.8107 579.996 14.88 580.486 14.88H581.926C582.854 14.88 583.553 15.0347 584.022 15.344C584.502 15.6427 584.742 16.1227 584.742 16.784C584.742 17.2853 584.572 17.744 584.23 18.16C583.9 18.576 583.43 18.9067 582.822 19.152C582.214 19.3973 581.494 19.52 580.662 19.52ZM580.902 18.448C581.361 18.448 581.756 18.384 582.086 18.256C582.428 18.128 582.694 17.952 582.886 17.728C583.078 17.5147 583.174 17.2853 583.174 17.04C583.174 16.7093 583.046 16.48 582.79 16.352C582.545 16.2347 582.188 16.176 581.718 16.176H580.518C580.337 16.176 580.156 16.1653 579.974 16.144C579.804 16.1227 579.638 16.096 579.478 16.064C579.233 16.2347 579.057 16.416 578.95 16.608C578.844 16.8107 578.79 17.0133 578.79 17.216C578.79 17.6 578.977 17.8987 579.35 18.112C579.734 18.336 580.252 18.448 580.902 18.448ZM580.71 12.48C580.988 12.48 581.238 12.416 581.462 12.288C581.686 12.1493 581.862 11.952 581.99 11.696C582.129 11.44 582.198 11.136 582.198 10.784C582.198 10.432 582.129 10.1333 581.99 9.888C581.862 9.64267 581.686 9.456 581.462 9.328C581.238 9.18933 580.988 9.12 580.71 9.12C580.294 9.12 579.942 9.264 579.654 9.552C579.366 9.84 579.222 10.2507 579.222 10.784C579.222 11.136 579.286 11.44 579.414 11.696C579.553 11.952 579.734 12.1493 579.958 12.288C580.182 12.416 580.433 12.48 580.71 12.48ZM586.177 16V8.176H587.505L587.633 9.264H587.681C588.044 8.912 588.433 8.61333 588.849 8.368C589.265 8.112 589.74 7.984 590.273 7.984C591.105 7.984 591.713 8.25067 592.097 8.784C592.481 9.31733 592.673 10.08 592.673 11.072V16H591.057V11.28C591.057 10.5973 590.951 10.112 590.737 9.824C590.535 9.52533 590.199 9.376 589.729 9.376C589.356 9.376 589.025 9.46667 588.737 9.648C588.46 9.82933 588.145 10.096 587.793 10.448V16H586.177Z" fill="#002B5B"/>
<path d="M835.936 154L832.64 143.52H834.368L835.936 148.96C836.117 149.568 836.277 150.144 836.416 150.688C836.555 151.221 836.715 151.792 836.896 152.4H836.96C837.141 151.792 837.301 151.221 837.44 150.688C837.589 150.144 837.749 149.568 837.92 148.96L839.472 143.52H841.136L837.856 154H835.936ZM842.341 154V146.176H843.957V154H842.341ZM843.157 144.704C842.88 144.704 842.645 144.613 842.453 144.432C842.261 144.24 842.165 144.005 842.165 143.728C842.165 143.451 842.261 143.221 842.453 143.04C842.645 142.859 842.88 142.768 843.157 142.768C843.445 142.768 843.68 142.859 843.861 143.04C844.053 143.221 844.149 143.451 844.149 143.728C844.149 144.005 844.053 144.24 843.861 144.432C843.68 144.613 843.445 144.704 843.157 144.704ZM848.548 154.192C848.004 154.192 847.47 154.091 846.948 153.888C846.436 153.675 845.988 153.413 845.604 153.104L846.372 152.064C846.713 152.331 847.06 152.549 847.412 152.72C847.774 152.88 848.169 152.96 848.596 152.96C849.065 152.96 849.412 152.859 849.636 152.656C849.86 152.453 849.972 152.203 849.972 151.904C849.972 151.669 849.886 151.472 849.716 151.312C849.545 151.141 849.326 150.997 849.06 150.88C848.804 150.763 848.532 150.651 848.244 150.544C847.892 150.405 847.54 150.245 847.188 150.064C846.846 149.883 846.558 149.648 846.324 149.36C846.1 149.072 845.988 148.709 845.988 148.272C845.988 147.611 846.233 147.067 846.724 146.64C847.225 146.203 847.908 145.984 848.772 145.984C849.294 145.984 849.769 146.075 850.196 146.256C850.622 146.437 850.99 146.651 851.3 146.896L850.548 147.904C850.27 147.701 849.988 147.536 849.7 147.408C849.422 147.28 849.124 147.216 848.804 147.216C848.366 147.216 848.041 147.312 847.828 147.504C847.625 147.696 847.524 147.925 847.524 148.192C847.524 148.416 847.604 148.603 847.764 148.752C847.924 148.891 848.132 149.013 848.388 149.12C848.644 149.227 848.916 149.333 849.204 149.44C849.566 149.579 849.924 149.739 850.276 149.92C850.628 150.101 850.921 150.341 851.156 150.64C851.39 150.928 851.508 151.317 851.508 151.808C851.508 152.245 851.39 152.645 851.156 153.008C850.932 153.371 850.601 153.659 850.164 153.872C849.726 154.085 849.188 154.192 848.548 154.192ZM855.536 154.192C854.715 154.192 854.107 153.925 853.712 153.392C853.328 152.859 853.136 152.096 853.136 151.104V146.176H854.752V150.896C854.752 151.579 854.859 152.069 855.072 152.368C855.285 152.656 855.621 152.8 856.08 152.8C856.443 152.8 856.768 152.709 857.056 152.528C857.344 152.336 857.648 152.032 857.968 151.616V146.176H859.584V154H858.256L858.128 152.816H858.08C857.728 153.232 857.349 153.568 856.944 153.824C856.549 154.069 856.08 154.192 855.536 154.192ZM863.901 154.192C863.453 154.192 863.053 154.101 862.701 153.92C862.359 153.728 862.087 153.467 861.885 153.136C861.693 152.795 861.597 152.395 861.597 151.936C861.597 151.093 861.97 150.443 862.717 149.984C863.463 149.525 864.653 149.205 866.285 149.024C866.285 148.725 866.237 148.443 866.141 148.176C866.055 147.909 865.901 147.696 865.677 147.536C865.463 147.376 865.165 147.296 864.781 147.296C864.365 147.296 863.965 147.376 863.581 147.536C863.207 147.696 862.855 147.883 862.525 148.096L861.917 147.008C862.183 146.837 862.482 146.677 862.812 146.528C863.143 146.368 863.495 146.24 863.869 146.144C864.253 146.037 864.653 145.984 865.069 145.984C865.709 145.984 866.237 146.117 866.653 146.384C867.079 146.651 867.394 147.029 867.597 147.52C867.799 148.011 867.901 148.603 867.901 149.296V154H866.573L866.445 153.104H866.397C866.045 153.403 865.661 153.659 865.245 153.872C864.829 154.085 864.381 154.192 863.901 154.192ZM864.397 152.912C864.738 152.912 865.058 152.832 865.357 152.672C865.655 152.512 865.965 152.283 866.285 151.984V150.048C865.506 150.144 864.887 150.272 864.429 150.432C863.981 150.592 863.655 150.789 863.453 151.024C863.261 151.259 863.164 151.52 863.164 151.808C863.164 152.192 863.282 152.475 863.517 152.656C863.751 152.827 864.045 152.912 864.397 152.912ZM871.832 154.192C871.438 154.192 871.123 154.112 870.888 153.952C870.654 153.792 870.483 153.563 870.376 153.264C870.27 152.965 870.216 152.603 870.216 152.176V142.656H871.832V152.272C871.832 152.485 871.87 152.64 871.944 152.736C872.03 152.821 872.12 152.864 872.216 152.864C872.259 152.864 872.296 152.864 872.328 152.864C872.371 152.853 872.43 152.843 872.504 152.832L872.712 154.048C872.606 154.091 872.483 154.123 872.344 154.144C872.206 154.176 872.035 154.192 871.832 154.192ZM877.782 154V143.52H880.502C881.569 143.52 882.476 143.717 883.222 144.112C883.98 144.507 884.556 145.093 884.95 145.872C885.345 146.64 885.542 147.589 885.542 148.72C885.542 149.851 885.345 150.811 884.95 151.6C884.556 152.389 883.99 152.987 883.254 153.392C882.518 153.797 881.628 154 880.582 154H877.782ZM879.414 152.672H880.39C881.148 152.672 881.782 152.523 882.294 152.224C882.806 151.925 883.196 151.488 883.462 150.912C883.729 150.325 883.862 149.595 883.862 148.72C883.862 147.845 883.729 147.125 883.462 146.56C883.196 145.984 882.806 145.557 882.294 145.28C881.782 144.992 881.148 144.848 880.39 144.848H879.414V152.672ZM890.84 154.192C890.125 154.192 889.48 154.032 888.904 153.712C888.338 153.381 887.885 152.912 887.544 152.304C887.202 151.696 887.032 150.96 887.032 150.096C887.032 149.253 887.202 148.528 887.544 147.92C887.885 147.301 888.328 146.827 888.872 146.496C889.416 146.155 889.992 145.984 890.6 145.984C891.282 145.984 891.858 146.139 892.328 146.448C892.808 146.757 893.17 147.189 893.416 147.744C893.661 148.299 893.784 148.944 893.784 149.68C893.784 149.829 893.773 149.984 893.752 150.144C893.741 150.293 893.725 150.416 893.704 150.512H888.296L888.28 149.392H892.376C892.376 148.709 892.226 148.181 891.928 147.808C891.64 147.435 891.208 147.248 890.632 147.248C890.29 147.248 889.96 147.344 889.64 147.536C889.32 147.728 889.053 148.037 888.84 148.464C888.637 148.88 888.536 149.424 888.536 150.096C888.536 150.747 888.653 151.28 888.888 151.696C889.122 152.112 889.426 152.421 889.8 152.624C890.184 152.827 890.6 152.928 891.048 152.928C891.4 152.928 891.725 152.875 892.024 152.768C892.333 152.661 892.632 152.517 892.92 152.336L893.48 153.36C893.117 153.595 892.712 153.792 892.264 153.952C891.826 154.112 891.352 154.192 890.84 154.192ZM897.735 154.192C897.191 154.192 896.658 154.091 896.135 153.888C895.623 153.675 895.175 153.413 894.791 153.104L895.559 152.064C895.9 152.331 896.247 152.549 896.599 152.72C896.962 152.88 897.356 152.96 897.783 152.96C898.252 152.96 898.599 152.859 898.823 152.656C899.047 152.453 899.159 152.203 899.159 151.904C899.159 151.669 899.074 151.472 898.903 151.312C898.732 151.141 898.514 150.997 898.247 150.88C897.991 150.763 897.719 150.651 897.431 150.544C897.079 150.405 896.727 150.245 896.375 150.064C896.034 149.883 895.746 149.648 895.511 149.36C895.287 149.072 895.175 148.709 895.175 148.272C895.175 147.611 895.42 147.067 895.911 146.64C896.412 146.203 897.095 145.984 897.959 145.984C898.482 145.984 898.956 146.075 899.383 146.256C899.81 146.437 900.178 146.651 900.487 146.896L899.735 147.904C899.458 147.701 899.175 147.536 898.887 147.408C898.61 147.28 898.311 147.216 897.991 147.216C897.554 147.216 897.228 147.312 897.015 147.504C896.812 147.696 896.711 147.925 896.711 148.192C896.711 148.416 896.791 148.603 896.951 148.752C897.111 148.891 897.319 149.013 897.575 149.12C897.831 149.227 898.103 149.333 898.391 149.44C898.754 149.579 899.111 149.739 899.463 149.92C899.815 150.101 900.108 150.341 900.343 150.64C900.578 150.928 900.695 151.317 900.695 151.808C900.695 152.245 900.578 152.645 900.343 153.008C900.119 153.371 899.788 153.659 899.351 153.872C898.914 154.085 898.375 154.192 897.735 154.192ZM902.42 154V146.176H904.036V154H902.42ZM903.236 144.704C902.958 144.704 902.724 144.613 902.532 144.432C902.34 144.24 902.243 144.005 902.243 143.728C902.243 143.451 902.34 143.221 902.532 143.04C902.724 142.859 902.958 142.768 903.236 142.768C903.524 142.768 903.758 142.859 903.94 143.04C904.132 143.221 904.228 143.451 904.228 143.728C904.228 144.005 904.132 144.24 903.94 144.432C903.758 144.613 903.524 144.704 903.236 144.704ZM909.186 157.52C908.556 157.52 907.996 157.44 907.506 157.28C907.015 157.131 906.631 156.901 906.354 156.592C906.076 156.293 905.938 155.915 905.938 155.456C905.938 155.125 906.039 154.811 906.242 154.512C906.444 154.224 906.722 153.968 907.074 153.744V153.68C906.882 153.541 906.716 153.371 906.578 153.168C906.439 152.955 906.37 152.693 906.37 152.384C906.37 152.064 906.46 151.781 906.642 151.536C906.823 151.28 907.02 151.077 907.234 150.928V150.864C906.978 150.661 906.743 150.379 906.53 150.016C906.316 149.653 906.21 149.243 906.21 148.784C906.21 148.197 906.348 147.696 906.626 147.28C906.914 146.864 907.282 146.544 907.73 146.32C908.188 146.096 908.69 145.984 909.234 145.984C909.447 145.984 909.65 146.005 909.842 146.048C910.044 146.08 910.22 146.123 910.37 146.176H913.138V147.392H911.634C911.783 147.552 911.906 147.76 912.002 148.016C912.108 148.261 912.162 148.533 912.162 148.832C912.162 149.397 912.028 149.883 911.762 150.288C911.506 150.683 911.154 150.987 910.706 151.2C910.268 151.413 909.778 151.52 909.234 151.52C909.052 151.52 908.866 151.499 908.674 151.456C908.492 151.413 908.311 151.355 908.13 151.28C908.002 151.387 907.895 151.504 907.81 151.632C907.735 151.76 907.698 151.92 907.698 152.112C907.698 152.347 907.794 152.533 907.986 152.672C908.178 152.811 908.519 152.88 909.01 152.88H910.45C911.378 152.88 912.076 153.035 912.546 153.344C913.026 153.643 913.266 154.123 913.266 154.784C913.266 155.285 913.095 155.744 912.754 156.16C912.423 156.576 911.954 156.907 911.346 157.152C910.738 157.397 910.018 157.52 909.186 157.52ZM909.426 156.448C909.884 156.448 910.279 156.384 910.61 156.256C910.951 156.128 911.218 155.952 911.41 155.728C911.602 155.515 911.698 155.285 911.698 155.04C911.698 154.709 911.57 154.48 911.314 154.352C911.068 154.235 910.711 154.176 910.242 154.176H909.042C908.86 154.176 908.679 154.165 908.498 154.144C908.327 154.123 908.162 154.096 908.002 154.064C907.756 154.235 907.58 154.416 907.474 154.608C907.367 154.811 907.314 155.013 907.314 155.216C907.314 155.6 907.5 155.899 907.874 156.112C908.258 156.336 908.775 156.448 909.426 156.448ZM909.234 150.48C909.511 150.48 909.762 150.416 909.986 150.288C910.21 150.149 910.386 149.952 910.514 149.696C910.652 149.44 910.722 149.136 910.722 148.784C910.722 148.432 910.652 148.133 910.514 147.888C910.386 147.643 910.21 147.456 909.986 147.328C909.762 147.189 909.511 147.12 909.234 147.12C908.818 147.12 908.466 147.264 908.178 147.552C907.89 147.84 907.746 148.251 907.746 148.784C907.746 149.136 907.81 149.44 907.938 149.696C908.076 149.952 908.258 150.149 908.482 150.288C908.706 150.416 908.956 150.48 909.234 150.48ZM914.701 154V146.176H916.029L916.157 147.264H916.205C916.567 146.912 916.957 146.613 917.373 146.368C917.789 146.112 918.263 145.984 918.797 145.984C919.629 145.984 920.237 146.251 920.621 146.784C921.005 147.317 921.197 148.08 921.197 149.072V154H919.581V149.28C919.581 148.597 919.474 148.112 919.261 147.824C919.058 147.525 918.722 147.376 918.253 147.376C917.879 147.376 917.549 147.467 917.261 147.648C916.983 147.829 916.669 148.096 916.317 148.448V154H914.701Z" fill="#002B5B"/>
<path d="M947.419 434.192C946.843 434.192 946.315 434.107 945.835 433.936C945.366 433.765 944.955 433.499 944.603 433.136C944.262 432.773 943.995 432.293 943.803 431.696C943.622 431.099 943.531 430.373 943.531 429.52V423.52H945.163V429.616C945.163 430.416 945.259 431.045 945.451 431.504C945.643 431.963 945.91 432.288 946.251 432.48C946.592 432.672 946.982 432.768 947.419 432.768C947.856 432.768 948.251 432.672 948.603 432.48C948.955 432.288 949.227 431.963 949.419 431.504C949.622 431.045 949.723 430.416 949.723 429.616V423.52H951.291V429.52C951.291 430.373 951.195 431.099 951.003 431.696C950.822 432.293 950.56 432.773 950.219 433.136C949.878 433.499 949.467 433.765 948.987 433.936C948.518 434.107 947.995 434.192 947.419 434.192ZM955.985 434.192C955.441 434.192 954.908 434.091 954.385 433.888C953.873 433.675 953.425 433.413 953.041 433.104L953.809 432.064C954.15 432.331 954.497 432.549 954.849 432.72C955.212 432.88 955.606 432.96 956.033 432.96C956.502 432.96 956.849 432.859 957.073 432.656C957.297 432.453 957.409 432.203 957.409 431.904C957.409 431.669 957.324 431.472 957.153 431.312C956.982 431.141 956.764 430.997 956.497 430.88C956.241 430.763 955.969 430.651 955.681 430.544C955.329 430.405 954.977 430.245 954.625 430.064C954.284 429.883 953.996 429.648 953.761 429.36C953.537 429.072 953.425 428.709 953.425 428.272C953.425 427.611 953.67 427.067 954.161 426.64C954.662 426.203 955.345 425.984 956.209 425.984C956.732 425.984 957.206 426.075 957.633 426.256C958.06 426.437 958.428 426.651 958.737 426.896L957.985 427.904C957.708 427.701 957.425 427.536 957.137 427.408C956.86 427.28 956.561 427.216 956.241 427.216C955.804 427.216 955.478 427.312 955.265 427.504C955.062 427.696 954.961 427.925 954.961 428.192C954.961 428.416 955.041 428.603 955.201 428.752C955.361 428.891 955.569 429.013 955.825 429.12C956.081 429.227 956.353 429.333 956.641 429.44C957.004 429.579 957.361 429.739 957.713 429.92C958.065 430.101 958.358 430.341 958.593 430.64C958.828 430.928 958.945 431.317 958.945 431.808C958.945 432.245 958.828 432.645 958.593 433.008C958.369 433.371 958.038 433.659 957.601 433.872C957.164 434.085 956.625 434.192 955.985 434.192ZM963.934 434.192C963.219 434.192 962.574 434.032 961.998 433.712C961.432 433.381 960.979 432.912 960.638 432.304C960.296 431.696 960.126 430.96 960.126 430.096C960.126 429.253 960.296 428.528 960.638 427.92C960.979 427.301 961.422 426.827 961.966 426.496C962.51 426.155 963.086 425.984 963.694 425.984C964.376 425.984 964.952 426.139 965.422 426.448C965.902 426.757 966.264 427.189 966.51 427.744C966.755 428.299 966.878 428.944 966.878 429.68C966.878 429.829 966.867 429.984 966.846 430.144C966.835 430.293 966.819 430.416 966.798 430.512H961.39L961.374 429.392H965.47C965.47 428.709 965.32 428.181 965.022 427.808C964.734 427.435 964.302 427.248 963.726 427.248C963.384 427.248 963.054 427.344 962.734 427.536C962.414 427.728 962.147 428.037 961.934 428.464C961.731 428.88 961.63 429.424 961.63 430.096C961.63 430.747 961.747 431.28 961.982 431.696C962.216 432.112 962.52 432.421 962.894 432.624C963.278 432.827 963.694 432.928 964.141 432.928C964.494 432.928 964.819 432.875 965.118 432.768C965.427 432.661 965.726 432.517 966.014 432.336L966.574 433.36C966.211 433.595 965.806 433.792 965.358 433.952C964.92 434.112 964.446 434.192 963.934 434.192ZM968.701 434V426.176H970.029L970.157 427.584H970.205C970.482 427.083 970.813 426.693 971.197 426.416C971.591 426.128 972.002 425.984 972.429 425.984C972.61 425.984 972.77 426 972.909 426.032C973.047 426.053 973.175 426.091 973.293 426.144L973.005 427.552C972.866 427.509 972.738 427.477 972.621 427.456C972.514 427.435 972.381 427.424 972.221 427.424C971.901 427.424 971.565 427.552 971.213 427.808C970.861 428.053 970.562 428.491 970.317 429.12V434H968.701ZM977.845 434V423.52H981.269C981.983 423.52 982.623 423.616 983.189 423.808C983.765 423.989 984.218 424.304 984.549 424.752C984.879 425.2 985.045 425.803 985.045 426.56C985.045 427.285 984.879 427.883 984.549 428.352C984.218 428.821 983.765 429.173 983.189 429.408C982.623 429.643 981.983 429.76 981.269 429.76H979.477V434H977.845ZM983.573 434L980.949 429.312L982.165 428.4L985.413 434H983.573ZM979.477 428.448H981.077C981.845 428.448 982.426 428.293 982.821 427.984C983.226 427.664 983.429 427.189 983.429 426.56C983.429 425.92 983.226 425.472 982.821 425.216C982.426 424.96 981.845 424.832 981.077 424.832H979.477V428.448ZM990.277 434.192C989.563 434.192 988.917 434.032 988.341 433.712C987.776 433.381 987.323 432.912 986.981 432.304C986.64 431.696 986.469 430.96 986.469 430.096C986.469 429.253 986.64 428.528 986.981 427.92C987.323 427.301 987.765 426.827 988.309 426.496C988.853 426.155 989.429 425.984 990.037 425.984C990.72 425.984 991.296 426.139 991.765 426.448C992.245 426.757 992.608 427.189 992.853 427.744C993.099 428.299 993.221 428.944 993.221 429.68C993.221 429.829 993.211 429.984 993.189 430.144C993.179 430.293 993.163 430.416 993.141 430.512H987.733L987.717 429.392H991.813C991.813 428.709 991.664 428.181 991.365 427.808C991.077 427.435 990.645 427.248 990.069 427.248C989.728 427.248 989.397 427.344 989.077 427.536C988.757 427.728 988.491 428.037 988.277 428.464C988.075 428.88 987.973 429.424 987.973 430.096C987.973 430.747 988.091 431.28 988.325 431.696C988.56 432.112 988.864 432.421 989.237 432.624C989.621 432.827 990.037 432.928 990.485 432.928C990.837 432.928 991.163 432.875 991.461 432.768C991.771 432.661 992.069 432.517 992.357 432.336L992.917 433.36C992.555 433.595 992.149 433.792 991.701 433.952C991.264 434.112 990.789 434.192 990.277 434.192ZM997.173 434.192C996.629 434.192 996.095 434.091 995.573 433.888C995.061 433.675 994.613 433.413 994.229 433.104L994.997 432.064C995.338 432.331 995.685 432.549 996.037 432.72C996.399 432.88 996.794 432.96 997.221 432.96C997.69 432.96 998.037 432.859 998.261 432.656C998.485 432.453 998.597 432.203 998.597 431.904C998.597 431.669 998.511 431.472 998.341 431.312C998.17 431.141 997.951 430.997 997.685 430.88C997.429 430.763 997.157 430.651 996.869 430.544C996.517 430.405 996.165 430.245 995.812 430.064C995.471 429.883 995.183 429.648 994.949 429.36C994.725 429.072 994.613 428.709 994.613 428.272C994.613 427.611 994.858 427.067 995.349 426.64C995.85 426.203 996.533 425.984 997.397 425.984C997.919 425.984 998.394 426.075 998.821 426.256C999.247 426.437 999.615 426.651 999.925 426.896L999.173 427.904C998.895 427.701 998.613 427.536 998.325 427.408C998.047 427.28 997.749 427.216 997.429 427.216C996.991 427.216 996.666 427.312 996.453 427.504C996.25 427.696 996.149 427.925 996.149 428.192C996.149 428.416 996.229 428.603 996.389 428.752C996.549 428.891 996.757 429.013 997.013 429.12C997.269 429.227 997.541 429.333 997.829 429.44C998.191 429.579 998.549 429.739 998.901 429.92C999.253 430.101 999.546 430.341 999.781 430.64C1000.02 430.928 1000.13 431.317 1000.13 431.808C1000.13 432.245 1000.02 432.645 999.781 433.008C999.557 433.371 999.226 433.659 998.789 433.872C998.351 434.085 997.813 434.192 997.173 434.192ZM1005.12 434.192C1004.41 434.192 1003.76 434.032 1003.19 433.712C1002.62 433.381 1002.17 432.912 1001.83 432.304C1001.48 431.696 1001.31 430.96 1001.31 430.096C1001.31 429.253 1001.48 428.528 1001.83 427.92C1002.17 427.301 1002.61 426.827 1003.15 426.496C1003.7 426.155 1004.27 425.984 1004.88 425.984C1005.56 425.984 1006.14 426.139 1006.61 426.448C1007.09 426.757 1007.45 427.189 1007.7 427.744C1007.94 428.299 1008.07 428.944 1008.07 429.68C1008.07 429.829 1008.05 429.984 1008.03 430.144C1008.02 430.293 1008.01 430.416 1007.99 430.512H1002.58L1002.56 429.392H1006.66C1006.66 428.709 1006.51 428.181 1006.21 427.808C1005.92 427.435 1005.49 427.248 1004.91 427.248C1004.57 427.248 1004.24 427.344 1003.92 427.536C1003.6 427.728 1003.33 428.037 1003.12 428.464C1002.92 428.88 1002.82 429.424 1002.82 430.096C1002.82 430.747 1002.93 431.28 1003.17 431.696C1003.4 432.112 1003.71 432.421 1004.08 432.624C1004.47 432.827 1004.88 432.928 1005.33 432.928C1005.68 432.928 1006.01 432.875 1006.31 432.768C1006.61 432.661 1006.91 432.517 1007.2 432.336L1007.76 433.36C1007.4 433.595 1006.99 433.792 1006.55 433.952C1006.11 434.112 1005.63 434.192 1005.12 434.192ZM1011.74 434.192C1011.3 434.192 1010.9 434.101 1010.54 433.92C1010.2 433.728 1009.93 433.467 1009.73 433.136C1009.54 432.795 1009.44 432.395 1009.44 431.936C1009.44 431.093 1009.81 430.443 1010.56 429.984C1011.31 429.525 1012.5 429.205 1014.13 429.024C1014.13 428.725 1014.08 428.443 1013.98 428.176C1013.9 427.909 1013.74 427.696 1013.52 427.536C1013.31 427.376 1013.01 427.296 1012.62 427.296C1012.21 427.296 1011.81 427.376 1011.42 427.536C1011.05 427.696 1010.7 427.883 1010.37 428.096L1009.76 427.008C1010.03 426.837 1010.33 426.677 1010.66 426.528C1010.99 426.368 1011.34 426.24 1011.71 426.144C1012.1 426.037 1012.5 425.984 1012.91 425.984C1013.55 425.984 1014.08 426.117 1014.5 426.384C1014.92 426.651 1015.24 427.029 1015.44 427.52C1015.64 428.011 1015.74 428.603 1015.74 429.296V434H1014.42L1014.29 433.104H1014.24C1013.89 433.403 1013.5 433.659 1013.09 433.872C1012.67 434.085 1012.22 434.192 1011.74 434.192ZM1012.24 432.912C1012.58 432.912 1012.9 432.832 1013.2 432.672C1013.5 432.512 1013.81 432.283 1014.13 431.984V430.048C1013.35 430.144 1012.73 430.272 1012.27 430.432C1011.82 430.592 1011.5 430.789 1011.3 431.024C1011.1 431.259 1011.01 431.52 1011.01 431.808C1011.01 432.192 1011.13 432.475 1011.36 432.656C1011.59 432.827 1011.89 432.912 1012.24 432.912ZM1018.06 434V426.176H1019.39L1019.52 427.584H1019.56C1019.84 427.083 1020.17 426.693 1020.56 426.416C1020.95 426.128 1021.36 425.984 1021.79 425.984C1021.97 425.984 1022.13 426 1022.27 426.032C1022.41 426.053 1022.53 426.091 1022.65 426.144L1022.36 427.552C1022.23 427.509 1022.1 427.477 1021.98 427.456C1021.87 427.435 1021.74 427.424 1021.58 427.424C1021.26 427.424 1020.92 427.552 1020.57 427.808C1020.22 428.053 1019.92 428.491 1019.68 429.12V434H1018.06ZM1027.04 434.192C1026.34 434.192 1025.7 434.032 1025.14 433.712C1024.58 433.392 1024.14 432.928 1023.81 432.32C1023.48 431.701 1023.31 430.96 1023.31 430.096C1023.31 429.232 1023.49 428.496 1023.86 427.888C1024.22 427.269 1024.69 426.8 1025.27 426.48C1025.85 426.149 1026.49 425.984 1027.17 425.984C1027.67 425.984 1028.11 426.075 1028.48 426.256C1028.85 426.427 1029.18 426.635 1029.46 426.88L1028.66 427.936C1028.44 427.733 1028.23 427.579 1028 427.472C1027.78 427.365 1027.53 427.312 1027.25 427.312C1026.8 427.312 1026.41 427.429 1026.07 427.664C1025.72 427.888 1025.46 428.213 1025.27 428.64C1025.07 429.056 1024.98 429.541 1024.98 430.096C1024.98 430.651 1025.07 431.136 1025.25 431.552C1025.44 431.968 1025.7 432.293 1026.03 432.528C1026.37 432.752 1026.76 432.864 1027.2 432.864C1027.53 432.864 1027.84 432.795 1028.13 432.656C1028.43 432.517 1028.69 432.347 1028.91 432.144L1029.59 433.216C1029.22 433.536 1028.82 433.781 1028.39 433.952C1027.95 434.112 1027.5 434.192 1027.04 434.192ZM1031.2 434V422.656H1032.82V425.664L1032.75 427.216C1033.09 426.885 1033.47 426.597 1033.87 426.352C1034.29 426.107 1034.76 425.984 1035.3 425.984C1036.13 425.984 1036.74 426.251 1037.12 426.784C1037.5 427.317 1037.7 428.08 1037.7 429.072V434H1036.08V429.28C1036.08 428.597 1035.97 428.112 1035.76 427.824C1035.56 427.525 1035.22 427.376 1034.75 427.376C1034.38 427.376 1034.05 427.467 1033.76 427.648C1033.48 427.829 1033.17 428.096 1032.82 428.448V434H1031.2Z" fill="#002B5B"/>
<path d="M843.579 721V710.52H849.787V711.896H845.211V715.112H849.099V716.488H845.211V721H843.579ZM851.482 721V713.176H852.81L852.938 714.584H852.986C853.263 714.083 853.594 713.693 853.978 713.416C854.373 713.128 854.783 712.984 855.21 712.984C855.391 712.984 855.551 713 855.69 713.032C855.829 713.053 855.957 713.091 856.074 713.144L855.786 714.552C855.647 714.509 855.519 714.477 855.402 714.456C855.295 714.435 855.162 714.424 855.002 714.424C854.682 714.424 854.346 714.552 853.994 714.808C853.642 715.053 853.343 715.491 853.098 716.12V721H851.482ZM860.415 721.192C859.764 721.192 859.162 721.032 858.607 720.712C858.052 720.392 857.599 719.928 857.247 719.32C856.906 718.701 856.735 717.96 856.735 717.096C856.735 716.232 856.906 715.496 857.247 714.888C857.599 714.269 858.052 713.8 858.607 713.48C859.162 713.149 859.764 712.984 860.415 712.984C861.055 712.984 861.652 713.149 862.207 713.48C862.772 713.8 863.226 714.269 863.567 714.888C863.919 715.496 864.095 716.232 864.095 717.096C864.095 717.96 863.919 718.701 863.567 719.32C863.226 719.928 862.772 720.392 862.207 720.712C861.652 721.032 861.055 721.192 860.415 721.192ZM860.415 719.864C860.831 719.864 861.188 719.752 861.487 719.528C861.796 719.293 862.031 718.968 862.191 718.552C862.351 718.136 862.431 717.651 862.431 717.096C862.431 716.541 862.351 716.056 862.191 715.64C862.031 715.213 861.796 714.888 861.487 714.664C861.188 714.429 860.831 714.312 860.415 714.312C859.999 714.312 859.642 714.429 859.343 714.664C859.044 714.888 858.81 715.213 858.639 715.64C858.479 716.056 858.399 716.541 858.399 717.096C858.399 717.651 858.479 718.136 858.639 718.552C858.81 718.968 859.044 719.293 859.343 719.528C859.642 719.752 859.999 719.864 860.415 719.864ZM866.013 721V713.176H867.341L867.469 714.264H867.517C867.88 713.912 868.269 713.613 868.685 713.368C869.101 713.112 869.576 712.984 870.109 712.984C870.941 712.984 871.549 713.251 871.933 713.784C872.317 714.317 872.509 715.08 872.509 716.072V721H870.893V716.28C870.893 715.597 870.787 715.112 870.573 714.824C870.371 714.525 870.035 714.376 869.565 714.376C869.192 714.376 868.861 714.467 868.573 714.648C868.296 714.829 867.981 715.096 867.629 715.448V721H866.013ZM877.497 721.192C876.622 721.192 876.009 720.941 875.657 720.44C875.305 719.928 875.129 719.267 875.129 718.456V714.472H873.993V713.256L875.209 713.176L875.401 711.016H876.745V713.176H878.793V714.472H876.745V718.472C876.745 718.931 876.835 719.283 877.017 719.528C877.198 719.773 877.491 719.896 877.897 719.896C878.035 719.896 878.179 719.88 878.329 719.848C878.489 719.805 878.627 719.757 878.745 719.704L879.033 720.904C878.819 720.979 878.579 721.043 878.313 721.096C878.046 721.16 877.774 721.192 877.497 721.192ZM883.829 721V710.52H890.021V711.896H885.461V714.84H889.317V716.216H885.461V719.624H890.181V721H883.829ZM892.216 721V713.176H893.544L893.672 714.264H893.72C894.083 713.912 894.472 713.613 894.888 713.368C895.304 713.112 895.779 712.984 896.312 712.984C897.144 712.984 897.752 713.251 898.136 713.784C898.52 714.317 898.712 715.08 898.712 716.072V721H897.096V716.28C897.096 715.597 896.99 715.112 896.776 714.824C896.574 714.525 896.238 714.376 895.768 714.376C895.395 714.376 895.064 714.467 894.776 714.648C894.499 714.829 894.184 715.096 893.832 715.448V721H892.216ZM903.78 721.192C902.809 721.192 902.03 720.835 901.444 720.12C900.857 719.395 900.564 718.387 900.564 717.096C900.564 716.253 900.718 715.528 901.028 714.92C901.348 714.301 901.764 713.827 902.276 713.496C902.788 713.155 903.332 712.984 903.908 712.984C904.366 712.984 904.756 713.064 905.076 713.224C905.396 713.373 905.71 713.587 906.02 713.864L905.956 712.568V709.656H907.572V721H906.244L906.116 720.12H906.068C905.78 720.408 905.438 720.659 905.044 720.872C904.649 721.085 904.228 721.192 903.78 721.192ZM904.164 719.848C904.494 719.848 904.804 719.773 905.092 719.624C905.39 719.464 905.678 719.219 905.956 718.888V715.048C905.668 714.781 905.38 714.595 905.092 714.488C904.814 714.381 904.526 714.328 904.228 714.328C903.854 714.328 903.518 714.44 903.22 714.664C902.921 714.877 902.681 715.192 902.5 715.608C902.318 716.024 902.228 716.515 902.228 717.08C902.228 717.965 902.393 718.648 902.724 719.128C903.065 719.608 903.545 719.848 904.164 719.848Z" fill="#002B5B"/>
<path d="M448.462 855V844.52H450.094V855H448.462ZM452.709 855V847.176H454.037L454.165 848.264H454.213C454.575 847.912 454.965 847.613 455.381 847.368C455.797 847.112 456.271 846.984 456.805 846.984C457.637 846.984 458.245 847.251 458.629 847.784C459.013 848.317 459.205 849.08 459.205 850.072V855H457.589V850.28C457.589 849.597 457.482 849.112 457.269 848.824C457.066 848.525 456.73 848.376 456.261 848.376C455.887 848.376 455.557 848.467 455.269 848.648C454.991 848.829 454.677 849.096 454.325 849.448V855H452.709ZM461.84 855V846.184C461.84 845.64 461.925 845.165 462.096 844.76C462.267 844.355 462.533 844.04 462.896 843.816C463.259 843.581 463.728 843.464 464.304 843.464C464.571 843.464 464.821 843.491 465.056 843.544C465.301 843.597 465.509 843.661 465.68 843.736L465.36 844.952C465.211 844.877 465.061 844.829 464.912 844.808C464.773 844.776 464.635 844.76 464.496 844.76C464.155 844.76 463.893 844.877 463.712 845.112C463.541 845.336 463.456 845.688 463.456 846.168V855H461.84ZM460.784 848.472V847.256L461.92 847.176H465.04V848.472H460.784ZM469.595 855.192C468.944 855.192 468.341 855.032 467.787 854.712C467.232 854.392 466.779 853.928 466.427 853.32C466.085 852.701 465.915 851.96 465.915 851.096C465.915 850.232 466.085 849.496 466.427 848.888C466.779 848.269 467.232 847.8 467.787 847.48C468.341 847.149 468.944 846.984 469.595 846.984C470.235 846.984 470.832 847.149 471.387 847.48C471.952 847.8 472.405 848.269 472.747 848.888C473.099 849.496 473.275 850.232 473.275 851.096C473.275 851.96 473.099 852.701 472.747 853.32C472.405 853.928 471.952 854.392 471.387 854.712C470.832 855.032 470.235 855.192 469.595 855.192ZM469.595 853.864C470.011 853.864 470.368 853.752 470.667 853.528C470.976 853.293 471.211 852.968 471.371 852.552C471.531 852.136 471.611 851.651 471.611 851.096C471.611 850.541 471.531 850.056 471.371 849.64C471.211 849.213 470.976 848.888 470.667 848.664C470.368 848.429 470.011 848.312 469.595 848.312C469.179 848.312 468.821 848.429 468.523 848.664C468.224 848.888 467.989 849.213 467.819 849.64C467.659 850.056 467.579 850.541 467.579 851.096C467.579 851.651 467.659 852.136 467.819 852.552C467.989 852.968 468.224 853.293 468.523 853.528C468.821 853.752 469.179 853.864 469.595 853.864ZM475.193 855V847.176H476.521L476.649 848.584H476.697C476.974 848.083 477.305 847.693 477.689 847.416C478.084 847.128 478.494 846.984 478.921 846.984C479.102 846.984 479.262 847 479.401 847.032C479.54 847.053 479.668 847.091 479.785 847.144L479.497 848.552C479.358 848.509 479.23 848.477 479.113 848.456C479.006 848.435 478.873 848.424 478.713 848.424C478.393 848.424 478.057 848.552 477.705 848.808C477.353 849.053 477.054 849.491 476.809 850.12V855H475.193ZM480.99 855V847.176H482.318L482.446 848.28H482.494C482.824 847.917 483.187 847.613 483.582 847.368C483.987 847.112 484.43 846.984 484.91 846.984C485.496 846.984 485.96 847.112 486.302 847.368C486.643 847.624 486.899 847.976 487.07 848.424C487.454 848.008 487.848 847.667 488.254 847.4C488.67 847.123 489.123 846.984 489.614 846.984C490.435 846.984 491.038 847.251 491.422 847.784C491.816 848.317 492.014 849.08 492.014 850.072V855H490.398V850.28C490.398 849.597 490.291 849.112 490.078 848.824C489.875 848.525 489.544 848.376 489.086 848.376C488.808 848.376 488.526 848.467 488.238 848.648C487.95 848.819 487.64 849.085 487.31 849.448V855H485.694V850.28C485.694 849.597 485.587 849.112 485.374 848.824C485.171 848.525 484.84 848.376 484.382 848.376C483.848 848.376 483.256 848.733 482.606 849.448V855H480.99ZM496.236 855.192C495.788 855.192 495.388 855.101 495.036 854.92C494.695 854.728 494.423 854.467 494.22 854.136C494.028 853.795 493.932 853.395 493.932 852.936C493.932 852.093 494.306 851.443 495.052 850.984C495.799 850.525 496.988 850.205 498.62 850.024C498.62 849.725 498.572 849.443 498.476 849.176C498.391 848.909 498.236 848.696 498.012 848.536C497.799 848.376 497.5 848.296 497.116 848.296C496.7 848.296 496.3 848.376 495.916 848.536C495.543 848.696 495.191 848.883 494.86 849.096L494.252 848.008C494.519 847.837 494.818 847.677 495.148 847.528C495.479 847.368 495.831 847.24 496.204 847.144C496.588 847.037 496.988 846.984 497.404 846.984C498.044 846.984 498.572 847.117 498.988 847.384C499.415 847.651 499.73 848.029 499.932 848.52C500.135 849.011 500.236 849.603 500.236 850.296V855H498.908L498.78 854.104H498.732C498.38 854.403 497.996 854.659 497.58 854.872C497.164 855.085 496.716 855.192 496.236 855.192ZM496.732 853.912C497.074 853.912 497.394 853.832 497.692 853.672C497.991 853.512 498.3 853.283 498.62 852.984V851.048C497.842 851.144 497.223 851.272 496.764 851.432C496.316 851.592 495.991 851.789 495.788 852.024C495.596 852.259 495.5 852.52 495.5 852.808C495.5 853.192 495.618 853.475 495.852 853.656C496.087 853.827 496.38 853.912 496.732 853.912ZM505.176 855.192C504.302 855.192 503.688 854.941 503.336 854.44C502.984 853.928 502.808 853.267 502.808 852.456V848.472H501.672V847.256L502.888 847.176L503.08 845.016H504.424V847.176H506.472V848.472H504.424V852.472C504.424 852.931 504.515 853.283 504.696 853.528C504.878 853.773 505.171 853.896 505.576 853.896C505.715 853.896 505.859 853.88 506.008 853.848C506.168 853.805 506.307 853.757 506.424 853.704L506.712 854.904C506.499 854.979 506.259 855.043 505.992 855.096C505.726 855.16 505.454 855.192 505.176 855.192ZM508.162 855V847.176H509.778V855H508.162ZM508.978 845.704C508.7 845.704 508.466 845.613 508.274 845.432C508.082 845.24 507.986 845.005 507.986 844.728C507.986 844.451 508.082 844.221 508.274 844.04C508.466 843.859 508.7 843.768 508.978 843.768C509.266 843.768 509.5 843.859 509.682 844.04C509.874 844.221 509.97 844.451 509.97 844.728C509.97 845.005 509.874 845.24 509.682 845.432C509.5 845.613 509.266 845.704 508.978 845.704ZM515.376 855.192C514.725 855.192 514.122 855.032 513.568 854.712C513.013 854.392 512.56 853.928 512.208 853.32C511.866 852.701 511.696 851.96 511.696 851.096C511.696 850.232 511.866 849.496 512.208 848.888C512.56 848.269 513.013 847.8 513.568 847.48C514.122 847.149 514.725 846.984 515.376 846.984C516.016 846.984 516.613 847.149 517.168 847.48C517.733 847.8 518.186 848.269 518.528 848.888C518.88 849.496 519.056 850.232 519.056 851.096C519.056 851.96 518.88 852.701 518.528 853.32C518.186 853.928 517.733 854.392 517.168 854.712C516.613 855.032 516.016 855.192 515.376 855.192ZM515.376 853.864C515.792 853.864 516.149 853.752 516.448 853.528C516.757 853.293 516.992 852.968 517.152 852.552C517.312 852.136 517.392 851.651 517.392 851.096C517.392 850.541 517.312 850.056 517.152 849.64C516.992 849.213 516.757 848.888 516.448 848.664C516.149 848.429 515.792 848.312 515.376 848.312C514.96 848.312 514.602 848.429 514.304 848.664C514.005 848.888 513.77 849.213 513.6 849.64C513.44 850.056 513.36 850.541 513.36 851.096C513.36 851.651 513.44 852.136 513.6 852.552C513.77 852.968 514.005 853.293 514.304 853.528C514.602 853.752 514.96 853.864 515.376 853.864ZM520.974 855V847.176H522.302L522.43 848.264H522.478C522.841 847.912 523.23 847.613 523.646 847.368C524.062 847.112 524.537 846.984 525.07 846.984C525.902 846.984 526.51 847.251 526.894 847.784C527.278 848.317 527.47 849.08 527.47 850.072V855H525.854V850.28C525.854 849.597 525.748 849.112 525.534 848.824C525.332 848.525 524.996 848.376 524.526 848.376C524.153 848.376 523.822 848.467 523.534 848.648C523.257 848.829 522.942 849.096 522.59 849.448V855H520.974ZM531.805 855L535.277 844.52H537.165L540.637 855H538.909L537.213 849.304C537.031 848.728 536.861 848.152 536.701 847.576C536.541 846.989 536.381 846.403 536.221 845.816H536.157C536.007 846.403 535.847 846.989 535.677 847.576C535.517 848.152 535.351 848.728 535.181 849.304L533.469 855H531.805ZM533.757 852.008V850.728H538.637V852.008H533.757ZM541.865 855V847.176H543.193L543.321 848.584H543.369C543.646 848.083 543.977 847.693 544.361 847.416C544.755 847.128 545.166 846.984 545.593 846.984C545.774 846.984 545.934 847 546.073 847.032C546.211 847.053 546.339 847.091 546.457 847.144L546.169 848.552C546.03 848.509 545.902 848.477 545.785 848.456C545.678 848.435 545.545 848.424 545.385 848.424C545.065 848.424 544.729 848.552 544.377 848.808C544.025 849.053 543.726 849.491 543.481 850.12V855H541.865ZM550.846 855.192C550.142 855.192 549.507 855.032 548.942 854.712C548.387 854.392 547.944 853.928 547.614 853.32C547.283 852.701 547.118 851.96 547.118 851.096C547.118 850.232 547.299 849.496 547.662 848.888C548.024 848.269 548.494 847.8 549.07 847.48C549.656 847.149 550.291 846.984 550.974 846.984C551.475 846.984 551.912 847.075 552.286 847.256C552.659 847.427 552.984 847.635 553.262 847.88L552.462 848.936C552.248 848.733 552.03 848.579 551.806 848.472C551.582 848.365 551.331 848.312 551.054 848.312C550.606 848.312 550.211 848.429 549.87 848.664C549.528 848.888 549.262 849.213 549.07 849.64C548.878 850.056 548.782 850.541 548.782 851.096C548.782 851.651 548.872 852.136 549.054 852.552C549.246 852.968 549.507 853.293 549.838 853.528C550.179 853.752 550.568 853.864 551.006 853.864C551.336 853.864 551.646 853.795 551.934 853.656C552.232 853.517 552.494 853.347 552.718 853.144L553.39 854.216C553.027 854.536 552.627 854.781 552.19 854.952C551.752 855.112 551.304 855.192 550.846 855.192ZM555.005 855V843.656H556.621V846.664L556.557 848.216C556.899 847.885 557.272 847.597 557.677 847.352C558.093 847.107 558.568 846.984 559.101 846.984C559.933 846.984 560.541 847.251 560.925 847.784C561.309 848.317 561.501 849.08 561.501 850.072V855H559.885V850.28C559.885 849.597 559.779 849.112 559.565 848.824C559.363 848.525 559.027 848.376 558.557 848.376C558.184 848.376 557.853 848.467 557.565 848.648C557.288 848.829 556.973 849.096 556.621 849.448V855H555.005ZM563.834 855V847.176H565.45V855H563.834ZM564.65 845.704C564.372 845.704 564.138 845.613 563.946 845.432C563.754 845.24 563.658 845.005 563.658 844.728C563.658 844.451 563.754 844.221 563.946 844.04C564.138 843.859 564.372 843.768 564.65 843.768C564.938 843.768 565.172 843.859 565.354 844.04C565.546 844.221 565.642 844.451 565.642 844.728C565.642 845.005 565.546 845.24 565.354 845.432C565.172 845.613 564.938 845.704 564.65 845.704ZM570.536 855.192C569.661 855.192 569.048 854.941 568.696 854.44C568.344 853.928 568.168 853.267 568.168 852.456V848.472H567.032V847.256L568.248 847.176L568.44 845.016H569.784V847.176H571.832V848.472H569.784V852.472C569.784 852.931 569.874 853.283 570.056 853.528C570.237 853.773 570.53 853.896 570.936 853.896C571.074 853.896 571.218 853.88 571.368 853.848C571.528 853.805 571.666 853.757 571.784 853.704L572.072 854.904C571.858 854.979 571.618 855.043 571.352 855.096C571.085 855.16 570.813 855.192 570.536 855.192ZM576.785 855.192C576.07 855.192 575.425 855.032 574.849 854.712C574.284 854.381 573.83 853.912 573.489 853.304C573.148 852.696 572.977 851.96 572.977 851.096C572.977 850.253 573.148 849.528 573.489 848.92C573.83 848.301 574.273 847.827 574.817 847.496C575.361 847.155 575.937 846.984 576.545 846.984C577.228 846.984 577.804 847.139 578.273 847.448C578.753 847.757 579.116 848.189 579.361 848.744C579.606 849.299 579.729 849.944 579.729 850.68C579.729 850.829 579.718 850.984 579.697 851.144C579.686 851.293 579.67 851.416 579.649 851.512H574.241L574.225 850.392H578.321C578.321 849.709 578.172 849.181 577.873 848.808C577.585 848.435 577.153 848.248 576.577 848.248C576.236 848.248 575.905 848.344 575.585 848.536C575.265 848.728 574.998 849.037 574.785 849.464C574.582 849.88 574.481 850.424 574.481 851.096C574.481 851.747 574.598 852.28 574.833 852.696C575.068 853.112 575.372 853.421 575.745 853.624C576.129 853.827 576.545 853.928 576.993 853.928C577.345 853.928 577.67 853.875 577.969 853.768C578.278 853.661 578.577 853.517 578.865 853.336L579.425 854.36C579.062 854.595 578.657 854.792 578.209 854.952C577.772 855.112 577.297 855.192 576.785 855.192ZM584.736 855.192C584.032 855.192 583.398 855.032 582.832 854.712C582.278 854.392 581.835 853.928 581.504 853.32C581.174 852.701 581.008 851.96 581.008 851.096C581.008 850.232 581.19 849.496 581.552 848.888C581.915 848.269 582.384 847.8 582.96 847.48C583.547 847.149 584.182 846.984 584.864 846.984C585.366 846.984 585.803 847.075 586.176 847.256C586.55 847.427 586.875 847.635 587.152 847.88L586.352 848.936C586.139 848.733 585.92 848.579 585.696 848.472C585.472 848.365 585.222 848.312 584.944 848.312C584.496 848.312 584.102 848.429 583.76 848.664C583.419 848.888 583.152 849.213 582.96 849.64C582.768 850.056 582.672 850.541 582.672 851.096C582.672 851.651 582.763 852.136 582.944 852.552C583.136 852.968 583.398 853.293 583.728 853.528C584.07 853.752 584.459 853.864 584.896 853.864C585.227 853.864 585.536 853.795 585.824 853.656C586.123 853.517 586.384 853.347 586.608 853.144L587.28 854.216C586.918 854.536 586.518 854.781 586.08 854.952C585.643 855.112 585.195 855.192 584.736 855.192ZM591.52 855.192C590.645 855.192 590.032 854.941 589.68 854.44C589.328 853.928 589.152 853.267 589.152 852.456V848.472H588.016V847.256L589.232 847.176L589.424 845.016H590.768V847.176H592.816V848.472H590.768V852.472C590.768 852.931 590.859 853.283 591.04 853.528C591.221 853.773 591.515 853.896 591.92 853.896C592.059 853.896 592.203 853.88 592.352 853.848C592.512 853.805 592.651 853.757 592.768 853.704L593.056 854.904C592.843 854.979 592.603 855.043 592.336 855.096C592.069 855.16 591.797 855.192 591.52 855.192ZM596.809 855.192C595.988 855.192 595.38 854.925 594.985 854.392C594.601 853.859 594.409 853.096 594.409 852.104V847.176H596.025V851.896C596.025 852.579 596.132 853.069 596.345 853.368C596.559 853.656 596.895 853.8 597.353 853.8C597.716 853.8 598.041 853.709 598.329 853.528C598.617 853.336 598.921 853.032 599.241 852.616V847.176H600.857V855H599.529L599.401 853.816H599.353C599.001 854.232 598.623 854.568 598.217 854.824C597.823 855.069 597.353 855.192 596.809 855.192ZM603.318 855V847.176H604.646L604.774 848.584H604.822C605.099 848.083 605.43 847.693 605.814 847.416C606.209 847.128 606.619 846.984 607.046 846.984C607.227 846.984 607.387 847 607.526 847.032C607.665 847.053 607.793 847.091 607.91 847.144L607.622 848.552C607.483 848.509 607.355 848.477 607.238 848.456C607.131 848.435 606.998 848.424 606.838 848.424C606.518 848.424 606.182 848.552 605.83 848.808C605.478 849.053 605.179 849.491 604.934 850.12V855H603.318ZM612.379 855.192C611.664 855.192 611.019 855.032 610.443 854.712C609.877 854.381 609.424 853.912 609.083 853.304C608.741 852.696 608.571 851.96 608.571 851.096C608.571 850.253 608.741 849.528 609.083 848.92C609.424 848.301 609.867 847.827 610.411 847.496C610.955 847.155 611.531 846.984 612.139 846.984C612.821 846.984 613.397 847.139 613.867 847.448C614.347 847.757 614.709 848.189 614.955 848.744C615.2 849.299 615.323 849.944 615.323 850.68C615.323 850.829 615.312 850.984 615.291 851.144C615.28 851.293 615.264 851.416 615.243 851.512H609.835L609.819 850.392H613.915C613.915 849.709 613.765 849.181 613.467 848.808C613.179 848.435 612.747 848.248 612.171 848.248C611.829 848.248 611.499 848.344 611.179 848.536C610.859 848.728 610.592 849.037 610.379 849.464C610.176 849.88 610.075 850.424 610.075 851.096C610.075 851.747 610.192 852.28 610.427 852.696C610.661 853.112 610.965 853.421 611.339 853.624C611.723 853.827 612.139 853.928 612.587 853.928C612.939 853.928 613.264 853.875 613.563 853.768C613.872 853.661 614.171 853.517 614.459 853.336L615.019 854.36C614.656 854.595 614.251 854.792 613.803 854.952C613.365 855.112 612.891 855.192 612.379 855.192Z" fill="#002B5B"/>
<path d="M127.126 721V710.52H130.374C131.089 710.52 131.723 710.605 132.278 710.776C132.833 710.936 133.265 711.208 133.574 711.592C133.894 711.965 134.054 712.467 134.054 713.096C134.054 713.597 133.921 714.061 133.654 714.488C133.398 714.915 133.035 715.208 132.566 715.368V715.432C133.163 715.549 133.654 715.816 134.038 716.232C134.433 716.648 134.63 717.213 134.63 717.928C134.63 718.621 134.454 719.197 134.102 719.656C133.761 720.104 133.286 720.44 132.678 720.664C132.081 720.888 131.398 721 130.63 721H127.126ZM128.758 719.72H130.438C131.27 719.72 131.91 719.571 132.358 719.272C132.806 718.963 133.03 718.488 133.03 717.848C133.03 717.251 132.806 716.819 132.358 716.552C131.921 716.275 131.281 716.136 130.438 716.136H128.758V719.72ZM128.758 714.904H130.182C130.982 714.904 131.558 714.76 131.91 714.472C132.273 714.184 132.454 713.8 132.454 713.32C132.454 712.765 132.267 712.376 131.894 712.152C131.521 711.917 130.966 711.8 130.23 711.8H128.758V714.904ZM138.77 721.192C137.949 721.192 137.341 720.925 136.946 720.392C136.562 719.859 136.37 719.096 136.37 718.104V713.176H137.986V717.896C137.986 718.579 138.093 719.069 138.306 719.368C138.52 719.656 138.856 719.8 139.314 719.8C139.677 719.8 140.002 719.709 140.29 719.528C140.578 719.336 140.882 719.032 141.202 718.616V713.176H142.818V721H141.49L141.362 719.816H141.314C140.962 720.232 140.584 720.568 140.178 720.824C139.784 721.069 139.314 721.192 138.77 721.192ZM145.279 721V713.176H146.607L146.735 714.584H146.783C147.06 714.083 147.391 713.693 147.775 713.416C148.17 713.128 148.58 712.984 149.007 712.984C149.188 712.984 149.348 713 149.487 713.032C149.626 713.053 149.754 713.091 149.871 713.144L149.583 714.552C149.444 714.509 149.316 714.477 149.199 714.456C149.092 714.435 148.959 714.424 148.799 714.424C148.479 714.424 148.143 714.552 147.791 714.808C147.439 715.053 147.14 715.491 146.895 716.12V721H145.279ZM154.34 721.192C153.625 721.192 152.98 721.032 152.404 720.712C151.838 720.381 151.385 719.912 151.044 719.304C150.702 718.696 150.532 717.96 150.532 717.096C150.532 716.253 150.702 715.528 151.044 714.92C151.385 714.301 151.828 713.827 152.372 713.496C152.916 713.155 153.492 712.984 154.1 712.984C154.782 712.984 155.358 713.139 155.828 713.448C156.308 713.757 156.67 714.189 156.916 714.744C157.161 715.299 157.284 715.944 157.284 716.68C157.284 716.829 157.273 716.984 157.252 717.144C157.241 717.293 157.225 717.416 157.204 717.512H151.796L151.78 716.392H155.876C155.876 715.709 155.726 715.181 155.428 714.808C155.14 714.435 154.708 714.248 154.132 714.248C153.79 714.248 153.46 714.344 153.14 714.536C152.82 714.728 152.553 715.037 152.34 715.464C152.137 715.88 152.036 716.424 152.036 717.096C152.036 717.747 152.153 718.28 152.388 718.696C152.622 719.112 152.926 719.421 153.3 719.624C153.684 719.827 154.1 719.928 154.548 719.928C154.9 719.928 155.225 719.875 155.524 719.768C155.833 719.661 156.132 719.517 156.42 719.336L156.98 720.36C156.617 720.595 156.212 720.792 155.764 720.952C155.326 721.112 154.852 721.192 154.34 721.192ZM160.963 721.192C160.515 721.192 160.115 721.101 159.763 720.92C159.422 720.728 159.15 720.467 158.947 720.136C158.755 719.795 158.659 719.395 158.659 718.936C158.659 718.093 159.032 717.443 159.779 716.984C160.526 716.525 161.715 716.205 163.347 716.024C163.347 715.725 163.299 715.443 163.203 715.176C163.118 714.909 162.963 714.696 162.739 714.536C162.526 714.376 162.227 714.296 161.843 714.296C161.427 714.296 161.027 714.376 160.643 714.536C160.27 714.696 159.918 714.883 159.587 715.096L158.979 714.008C159.246 713.837 159.544 713.677 159.875 713.528C160.206 713.368 160.558 713.24 160.931 713.144C161.315 713.037 161.715 712.984 162.131 712.984C162.771 712.984 163.299 713.117 163.715 713.384C164.142 713.651 164.456 714.029 164.659 714.52C164.862 715.011 164.963 715.603 164.963 716.296V721H163.635L163.507 720.104H163.459C163.107 720.403 162.723 720.659 162.307 720.872C161.891 721.085 161.443 721.192 160.963 721.192ZM161.459 719.912C161.8 719.912 162.12 719.832 162.419 719.672C162.718 719.512 163.027 719.283 163.347 718.984V717.048C162.568 717.144 161.95 717.272 161.491 717.432C161.043 717.592 160.718 717.789 160.515 718.024C160.323 718.259 160.227 718.52 160.227 718.808C160.227 719.192 160.344 719.475 160.579 719.656C160.814 719.827 161.107 719.912 161.459 719.912ZM169.583 721.192C168.762 721.192 168.154 720.925 167.759 720.392C167.375 719.859 167.183 719.096 167.183 718.104V713.176H168.799V717.896C168.799 718.579 168.906 719.069 169.119 719.368C169.332 719.656 169.668 719.8 170.127 719.8C170.49 719.8 170.815 719.709 171.103 719.528C171.391 719.336 171.695 719.032 172.015 718.616V713.176H173.631V721H172.303L172.175 719.816H172.127C171.775 720.232 171.396 720.568 170.991 720.824C170.596 721.069 170.127 721.192 169.583 721.192ZM179.275 721.192C178.571 721.192 177.937 721.032 177.371 720.712C176.817 720.392 176.374 719.928 176.043 719.32C175.713 718.701 175.547 717.96 175.547 717.096C175.547 716.232 175.729 715.496 176.091 714.888C176.454 714.269 176.923 713.8 177.499 713.48C178.086 713.149 178.721 712.984 179.403 712.984C179.905 712.984 180.342 713.075 180.715 713.256C181.089 713.427 181.414 713.635 181.691 713.88L180.891 714.936C180.678 714.733 180.459 714.579 180.235 714.472C180.011 714.365 179.761 714.312 179.483 714.312C179.035 714.312 178.641 714.429 178.299 714.664C177.958 714.888 177.691 715.213 177.499 715.64C177.307 716.056 177.211 716.541 177.211 717.096C177.211 717.651 177.302 718.136 177.483 718.552C177.675 718.968 177.937 719.293 178.267 719.528C178.609 719.752 178.998 719.864 179.435 719.864C179.766 719.864 180.075 719.795 180.363 719.656C180.662 719.517 180.923 719.347 181.147 719.144L181.819 720.216C181.457 720.536 181.057 720.781 180.619 720.952C180.182 721.112 179.734 721.192 179.275 721.192ZM183.435 721V713.176H184.763L184.891 714.584H184.939C185.216 714.083 185.547 713.693 185.931 713.416C186.326 713.128 186.736 712.984 187.163 712.984C187.344 712.984 187.504 713 187.643 713.032C187.782 713.053 187.91 713.091 188.027 713.144L187.739 714.552C187.6 714.509 187.472 714.477 187.355 714.456C187.248 714.435 187.115 714.424 186.955 714.424C186.635 714.424 186.299 714.552 185.947 714.808C185.595 715.053 185.296 715.491 185.051 716.12V721H183.435ZM191.088 721.192C190.64 721.192 190.24 721.101 189.888 720.92C189.547 720.728 189.275 720.467 189.072 720.136C188.88 719.795 188.784 719.395 188.784 718.936C188.784 718.093 189.157 717.443 189.904 716.984C190.651 716.525 191.84 716.205 193.472 716.024C193.472 715.725 193.424 715.443 193.328 715.176C193.243 714.909 193.088 714.696 192.864 714.536C192.651 714.376 192.352 714.296 191.968 714.296C191.552 714.296 191.152 714.376 190.768 714.536C190.395 714.696 190.043 714.883 189.712 715.096L189.104 714.008C189.371 713.837 189.669 713.677 190 713.528C190.331 713.368 190.683 713.24 191.056 713.144C191.44 713.037 191.84 712.984 192.256 712.984C192.896 712.984 193.424 713.117 193.84 713.384C194.267 713.651 194.581 714.029 194.784 714.52C194.987 715.011 195.088 715.603 195.088 716.296V721H193.76L193.632 720.104H193.584C193.232 720.403 192.848 720.659 192.432 720.872C192.016 721.085 191.568 721.192 191.088 721.192ZM191.584 719.912C191.925 719.912 192.245 719.832 192.544 719.672C192.843 719.512 193.152 719.283 193.472 718.984V717.048C192.693 717.144 192.075 717.272 191.616 717.432C191.168 717.592 190.843 717.789 190.64 718.024C190.448 718.259 190.352 718.52 190.352 718.808C190.352 719.192 190.469 719.475 190.704 719.656C190.939 719.827 191.232 719.912 191.584 719.912ZM200.588 721.192C199.884 721.192 199.249 721.032 198.684 720.712C198.129 720.392 197.687 719.928 197.356 719.32C197.025 718.701 196.86 717.96 196.86 717.096C196.86 716.232 197.041 715.496 197.404 714.888C197.767 714.269 198.236 713.8 198.812 713.48C199.399 713.149 200.033 712.984 200.716 712.984C201.217 712.984 201.655 713.075 202.028 713.256C202.401 713.427 202.727 713.635 203.004 713.88L202.204 714.936C201.991 714.733 201.772 714.579 201.548 714.472C201.324 714.365 201.073 714.312 200.796 714.312C200.348 714.312 199.953 714.429 199.612 714.664C199.271 714.888 199.004 715.213 198.812 715.64C198.62 716.056 198.524 716.541 198.524 717.096C198.524 717.651 198.615 718.136 198.796 718.552C198.988 718.968 199.249 719.293 199.58 719.528C199.921 719.752 200.311 719.864 200.748 719.864C201.079 719.864 201.388 719.795 201.676 719.656C201.975 719.517 202.236 719.347 202.46 719.144L203.132 720.216C202.769 720.536 202.369 720.781 201.932 720.952C201.495 721.112 201.047 721.192 200.588 721.192ZM205.1 724.28C204.897 724.28 204.716 724.264 204.556 724.232C204.406 724.2 204.262 724.163 204.124 724.12L204.428 722.856C204.502 722.877 204.593 722.899 204.7 722.92C204.806 722.952 204.908 722.968 205.004 722.968C205.43 722.968 205.777 722.824 206.044 722.536C206.31 722.259 206.513 721.907 206.652 721.48L206.812 720.952L203.708 713.176H205.356L206.812 717.224C206.929 717.565 207.046 717.928 207.164 718.312C207.292 718.685 207.414 719.059 207.532 719.432H207.596C207.702 719.069 207.804 718.701 207.9 718.328C208.006 717.944 208.113 717.576 208.22 717.224L209.484 713.176H211.052L208.172 721.48C207.969 722.035 207.734 722.52 207.468 722.936C207.201 723.363 206.876 723.693 206.492 723.928C206.108 724.163 205.644 724.28 205.1 724.28ZM142.204 742V731.52H143.836V735.808H148.348V731.52H149.98V742H148.348V737.232H143.836V742H142.204ZM154.447 742.192C153.999 742.192 153.599 742.101 153.247 741.92C152.906 741.728 152.634 741.467 152.431 741.136C152.239 740.795 152.143 740.395 152.143 739.936C152.143 739.093 152.517 738.443 153.263 737.984C154.01 737.525 155.199 737.205 156.831 737.024C156.831 736.725 156.783 736.443 156.687 736.176C156.602 735.909 156.447 735.696 156.223 735.536C156.01 735.376 155.711 735.296 155.327 735.296C154.911 735.296 154.511 735.376 154.127 735.536C153.754 735.696 153.402 735.883 153.071 736.096L152.463 735.008C152.73 734.837 153.029 734.677 153.359 734.528C153.69 734.368 154.042 734.24 154.415 734.144C154.799 734.037 155.199 733.984 155.615 733.984C156.255 733.984 156.783 734.117 157.199 734.384C157.626 734.651 157.941 735.029 158.143 735.52C158.346 736.011 158.447 736.603 158.447 737.296V742H157.119L156.991 741.104H156.943C156.591 741.403 156.207 741.659 155.791 741.872C155.375 742.085 154.927 742.192 154.447 742.192ZM154.943 740.912C155.285 740.912 155.605 740.832 155.903 740.672C156.202 740.512 156.511 740.283 156.831 739.984V738.048C156.053 738.144 155.434 738.272 154.975 738.432C154.527 738.592 154.202 738.789 153.999 739.024C153.807 739.259 153.711 739.52 153.711 739.808C153.711 740.192 153.829 740.475 154.063 740.656C154.298 740.827 154.591 740.912 154.943 740.912ZM163.947 742.192C163.243 742.192 162.609 742.032 162.043 741.712C161.489 741.392 161.046 740.928 160.715 740.32C160.385 739.701 160.219 738.96 160.219 738.096C160.219 737.232 160.401 736.496 160.763 735.888C161.126 735.269 161.595 734.8 162.171 734.48C162.758 734.149 163.393 733.984 164.075 733.984C164.577 733.984 165.014 734.075 165.387 734.256C165.761 734.427 166.086 734.635 166.363 734.88L165.563 735.936C165.35 735.733 165.131 735.579 164.907 735.472C164.683 735.365 164.433 735.312 164.155 735.312C163.707 735.312 163.313 735.429 162.971 735.664C162.63 735.888 162.363 736.213 162.171 736.64C161.979 737.056 161.883 737.541 161.883 738.096C161.883 738.651 161.974 739.136 162.155 739.552C162.347 739.968 162.609 740.293 162.939 740.528C163.281 740.752 163.67 740.864 164.107 740.864C164.438 740.864 164.747 740.795 165.035 740.656C165.334 740.517 165.595 740.347 165.819 740.144L166.491 741.216C166.129 741.536 165.729 741.781 165.291 741.952C164.854 742.112 164.406 742.192 163.947 742.192ZM168.107 742V730.656H169.691V738H169.739L172.827 734.176H174.603L171.947 737.344L174.907 742H173.147L171.019 738.448L169.691 739.984V742H168.107ZM176.263 742V734.176H177.879V742H176.263ZM177.079 732.704C176.802 732.704 176.567 732.613 176.375 732.432C176.183 732.24 176.087 732.005 176.087 731.728C176.087 731.451 176.183 731.221 176.375 731.04C176.567 730.859 176.802 730.768 177.079 730.768C177.367 730.768 177.602 730.859 177.783 731.04C177.975 731.221 178.071 731.451 178.071 731.728C178.071 732.005 177.975 732.24 177.783 732.432C177.602 732.613 177.367 732.704 177.079 732.704ZM180.341 742V734.176H181.669L181.797 735.264H181.845C182.208 734.912 182.597 734.613 183.013 734.368C183.429 734.112 183.904 733.984 184.437 733.984C185.269 733.984 185.877 734.251 186.261 734.784C186.645 735.317 186.837 736.08 186.837 737.072V742H185.221V737.28C185.221 736.597 185.115 736.112 184.901 735.824C184.699 735.525 184.363 735.376 183.893 735.376C183.52 735.376 183.189 735.467 182.901 735.648C182.624 735.829 182.309 736.096 181.957 736.448V742H180.341ZM191.889 745.52C191.259 745.52 190.699 745.44 190.209 745.28C189.718 745.131 189.334 744.901 189.057 744.592C188.779 744.293 188.641 743.915 188.641 743.456C188.641 743.125 188.742 742.811 188.945 742.512C189.147 742.224 189.425 741.968 189.777 741.744V741.68C189.585 741.541 189.419 741.371 189.281 741.168C189.142 740.955 189.073 740.693 189.073 740.384C189.073 740.064 189.163 739.781 189.345 739.536C189.526 739.28 189.723 739.077 189.937 738.928V738.864C189.681 738.661 189.446 738.379 189.233 738.016C189.019 737.653 188.913 737.243 188.913 736.784C188.913 736.197 189.051 735.696 189.329 735.28C189.617 734.864 189.985 734.544 190.433 734.32C190.891 734.096 191.393 733.984 191.937 733.984C192.15 733.984 192.353 734.005 192.545 734.048C192.747 734.08 192.923 734.123 193.073 734.176H195.841V735.392H194.337C194.486 735.552 194.609 735.76 194.705 736.016C194.811 736.261 194.865 736.533 194.865 736.832C194.865 737.397 194.731 737.883 194.465 738.288C194.209 738.683 193.857 738.987 193.409 739.2C192.971 739.413 192.481 739.52 191.937 739.52C191.755 739.52 191.569 739.499 191.377 739.456C191.195 739.413 191.014 739.355 190.833 739.28C190.705 739.387 190.598 739.504 190.513 739.632C190.438 739.76 190.401 739.92 190.401 740.112C190.401 740.347 190.497 740.533 190.689 740.672C190.881 740.811 191.222 740.88 191.713 740.88H193.153C194.081 740.88 194.779 741.035 195.249 741.344C195.729 741.643 195.969 742.123 195.969 742.784C195.969 743.285 195.798 743.744 195.457 744.16C195.126 744.576 194.657 744.907 194.049 745.152C193.441 745.397 192.721 745.52 191.889 745.52ZM192.129 744.448C192.587 744.448 192.982 744.384 193.313 744.256C193.654 744.128 193.921 743.952 194.113 743.728C194.305 743.515 194.401 743.285 194.401 743.04C194.401 742.709 194.273 742.48 194.017 742.352C193.771 742.235 193.414 742.176 192.945 742.176H191.745C191.563 742.176 191.382 742.165 191.201 742.144C191.03 742.123 190.865 742.096 190.705 742.064C190.459 742.235 190.283 742.416 190.177 742.608C190.07 742.811 190.017 743.013 190.017 743.216C190.017 743.6 190.203 743.899 190.577 744.112C190.961 744.336 191.478 744.448 192.129 744.448ZM191.937 738.48C192.214 738.48 192.465 738.416 192.689 738.288C192.913 738.149 193.089 737.952 193.217 737.696C193.355 737.44 193.425 737.136 193.425 736.784C193.425 736.432 193.355 736.133 193.217 735.888C193.089 735.643 192.913 735.456 192.689 735.328C192.465 735.189 192.214 735.12 191.937 735.12C191.521 735.12 191.169 735.264 190.881 735.552C190.593 735.84 190.449 736.251 190.449 736.784C190.449 737.136 190.513 737.44 190.641 737.696C190.779 737.952 190.961 738.149 191.185 738.288C191.409 738.416 191.659 738.48 191.937 738.48Z" fill="#002B5B"/>
<path d="M35.8872 434V424.896H32.7992V423.52H40.6072V424.896H37.5192V434H35.8872ZM45.5351 434.192C44.8204 434.192 44.1751 434.032 43.5991 433.712C43.0337 433.381 42.5804 432.912 42.2391 432.304C41.8977 431.696 41.7271 430.96 41.7271 430.096C41.7271 429.253 41.8977 428.528 42.2391 427.92C42.5804 427.301 43.0231 426.827 43.5671 426.496C44.1111 426.155 44.6871 425.984 45.2951 425.984C45.9777 425.984 46.5537 426.139 47.0231 426.448C47.5031 426.757 47.8657 427.189 48.1111 427.744C48.3564 428.299 48.4791 428.944 48.4791 429.68C48.4791 429.829 48.4684 429.984 48.4471 430.144C48.4364 430.293 48.4204 430.416 48.3991 430.512H42.9911L42.9751 429.392H47.0711C47.0711 428.709 46.9217 428.181 46.6231 427.808C46.3351 427.435 45.9031 427.248 45.3271 427.248C44.9857 427.248 44.6551 427.344 44.3351 427.536C44.0151 427.728 43.7484 428.037 43.5351 428.464C43.3324 428.88 43.2311 429.424 43.2311 430.096C43.2311 430.747 43.3484 431.28 43.5831 431.696C43.8177 432.112 44.1217 432.421 44.4951 432.624C44.8791 432.827 45.2951 432.928 45.7431 432.928C46.0951 432.928 46.4204 432.875 46.7191 432.768C47.0284 432.661 47.3271 432.517 47.6151 432.336L48.1751 433.36C47.8124 433.595 47.4071 433.792 46.9591 433.952C46.5217 434.112 46.0471 434.192 45.5351 434.192ZM52.1583 434.192C51.7103 434.192 51.3103 434.101 50.9583 433.92C50.617 433.728 50.345 433.467 50.1423 433.136C49.9503 432.795 49.8543 432.395 49.8543 431.936C49.8543 431.093 50.2276 430.443 50.9743 429.984C51.721 429.525 52.9103 429.205 54.5423 429.024C54.5423 428.725 54.4943 428.443 54.3983 428.176C54.313 427.909 54.1583 427.696 53.9343 427.536C53.721 427.376 53.4223 427.296 53.0383 427.296C52.6223 427.296 52.2223 427.376 51.8383 427.536C51.465 427.696 51.113 427.883 50.7823 428.096L50.1743 427.008C50.441 426.837 50.7396 426.677 51.0703 426.528C51.401 426.368 51.753 426.24 52.1263 426.144C52.5103 426.037 52.9103 425.984 53.3263 425.984C53.9663 425.984 54.4943 426.117 54.9103 426.384C55.337 426.651 55.6516 427.029 55.8543 427.52C56.057 428.011 56.1583 428.603 56.1583 429.296V434H54.8303L54.7023 433.104H54.6543C54.3023 433.403 53.9183 433.659 53.5023 433.872C53.0863 434.085 52.6383 434.192 52.1583 434.192ZM52.6543 432.912C52.9956 432.912 53.3156 432.832 53.6143 432.672C53.913 432.512 54.2223 432.283 54.5423 431.984V430.048C53.7636 430.144 53.145 430.272 52.6863 430.432C52.2383 430.592 51.913 430.789 51.7103 431.024C51.5183 431.259 51.4223 431.52 51.4223 431.808C51.4223 432.192 51.5396 432.475 51.7743 432.656C52.009 432.827 52.3023 432.912 52.6543 432.912ZM58.4742 434V426.176H59.8022L59.9302 427.28H59.9782C60.3089 426.917 60.6715 426.613 61.0662 426.368C61.4715 426.112 61.9142 425.984 62.3942 425.984C62.9809 425.984 63.4449 426.112 63.7862 426.368C64.1275 426.624 64.3835 426.976 64.5542 427.424C64.9382 427.008 65.3329 426.667 65.7382 426.4C66.1542 426.123 66.6075 425.984 67.0982 425.984C67.9195 425.984 68.5222 426.251 68.9062 426.784C69.3009 427.317 69.4982 428.08 69.4982 429.072V434H67.8822V429.28C67.8822 428.597 67.7755 428.112 67.5622 427.824C67.3595 427.525 67.0289 427.376 66.5702 427.376C66.2929 427.376 66.0102 427.467 65.7222 427.648C65.4342 427.819 65.1249 428.085 64.7942 428.448V434H63.1782V429.28C63.1782 428.597 63.0715 428.112 62.8582 427.824C62.6555 427.525 62.3249 427.376 61.8662 427.376C61.3329 427.376 60.7409 427.733 60.0902 428.448V434H58.4742ZM8.3135 455V444.52H10.2015L12.1215 449.848C12.2388 450.189 12.3562 450.541 12.4735 450.904C12.5908 451.256 12.7082 451.608 12.8255 451.96H12.8895C13.0068 451.608 13.1188 451.256 13.2255 450.904C13.3428 450.541 13.4602 450.189 13.5775 449.848L15.4655 444.52H17.3535V455H15.8495V449.784C15.8495 449.464 15.8602 449.117 15.8815 448.744C15.9135 448.36 15.9455 447.976 15.9775 447.592C16.0095 447.208 16.0362 446.861 16.0575 446.552H15.9935L15.1615 448.968L13.3215 453.976H12.3135L10.4735 448.968L9.6415 446.552H9.5775C9.59883 446.861 9.6255 447.208 9.6575 447.592C9.6895 447.976 9.71617 448.36 9.7375 448.744C9.7695 449.117 9.7855 449.464 9.7855 449.784V455H8.3135ZM21.8224 455.192C21.3744 455.192 20.9744 455.101 20.6224 454.92C20.281 454.728 20.009 454.467 19.8064 454.136C19.6144 453.795 19.5184 453.395 19.5184 452.936C19.5184 452.093 19.8917 451.443 20.6384 450.984C21.385 450.525 22.5744 450.205 24.2064 450.024C24.2064 449.725 24.1584 449.443 24.0624 449.176C23.977 448.909 23.8224 448.696 23.5984 448.536C23.385 448.376 23.0864 448.296 22.7024 448.296C22.2864 448.296 21.8864 448.376 21.5024 448.536C21.129 448.696 20.777 448.883 20.4464 449.096L19.8384 448.008C20.105 447.837 20.4037 447.677 20.7344 447.528C21.065 447.368 21.417 447.24 21.7904 447.144C22.1744 447.037 22.5744 446.984 22.9904 446.984C23.6304 446.984 24.1584 447.117 24.5744 447.384C25.001 447.651 25.3157 448.029 25.5184 448.52C25.721 449.011 25.8224 449.603 25.8224 450.296V455H24.4944L24.3664 454.104H24.3184C23.9664 454.403 23.5824 454.659 23.1664 454.872C22.7504 455.085 22.3024 455.192 21.8224 455.192ZM22.3184 453.912C22.6597 453.912 22.9797 453.832 23.2784 453.672C23.577 453.512 23.8864 453.283 24.2064 452.984V451.048C23.4277 451.144 22.809 451.272 22.3504 451.432C21.9024 451.592 21.577 451.789 21.3744 452.024C21.1824 452.259 21.0864 452.52 21.0864 452.808C21.0864 453.192 21.2037 453.475 21.4384 453.656C21.673 453.827 21.9664 453.912 22.3184 453.912ZM28.1383 455V447.176H29.4663L29.5943 448.264H29.6423C30.0049 447.912 30.3943 447.613 30.8103 447.368C31.2263 447.112 31.7009 446.984 32.2343 446.984C33.0663 446.984 33.6743 447.251 34.0583 447.784C34.4423 448.317 34.6343 449.08 34.6343 450.072V455H33.0183V450.28C33.0183 449.597 32.9116 449.112 32.6983 448.824C32.4956 448.525 32.1596 448.376 31.6903 448.376C31.3169 448.376 30.9863 448.467 30.6983 448.648C30.4209 448.829 30.1063 449.096 29.7543 449.448V455H28.1383ZM38.8536 455.192C38.4056 455.192 38.0056 455.101 37.6536 454.92C37.3123 454.728 37.0403 454.467 36.8376 454.136C36.6456 453.795 36.5496 453.395 36.5496 452.936C36.5496 452.093 36.923 451.443 37.6696 450.984C38.4163 450.525 39.6056 450.205 41.2376 450.024C41.2376 449.725 41.1896 449.443 41.0936 449.176C41.0083 448.909 40.8536 448.696 40.6296 448.536C40.4163 448.376 40.1176 448.296 39.7336 448.296C39.3176 448.296 38.9176 448.376 38.5336 448.536C38.1603 448.696 37.8083 448.883 37.4776 449.096L36.8696 448.008C37.1363 447.837 37.435 447.677 37.7656 447.528C38.0963 447.368 38.4483 447.24 38.8216 447.144C39.2056 447.037 39.6056 446.984 40.0216 446.984C40.6616 446.984 41.1896 447.117 41.6056 447.384C42.0323 447.651 42.347 448.029 42.5496 448.52C42.7523 449.011 42.8536 449.603 42.8536 450.296V455H41.5256L41.3976 454.104H41.3496C40.9976 454.403 40.6136 454.659 40.1976 454.872C39.7816 455.085 39.3336 455.192 38.8536 455.192ZM39.3496 453.912C39.691 453.912 40.011 453.832 40.3096 453.672C40.6083 453.512 40.9176 453.283 41.2376 452.984V451.048C40.459 451.144 39.8403 451.272 39.3816 451.432C38.9336 451.592 38.6083 451.789 38.4056 452.024C38.2136 452.259 38.1176 452.52 38.1176 452.808C38.1176 453.192 38.235 453.475 38.4696 453.656C38.7043 453.827 38.9976 453.912 39.3496 453.912ZM47.8575 458.52C47.2282 458.52 46.6682 458.44 46.1775 458.28C45.6868 458.131 45.3028 457.901 45.0255 457.592C44.7482 457.293 44.6095 456.915 44.6095 456.456C44.6095 456.125 44.7108 455.811 44.9135 455.512C45.1162 455.224 45.3935 454.968 45.7455 454.744V454.68C45.5535 454.541 45.3882 454.371 45.2495 454.168C45.1108 453.955 45.0415 453.693 45.0415 453.384C45.0415 453.064 45.1322 452.781 45.3135 452.536C45.4948 452.28 45.6922 452.077 45.9055 451.928V451.864C45.6495 451.661 45.4148 451.379 45.2015 451.016C44.9882 450.653 44.8815 450.243 44.8815 449.784C44.8815 449.197 45.0202 448.696 45.2975 448.28C45.5855 447.864 45.9535 447.544 46.4015 447.32C46.8602 447.096 47.3615 446.984 47.9055 446.984C48.1188 446.984 48.3215 447.005 48.5135 447.048C48.7162 447.08 48.8922 447.123 49.0415 447.176H51.8095V448.392H50.3055C50.4548 448.552 50.5775 448.76 50.6735 449.016C50.7802 449.261 50.8335 449.533 50.8335 449.832C50.8335 450.397 50.7002 450.883 50.4335 451.288C50.1775 451.683 49.8255 451.987 49.3775 452.2C48.9402 452.413 48.4495 452.52 47.9055 452.52C47.7242 452.52 47.5375 452.499 47.3455 452.456C47.1642 452.413 46.9828 452.355 46.8015 452.28C46.6735 452.387 46.5668 452.504 46.4815 452.632C46.4068 452.76 46.3695 452.92 46.3695 453.112C46.3695 453.347 46.4655 453.533 46.6575 453.672C46.8495 453.811 47.1908 453.88 47.6815 453.88H49.1215C50.0495 453.88 50.7482 454.035 51.2175 454.344C51.6975 454.643 51.9375 455.123 51.9375 455.784C51.9375 456.285 51.7668 456.744 51.4255 457.16C51.0948 457.576 50.6255 457.907 50.0175 458.152C49.4095 458.397 48.6895 458.52 47.8575 458.52ZM48.0975 457.448C48.5562 457.448 48.9508 457.384 49.2815 457.256C49.6228 457.128 49.8895 456.952 50.0815 456.728C50.2735 456.515 50.3695 456.285 50.3695 456.04C50.3695 455.709 50.2415 455.48 49.9855 455.352C49.7402 455.235 49.3828 455.176 48.9135 455.176H47.7135C47.5322 455.176 47.3508 455.165 47.1695 455.144C46.9988 455.123 46.8335 455.096 46.6735 455.064C46.4282 455.235 46.2522 455.416 46.1455 455.608C46.0388 455.811 45.9855 456.013 45.9855 456.216C45.9855 456.6 46.1722 456.899 46.5455 457.112C46.9295 457.336 47.4468 457.448 48.0975 457.448ZM47.9055 451.48C48.1828 451.48 48.4335 451.416 48.6575 451.288C48.8815 451.149 49.0575 450.952 49.1855 450.696C49.3242 450.44 49.3935 450.136 49.3935 449.784C49.3935 449.432 49.3242 449.133 49.1855 448.888C49.0575 448.643 48.8815 448.456 48.6575 448.328C48.4335 448.189 48.1828 448.12 47.9055 448.12C47.4895 448.12 47.1375 448.264 46.8495 448.552C46.5615 448.84 46.4175 449.251 46.4175 449.784C46.4175 450.136 46.4815 450.44 46.6095 450.696C46.7482 450.952 46.9295 451.149 47.1535 451.288C47.3775 451.416 47.6282 451.48 47.9055 451.48ZM56.6366 455.192C55.922 455.192 55.2766 455.032 54.7006 454.712C54.1353 454.381 53.682 453.912 53.3406 453.304C52.9993 452.696 52.8286 451.96 52.8286 451.096C52.8286 450.253 52.9993 449.528 53.3406 448.92C53.682 448.301 54.1246 447.827 54.6686 447.496C55.2126 447.155 55.7886 446.984 56.3966 446.984C57.0793 446.984 57.6553 447.139 58.1246 447.448C58.6046 447.757 58.9673 448.189 59.2126 448.744C59.458 449.299 59.5806 449.944 59.5806 450.68C59.5806 450.829 59.57 450.984 59.5486 451.144C59.538 451.293 59.522 451.416 59.5006 451.512H54.0926L54.0766 450.392H58.1726C58.1726 449.709 58.0233 449.181 57.7246 448.808C57.4366 448.435 57.0046 448.248 56.4286 448.248C56.0873 448.248 55.7566 448.344 55.4366 448.536C55.1166 448.728 54.85 449.037 54.6366 449.464C54.434 449.88 54.3326 450.424 54.3326 451.096C54.3326 451.747 54.45 452.28 54.6846 452.696C54.9193 453.112 55.2233 453.421 55.5966 453.624C55.9806 453.827 56.3966 453.928 56.8446 453.928C57.1966 453.928 57.522 453.875 57.8206 453.768C58.13 453.661 58.4286 453.517 58.7166 453.336L59.2766 454.36C58.914 454.595 58.5086 454.792 58.0606 454.952C57.6233 455.112 57.1486 455.192 56.6366 455.192ZM61.4039 455V447.176H62.7319L62.8599 448.28H62.9079C63.2385 447.917 63.6012 447.613 63.9959 447.368C64.4012 447.112 64.8439 446.984 65.3239 446.984C65.9105 446.984 66.3745 447.112 66.7159 447.368C67.0572 447.624 67.3132 447.976 67.4839 448.424C67.8679 448.008 68.2625 447.667 68.6679 447.4C69.0839 447.123 69.5372 446.984 70.0279 446.984C70.8492 446.984 71.4519 447.251 71.8359 447.784C72.2305 448.317 72.4279 449.08 72.4279 450.072V455H70.8119V450.28C70.8119 449.597 70.7052 449.112 70.4919 448.824C70.2892 448.525 69.9585 448.376 69.4999 448.376C69.2225 448.376 68.9399 448.467 68.6519 448.648C68.3639 448.819 68.0545 449.085 67.7239 449.448V455H66.1079V450.28C66.1079 449.597 66.0012 449.112 65.7879 448.824C65.5852 448.525 65.2545 448.376 64.7959 448.376C64.2625 448.376 63.6705 448.733 63.0199 449.448V455H61.4039ZM78.0585 455.192C77.3438 455.192 76.6985 455.032 76.1225 454.712C75.5572 454.381 75.1038 453.912 74.7625 453.304C74.4212 452.696 74.2505 451.96 74.2505 451.096C74.2505 450.253 74.4212 449.528 74.7625 448.92C75.1038 448.301 75.5465 447.827 76.0905 447.496C76.6345 447.155 77.2105 446.984 77.8185 446.984C78.5012 446.984 79.0772 447.139 79.5465 447.448C80.0265 447.757 80.3892 448.189 80.6345 448.744C80.8798 449.299 81.0025 449.944 81.0025 450.68C81.0025 450.829 80.9918 450.984 80.9705 451.144C80.9598 451.293 80.9438 451.416 80.9225 451.512H75.5145L75.4985 450.392H79.5945C79.5945 449.709 79.4452 449.181 79.1465 448.808C78.8585 448.435 78.4265 448.248 77.8505 448.248C77.5092 448.248 77.1785 448.344 76.8585 448.536C76.5385 448.728 76.2718 449.037 76.0585 449.464C75.8558 449.88 75.7545 450.424 75.7545 451.096C75.7545 451.747 75.8718 452.28 76.1065 452.696C76.3412 453.112 76.6452 453.421 77.0185 453.624C77.4025 453.827 77.8185 453.928 78.2665 453.928C78.6185 453.928 78.9438 453.875 79.2425 453.768C79.5518 453.661 79.8505 453.517 80.1385 453.336L80.6985 454.36C80.3358 454.595 79.9305 454.792 79.4825 454.952C79.0452 455.112 78.5705 455.192 78.0585 455.192ZM82.8258 455V447.176H84.1538L84.2818 448.264H84.3298C84.6924 447.912 85.0818 447.613 85.4978 447.368C85.9138 447.112 86.3884 446.984 86.9218 446.984C87.7538 446.984 88.3618 447.251 88.7458 447.784C89.1298 448.317 89.3218 449.08 89.3218 450.072V455H87.7058V450.28C87.7058 449.597 87.5991 449.112 87.3858 448.824C87.1831 448.525 86.8471 448.376 86.3778 448.376C86.0044 448.376 85.6738 448.467 85.3858 448.648C85.1084 448.829 84.7938 449.096 84.4418 449.448V455H82.8258ZM94.3091 455.192C93.4345 455.192 92.8211 454.941 92.4691 454.44C92.1171 453.928 91.9411 453.267 91.9411 452.456V448.472H90.8051V447.256L92.0211 447.176L92.2131 445.016H93.5571V447.176H95.6051V448.472H93.5571V452.472C93.5571 452.931 93.6478 453.283 93.8291 453.528C94.0105 453.773 94.3038 453.896 94.7091 453.896C94.8478 453.896 94.9918 453.88 95.1411 453.848C95.3011 453.805 95.4398 453.757 95.5571 453.704L95.8451 454.904C95.6318 454.979 95.3918 455.043 95.1251 455.096C94.8585 455.16 94.5865 455.192 94.3091 455.192Z" fill="#002B5B"/>
<path d="M148.649 154V143.52H151.817C152.596 143.52 153.284 143.621 153.881 143.824C154.479 144.016 154.948 144.347 155.289 144.816C155.641 145.275 155.817 145.899 155.817 146.688C155.817 147.445 155.647 148.069 155.305 148.56C154.964 149.051 154.495 149.419 153.897 149.664C153.311 149.899 152.639 150.016 151.881 150.016H150.281V154H148.649ZM150.281 148.704H151.721C152.564 148.704 153.188 148.539 153.593 148.208C153.999 147.877 154.201 147.371 154.201 146.688C154.201 145.984 153.988 145.499 153.561 145.232C153.135 144.965 152.5 144.832 151.657 144.832H150.281V148.704ZM157.709 154V146.176H159.037L159.165 147.584H159.213C159.49 147.083 159.821 146.693 160.205 146.416C160.599 146.128 161.01 145.984 161.437 145.984C161.618 145.984 161.778 146 161.917 146.032C162.055 146.053 162.183 146.091 162.301 146.144L162.013 147.552C161.874 147.509 161.746 147.477 161.629 147.456C161.522 147.435 161.389 147.424 161.229 147.424C160.909 147.424 160.573 147.552 160.221 147.808C159.869 148.053 159.57 148.491 159.325 149.12V154H157.709ZM166.641 154.192C165.991 154.192 165.388 154.032 164.833 153.712C164.279 153.392 163.825 152.928 163.473 152.32C163.132 151.701 162.961 150.96 162.961 150.096C162.961 149.232 163.132 148.496 163.473 147.888C163.825 147.269 164.279 146.8 164.833 146.48C165.388 146.149 165.991 145.984 166.641 145.984C167.281 145.984 167.879 146.149 168.433 146.48C168.999 146.8 169.452 147.269 169.793 147.888C170.145 148.496 170.321 149.232 170.321 150.096C170.321 150.96 170.145 151.701 169.793 152.32C169.452 152.928 168.999 153.392 168.433 153.712C167.879 154.032 167.281 154.192 166.641 154.192ZM166.641 152.864C167.057 152.864 167.415 152.752 167.713 152.528C168.023 152.293 168.257 151.968 168.417 151.552C168.577 151.136 168.657 150.651 168.657 150.096C168.657 149.541 168.577 149.056 168.417 148.64C168.257 148.213 168.023 147.888 167.713 147.664C167.415 147.429 167.057 147.312 166.641 147.312C166.225 147.312 165.868 147.429 165.569 147.664C165.271 147.888 165.036 148.213 164.865 148.64C164.705 149.056 164.625 149.541 164.625 150.096C164.625 150.651 164.705 151.136 164.865 151.552C165.036 151.968 165.271 152.293 165.569 152.528C165.868 152.752 166.225 152.864 166.641 152.864ZM174.944 154.192C173.973 154.192 173.194 153.835 172.608 153.12C172.021 152.395 171.728 151.387 171.728 150.096C171.728 149.253 171.882 148.528 172.192 147.92C172.512 147.301 172.928 146.827 173.44 146.496C173.952 146.155 174.496 145.984 175.072 145.984C175.53 145.984 175.92 146.064 176.24 146.224C176.56 146.373 176.874 146.587 177.184 146.864L177.12 145.568V142.656H178.736V154H177.408L177.28 153.12H177.232C176.944 153.408 176.602 153.659 176.208 153.872C175.813 154.085 175.392 154.192 174.944 154.192ZM175.328 152.848C175.658 152.848 175.968 152.773 176.256 152.624C176.554 152.464 176.842 152.219 177.12 151.888V148.048C176.832 147.781 176.544 147.595 176.256 147.488C175.978 147.381 175.69 147.328 175.392 147.328C175.018 147.328 174.682 147.44 174.384 147.664C174.085 147.877 173.845 148.192 173.664 148.608C173.482 149.024 173.392 149.515 173.392 150.08C173.392 150.965 173.557 151.648 173.888 152.128C174.229 152.608 174.709 152.848 175.328 152.848ZM183.497 154.192C182.676 154.192 182.068 153.925 181.673 153.392C181.289 152.859 181.097 152.096 181.097 151.104V146.176H182.713V150.896C182.713 151.579 182.82 152.069 183.033 152.368C183.246 152.656 183.582 152.8 184.041 152.8C184.404 152.8 184.729 152.709 185.017 152.528C185.305 152.336 185.609 152.032 185.929 151.616V146.176H187.545V154H186.217L186.089 152.816H186.041C185.689 153.232 185.31 153.568 184.905 153.824C184.51 154.069 184.041 154.192 183.497 154.192ZM193.189 154.192C192.485 154.192 191.851 154.032 191.285 153.712C190.731 153.392 190.288 152.928 189.957 152.32C189.627 151.701 189.461 150.96 189.461 150.096C189.461 149.232 189.643 148.496 190.005 147.888C190.368 147.269 190.837 146.8 191.413 146.48C192 146.149 192.635 145.984 193.317 145.984C193.819 145.984 194.256 146.075 194.629 146.256C195.003 146.427 195.328 146.635 195.605 146.88L194.805 147.936C194.592 147.733 194.373 147.579 194.149 147.472C193.925 147.365 193.675 147.312 193.397 147.312C192.949 147.312 192.555 147.429 192.213 147.664C191.872 147.888 191.605 148.213 191.413 148.64C191.221 149.056 191.125 149.541 191.125 150.096C191.125 150.651 191.216 151.136 191.397 151.552C191.589 151.968 191.851 152.293 192.181 152.528C192.523 152.752 192.912 152.864 193.349 152.864C193.68 152.864 193.989 152.795 194.277 152.656C194.576 152.517 194.837 152.347 195.061 152.144L195.733 153.216C195.371 153.536 194.971 153.781 194.533 153.952C194.096 154.112 193.648 154.192 193.189 154.192ZM199.973 154.192C199.099 154.192 198.485 153.941 198.133 153.44C197.781 152.928 197.605 152.267 197.605 151.456V147.472H196.469V146.256L197.685 146.176L197.877 144.016H199.221V146.176H201.269V147.472H199.221V151.472C199.221 151.931 199.312 152.283 199.493 152.528C199.675 152.773 199.968 152.896 200.373 152.896C200.512 152.896 200.656 152.88 200.805 152.848C200.965 152.805 201.104 152.757 201.221 152.704L201.509 153.904C201.296 153.979 201.056 154.043 200.789 154.096C200.523 154.16 200.251 154.192 199.973 154.192ZM142.298 175V164.52H145.018C146.085 164.52 146.991 164.717 147.738 165.112C148.495 165.507 149.071 166.093 149.466 166.872C149.861 167.64 150.058 168.589 150.058 169.72C150.058 170.851 149.861 171.811 149.466 172.6C149.071 173.389 148.506 173.987 147.77 174.392C147.034 174.797 146.143 175 145.098 175H142.298ZM143.93 173.672H144.906C145.663 173.672 146.298 173.523 146.81 173.224C147.322 172.925 147.711 172.488 147.978 171.912C148.245 171.325 148.378 170.595 148.378 169.72C148.378 168.845 148.245 168.125 147.978 167.56C147.711 166.984 147.322 166.557 146.81 166.28C146.298 165.992 145.663 165.848 144.906 165.848H143.93V173.672ZM155.355 175.192C154.641 175.192 153.995 175.032 153.419 174.712C152.854 174.381 152.401 173.912 152.059 173.304C151.718 172.696 151.547 171.96 151.547 171.096C151.547 170.253 151.718 169.528 152.059 168.92C152.401 168.301 152.843 167.827 153.387 167.496C153.931 167.155 154.507 166.984 155.115 166.984C155.798 166.984 156.374 167.139 156.843 167.448C157.323 167.757 157.686 168.189 157.931 168.744C158.177 169.299 158.299 169.944 158.299 170.68C158.299 170.829 158.289 170.984 158.267 171.144C158.257 171.293 158.241 171.416 158.219 171.512H152.811L152.795 170.392H156.891C156.891 169.709 156.742 169.181 156.443 168.808C156.155 168.435 155.723 168.248 155.147 168.248C154.806 168.248 154.475 168.344 154.155 168.536C153.835 168.728 153.569 169.037 153.355 169.464C153.153 169.88 153.051 170.424 153.051 171.096C153.051 171.747 153.169 172.28 153.403 172.696C153.638 173.112 153.942 173.421 154.315 173.624C154.699 173.827 155.115 173.928 155.563 173.928C155.915 173.928 156.241 173.875 156.539 173.768C156.849 173.661 157.147 173.517 157.435 173.336L157.995 174.36C157.633 174.595 157.227 174.792 156.779 174.952C156.342 175.112 155.867 175.192 155.355 175.192ZM160.395 175V166.184C160.395 165.64 160.48 165.165 160.651 164.76C160.821 164.355 161.088 164.04 161.451 163.816C161.813 163.581 162.283 163.464 162.859 163.464C163.125 163.464 163.376 163.491 163.611 163.544C163.856 163.597 164.064 163.661 164.235 163.736L163.915 164.952C163.765 164.877 163.616 164.829 163.467 164.808C163.328 164.776 163.189 164.76 163.051 164.76C162.709 164.76 162.448 164.877 162.267 165.112C162.096 165.336 162.011 165.688 162.011 166.168V175H160.395ZM159.339 168.472V167.256L160.475 167.176H163.595V168.472H159.339ZM165.019 175V167.176H166.635V175H165.019ZM165.835 165.704C165.557 165.704 165.323 165.613 165.131 165.432C164.939 165.24 164.843 165.005 164.843 164.728C164.843 164.451 164.939 164.221 165.131 164.04C165.323 163.859 165.557 163.768 165.835 163.768C166.123 163.768 166.357 163.859 166.539 164.04C166.731 164.221 166.827 164.451 166.827 164.728C166.827 165.005 166.731 165.24 166.539 165.432C166.357 165.613 166.123 165.704 165.835 165.704ZM169.091 175V167.176H170.419L170.547 168.264H170.595C170.958 167.912 171.347 167.613 171.763 167.368C172.179 167.112 172.654 166.984 173.187 166.984C174.019 166.984 174.627 167.251 175.011 167.784C175.395 168.317 175.587 169.08 175.587 170.072V175H173.971V170.28C173.971 169.597 173.865 169.112 173.651 168.824C173.449 168.525 173.113 168.376 172.643 168.376C172.27 168.376 171.939 168.467 171.651 168.648C171.374 168.829 171.059 169.096 170.707 169.448V175H169.091ZM177.951 175V167.176H179.567V175H177.951ZM178.767 165.704C178.489 165.704 178.255 165.613 178.063 165.432C177.871 165.24 177.775 165.005 177.775 164.728C177.775 164.451 177.871 164.221 178.063 164.04C178.255 163.859 178.489 163.768 178.767 163.768C179.055 163.768 179.289 163.859 179.471 164.04C179.663 164.221 179.759 164.451 179.759 164.728C179.759 165.005 179.663 165.24 179.471 165.432C179.289 165.613 179.055 165.704 178.767 165.704ZM184.653 175.192C183.778 175.192 183.165 174.941 182.813 174.44C182.461 173.928 182.285 173.267 182.285 172.456V168.472H181.149V167.256L182.365 167.176L182.557 165.016H183.901V167.176H185.949V168.472H183.901V172.472C183.901 172.931 183.992 173.283 184.173 173.528C184.354 173.773 184.648 173.896 185.053 173.896C185.192 173.896 185.336 173.88 185.485 173.848C185.645 173.805 185.784 173.757 185.901 173.704L186.189 174.904C185.976 174.979 185.736 175.043 185.469 175.096C185.202 175.16 184.93 175.192 184.653 175.192ZM187.638 175V167.176H189.254V175H187.638ZM188.454 165.704C188.177 165.704 187.942 165.613 187.75 165.432C187.558 165.24 187.462 165.005 187.462 164.728C187.462 164.451 187.558 164.221 187.75 164.04C187.942 163.859 188.177 163.768 188.454 163.768C188.742 163.768 188.977 163.859 189.158 164.04C189.35 164.221 189.446 164.451 189.446 164.728C189.446 165.005 189.35 165.24 189.158 165.432C188.977 165.613 188.742 165.704 188.454 165.704ZM194.852 175.192C194.202 175.192 193.599 175.032 193.044 174.712C192.49 174.392 192.036 173.928 191.684 173.32C191.343 172.701 191.172 171.96 191.172 171.096C191.172 170.232 191.343 169.496 191.684 168.888C192.036 168.269 192.49 167.8 193.044 167.48C193.599 167.149 194.202 166.984 194.852 166.984C195.492 166.984 196.09 167.149 196.644 167.48C197.21 167.8 197.663 168.269 198.004 168.888C198.356 169.496 198.532 170.232 198.532 171.096C198.532 171.96 198.356 172.701 198.004 173.32C197.663 173.928 197.21 174.392 196.644 174.712C196.09 175.032 195.492 175.192 194.852 175.192ZM194.852 173.864C195.268 173.864 195.626 173.752 195.924 173.528C196.234 173.293 196.468 172.968 196.628 172.552C196.788 172.136 196.868 171.651 196.868 171.096C196.868 170.541 196.788 170.056 196.628 169.64C196.468 169.213 196.234 168.888 195.924 168.664C195.626 168.429 195.268 168.312 194.852 168.312C194.436 168.312 194.079 168.429 193.78 168.664C193.482 168.888 193.247 169.213 193.076 169.64C192.916 170.056 192.836 170.541 192.836 171.096C192.836 171.651 192.916 172.136 193.076 172.552C193.247 172.968 193.482 173.293 193.78 173.528C194.079 173.752 194.436 173.864 194.852 173.864ZM200.451 175V167.176H201.779L201.907 168.264H201.955C202.317 167.912 202.707 167.613 203.123 167.368C203.539 167.112 204.013 166.984 204.547 166.984C205.379 166.984 205.987 167.251 206.371 167.784C206.755 168.317 206.947 169.08 206.947 170.072V175H205.331V170.28C205.331 169.597 205.224 169.112 205.011 168.824C204.808 168.525 204.472 168.376 204.003 168.376C203.629 168.376 203.299 168.467 203.011 168.648C202.733 168.829 202.419 169.096 202.067 169.448V175H200.451Z" fill="#002B5B"/>
<path d="M743 216.5L532 52L266 162.5L381.5 428L478.5 481L533 728.5L744 640.5L757 428L743 216.5Z" fill="#50B4D0" fill-opacity="0.4" stroke="#50B4D0"/>
<path d="M691 268.5L531.5 353.5L478.5 374.5L456 428L478.5 481L532 503L583.5 481L907.5 428L691 268.5Z" fill="#5B007A" fill-opacity="0.4" stroke="#5B007A"/>
<path d="M691 268.5L531.5 51.5L265.5 162L230.5 428L264.5 694.5L531.5 728L744 641L831.5 428L691 268.5Z" fill="#134072" fill-opacity="0.4" stroke="#134072"/>
<path d="M691 268.5L531.5 203.5L319.5 215.5L384 428L373.5 589L531.5 653.5L690.5 587.5L830.5 428.5L691 268.5Z" fill="#CC273E" fill-opacity="0.4" stroke="#CC273E"/>
<path d="M637 322L532 204L320 216L457.5 428.5L479 481.5L532 654L637.5 535L831 429L637 322Z" fill="#FC624D" fill-opacity="0.4" stroke="#FC624D"/>
<path d="M637.5 323L531.5 127.5L319.5 215.5L381.5 428L478.5 481L531.5 653.5L583.5 480L907 428.5L637.5 323Z" fill="#FBBC05" fill-opacity="0.4" stroke="#FBBC05"/>
<path d="M583.5 479.5L531 579L478.5 482L457 429L425.5 322.5L531.5 203L584.5 375.5L907 429L583.5 479.5Z" fill="black" fill-opacity="0.4" stroke="black"/>
</svg>
